<svg width="547" height="301" viewBox="0 0 547 301" fill="none" xmlns="http://www.w3.org/2000/svg">
<rect x="114" y="18.7646" width="319" height="228.527" rx="30" fill="url(#paint0_linear_31_525)"/>
<rect x="114" width="319" height="228.527" rx="30" fill="url(#paint1_linear_31_525)"/>
<rect x="125.393" y="12.063" width="296.214" height="204.401" rx="20" fill="url(#paint2_linear_31_525)"/>
<rect x="125.393" y="12.063" width="296.214" height="204.401" rx="20" fill="url(#paint3_linear_31_525)" fill-opacity="0.28"/>
<rect x="129.414" y="16.084" width="288.172" height="196.359" rx="15" fill="url(#paint4_linear_31_525)"/>
<path d="M214.985 247.272H331.071V284.124C331.071 292.961 323.908 300.124 315.071 300.124H230.985C222.149 300.124 214.985 292.961 214.985 284.124V247.272Z" fill="#0C0D13"/>
<path d="M215.195 247.292H331.134V279.544C331.134 288.381 323.971 295.544 315.134 295.544H231.195C222.359 295.544 215.195 288.381 215.195 279.544V247.292Z" fill="#262836"/>
<rect x="215.195" y="247.292" width="115.939" height="16.7542" fill="#1C1E29"/>
<path d="M319.589 65.5635C320.332 64.2768 321.977 63.836 323.264 64.5789V64.5789C324.551 65.3217 324.991 66.967 324.249 68.2537L309.453 93.8812L304.793 91.191L319.589 65.5635Z" fill="white"/>
<path d="M226.326 65.5635C225.583 64.2768 223.938 63.836 222.651 64.5789V64.5789C221.364 65.3217 220.923 66.967 221.666 68.2537L236.462 93.8812L241.122 91.191L226.326 65.5635Z" fill="white"/>
<path d="M351.064 152.01C340.398 58.7457 206.849 58.7543 196.109 152.01H351.064Z" fill="white"/>
<circle cx="237.538" cy="123.494" r="6.45644" fill="#19E8B7"/>
<circle cx="308.27" cy="123.494" r="6.45644" fill="#23E5CF"/>
<defs>
<linearGradient id="paint0_linear_31_525" x1="114" y1="234.894" x2="433" y2="235.229" gradientUnits="userSpaceOnUse">
<stop stop-color="#0B0C12"/>
<stop offset="0.0521788" stop-color="#292B3F"/>
<stop offset="0.11" stop-color="#0B0C12"/>
<stop offset="0.9" stop-color="#0B0C12"/>
<stop offset="0.955" stop-color="#292B3F"/>
<stop offset="1" stop-color="#0B0C12"/>
</linearGradient>
<linearGradient id="paint1_linear_31_525" x1="119.026" y1="5.69643" x2="433" y2="228.527" gradientUnits="userSpaceOnUse">
<stop stop-color="#2A2D46"/>
<stop offset="1" stop-color="#252630"/>
</linearGradient>
<linearGradient id="paint2_linear_31_525" x1="125.393" y1="12.063" x2="419.932" y2="218.81" gradientUnits="userSpaceOnUse">
<stop stop-color="#15161F"/>
<stop offset="1" stop-color="#0A0A0F"/>
</linearGradient>
<linearGradient id="paint3_linear_31_525" x1="133.819" y1="16.9881" x2="421.607" y2="216.464" gradientUnits="userSpaceOnUse">
<stop stop-color="#030605"/>
<stop offset="0.065" stop-color="#030605"/>
<stop offset="1" stop-color="#00ECFF"/>
</linearGradient>
<linearGradient id="paint4_linear_31_525" x1="131.406" y1="16.084" x2="418.034" y2="211.787" gradientUnits="userSpaceOnUse">
<stop stop-color="#00F07D"/>
<stop offset="1" stop-color="#33DFF7"/>
</linearGradient>
</defs>
</svg>
