<svg width="576" height="300" viewBox="0 0 576 300" fill="none" xmlns="http://www.w3.org/2000/svg">
<path d="M157.245 29.6763H519.933C541.698 29.6763 559.343 47.3207 559.343 69.0862C559.343 90.8517 541.698 108.496 519.933 108.496H466.326C444.066 108.496 426.022 126.541 426.022 148.8C426.022 171.06 444.066 189.104 466.326 189.104H473.814C497.024 189.104 515.839 207.92 515.839 231.13C515.839 254.34 497.024 273.155 473.814 273.155H159.86C136.65 273.155 117.835 254.34 117.835 231.13C117.835 207.92 99.0191 189.104 75.8091 189.104H60.3042C38.0449 189.104 20.0001 171.06 20.0001 148.8C20.0001 126.541 38.0449 108.496 60.3042 108.496H78.4246C100.19 108.496 117.835 90.8517 117.835 69.0862C117.835 47.3207 135.479 29.6763 157.245 29.6763Z" fill="url(#paint0_linear_44_387)"/>
<path d="M141.088 137.773H263.205C298.656 137.773 327.395 109.035 327.395 73.5835C327.395 38.1325 298.656 9.39366 263.205 9.39366H141.088C105.637 9.39366 76.8978 38.1325 76.8978 73.5835C76.8978 109.035 105.637 137.773 141.088 137.773Z" fill="url(#paint1_linear_44_387)"/>
<path d="M141.088 128.38H263.205C298.656 128.38 327.395 99.6411 327.395 64.19C327.395 28.7389 298.656 0.000106812 263.205 0.000106812H141.088C105.637 0.000106812 76.8978 28.7389 76.8978 64.19C76.8978 99.6411 105.637 128.38 141.088 128.38Z" fill="#E1E1E1"/>
<path d="M140.6 25.4476C116.986 25.4476 97.8418 44.5916 97.8418 68.2062C97.8418 91.8212 116.986 110.965 140.6 110.965C164.215 110.965 183.359 91.8212 183.359 68.2062C183.359 44.5916 164.215 25.4476 140.6 25.4476Z" fill="#D1D1D1"/>
<path d="M140.6 20.6761C116.986 20.6761 97.8418 39.8201 97.8418 63.4347C97.8418 87.0497 116.986 106.193 140.6 106.193C164.215 106.193 183.359 87.0497 183.359 63.4347C183.359 39.8201 164.215 20.6761 140.6 20.6761Z" fill="white"/>
<path d="M388.851 300H266.734C231.283 300 202.544 271.261 202.544 235.81C202.544 200.359 231.283 171.62 266.734 171.62H388.851C424.302 171.62 453.041 200.359 453.041 235.81C453.041 271.261 424.302 300 388.851 300Z" fill="url(#paint2_linear_44_387)"/>
<path d="M388.851 290.606H266.734C231.283 290.606 202.544 261.868 202.544 226.417C202.544 190.965 231.283 162.227 266.734 162.227H388.851C424.302 162.227 453.041 190.965 453.041 226.417C453.041 261.868 424.302 290.606 388.851 290.606Z" fill="#FFBF48"/>
<path d="M389.338 187.674C412.953 187.674 432.097 206.818 432.097 230.433C432.097 254.048 412.953 273.191 389.338 273.191C365.723 273.191 346.58 254.048 346.58 230.433C346.58 206.818 365.723 187.674 389.338 187.674Z" fill="#DAA74A"/>
<path d="M389.338 182.903C412.953 182.903 432.097 202.047 432.097 225.661C432.097 249.276 412.953 268.42 389.338 268.42C365.723 268.42 346.58 249.276 346.58 225.661C346.58 202.047 365.723 182.903 389.338 182.903Z" fill="#FEEED1"/>
<defs>
<linearGradient id="paint0_linear_44_387" x1="257.919" y1="19.6763" x2="257.919" y2="283.155" gradientUnits="userSpaceOnUse">
<stop stop-color="#C395FF"/>
<stop offset="0.317044" stop-color="#8EAEFF"/>
<stop offset="0.708475" stop-color="#8EEBFF"/>
<stop offset="1" stop-color="#34FF85"/>
</linearGradient>
<linearGradient id="paint1_linear_44_387" x1="327.395" y1="73.5835" x2="76.8978" y2="73.5835" gradientUnits="userSpaceOnUse">
<stop offset="0.00416667" stop-color="#BEBEBE"/>
<stop offset="0.5125" stop-color="#BFBFBF"/>
<stop offset="1" stop-color="#BEBEBE"/>
</linearGradient>
<linearGradient id="paint2_linear_44_387" x1="202.544" y1="235.81" x2="453.041" y2="235.81" gradientUnits="userSpaceOnUse">
<stop offset="0.00416667" stop-color="#E49500"/>
<stop offset="0.5125" stop-color="#FFA600"/>
<stop offset="1" stop-color="#E49500"/>
</linearGradient>
</defs>
</svg>
