<svg width="500" height="300" viewBox="0 0 500 300" fill="none" xmlns="http://www.w3.org/2000/svg">
<g clip-path="url(#clip0_34_329)">
<circle cx="251.985" cy="168.739" r="109.132" fill="url(#paint0_linear_34_329)"/>
<path d="M317.751 159.736L363.328 171.949L383.405 206.556L365.318 274.065C364.235 278.105 360.065 280.495 356.026 279.412L290.396 261.827C289.437 261.572 288.538 261.131 287.751 260.528C286.963 259.925 286.302 259.172 285.806 258.313C285.31 257.454 284.988 256.505 284.86 255.522C284.731 254.538 284.798 253.538 285.057 252.581L308.505 165.074C308.759 164.115 309.201 163.216 309.804 162.428C310.407 161.641 311.16 160.98 312.019 160.484C312.878 159.987 313.827 159.666 314.811 159.538C315.794 159.409 316.794 159.477 317.751 159.736Z" fill="black" fill-opacity="0.1"/>
<path d="M318.914 157.721L364.491 169.933L384.568 204.541L366.481 272.05C365.399 276.09 361.229 278.48 357.189 277.397L291.559 259.812C290.601 259.557 289.701 259.116 288.914 258.513C288.126 257.91 287.465 257.157 286.969 256.298C286.473 255.439 286.151 254.49 286.023 253.506C285.895 252.523 285.962 251.523 286.221 250.566L309.668 163.059C309.923 162.1 310.364 161.201 310.967 160.413C311.57 159.626 312.323 158.965 313.182 158.469C314.041 157.973 314.99 157.651 315.974 157.523C316.958 157.394 317.957 157.462 318.914 157.721Z" fill="#F6F5F4"/>
<path d="M364.491 169.933L359.118 189.986C358.035 194.026 360.473 198.089 364.513 199.172L384.568 204.542L364.491 169.933Z" fill="#DEDDDA"/>
<path d="M314.399 171.464L356.534 182.754L355.029 188.372L312.894 177.082L314.399 171.464Z" fill="#C0BFBC"/>
<path d="M306.873 199.554L374.289 217.618L373.536 220.427L306.12 202.363L306.873 199.554ZM305.367 205.172L363.36 220.711L362.607 223.52L304.615 207.981L305.367 205.172ZM303.109 213.599L328.39 220.373L327.638 223.182L302.357 216.408L303.109 213.599ZM309.883 188.318L377.299 206.382L376.547 209.191L309.131 191.127L309.883 188.318ZM294.83 244.498L362.246 262.562L361.493 265.371L294.077 247.307L294.83 244.498ZM293.325 250.116L352.314 265.922L351.561 268.731L292.572 252.925L293.325 250.116ZM301.604 219.217L326.885 225.991L326.132 228.8L300.851 222.026L301.604 219.217ZM300.099 224.835L316.953 229.351L316.2 232.16L299.346 227.644L300.099 224.835ZM298.593 230.453L323.874 237.227L323.122 240.036L297.841 233.262L298.593 230.453ZM297.088 236.071L313.942 240.587L313.189 243.396L296.335 238.88L297.088 236.071ZM308.378 193.936L375.794 212L375.041 214.809L307.625 196.745L308.378 193.936Z" fill="#C0BFBC"/>
<path d="M370.525 231.663L331.199 221.126L324.425 246.407L363.751 256.944L370.525 231.663Z" fill="url(#paint1_linear_34_329)"/>
<rect x="107.46" y="150.769" width="112.2" height="86.7798" rx="10" transform="rotate(15 107.46 150.769)" fill="url(#paint2_linear_34_329)"/>
<rect x="107.46" y="150.769" width="112.2" height="84.1501" rx="10" transform="rotate(15 107.46 150.769)" fill="#F6F5F4"/>
<path d="M104.872 160.428C106.301 155.094 111.785 151.928 117.119 153.357L206.178 177.22C211.513 178.65 214.678 184.133 213.249 189.468L210.115 201.163C209.78 202.413 208.681 203.307 207.389 203.381L153.432 206.473C151.275 206.597 149.135 206.018 147.334 204.824L102.976 175.41C101.901 174.698 101.402 173.379 101.736 172.133L104.872 160.428Z" fill="#E6E6E6"/>
<path d="M104.872 160.428C106.301 155.094 111.785 151.928 117.119 153.357L206.178 177.22C211.513 178.65 214.678 184.133 213.249 189.468L210.766 198.734C210.433 199.976 209.346 200.868 208.063 200.952L154.482 204.44C152.288 204.583 150.108 203.999 148.28 202.778L103.621 172.966C102.552 172.253 102.056 170.937 102.389 169.695L104.872 160.428Z" fill="#F6F5F4"/>
<g clip-path="url(#clip1_34_329)">
<path d="M316.94 103.601L242.431 123.566C238.691 124.568 234.697 121.796 233.513 117.377L217.611 58.0288C216.427 53.6101 218.499 49.2122 222.24 48.2099L296.749 28.2453C300.489 27.2429 304.483 30.0155 305.667 34.4342L321.569 93.7823C322.753 98.2009 320.681 102.599 316.94 103.601Z" fill="url(#paint3_linear_34_329)"/>
<path d="M316.487 101.908L241.977 121.872C238.237 122.875 234.391 120.655 233.389 116.914L227.944 96.5931C226.942 92.8525 229.162 89.0069 232.903 88.0046L307.412 68.0399C311.152 67.0376 314.998 69.2578 316 72.9985L321.445 93.3192C322.448 97.0599 320.227 100.905 316.487 101.908Z" fill="url(#paint4_linear_34_329)"/>
<path d="M315.125 96.8275L240.616 116.792C236.876 117.795 233.03 115.574 232.028 111.834L216.373 53.4083C215.37 49.6677 217.591 45.8221 221.331 44.8198L295.84 24.8551C299.581 23.8528 303.427 26.073 304.429 29.8137L320.084 88.239C321.086 91.9797 318.866 95.8252 315.125 96.8275Z" fill="url(#paint5_linear_34_329)"/>
<path d="M218.837 35.5095C215.083 36.5153 212.872 40.3441 213.878 44.098L217.281 56.7985L305.337 33.2038L301.934 20.5034C300.928 16.7495 297.1 14.539 293.346 15.5448L218.837 35.5095Z" fill="#9141AC"/>
<path d="M216.827 55.105L217.281 56.7984L305.337 33.2038L304.884 31.5104L216.827 55.105Z" fill="#613583"/>
<path d="M244.44 103.97C244.942 105.842 243.833 107.763 241.961 108.265C240.089 108.766 238.168 107.657 237.667 105.785C237.165 103.913 238.274 101.993 240.146 101.491C242.018 100.989 243.939 102.098 244.44 103.97Z" fill="#C0BFBC" stroke="#FDFCFC" stroke-width="2" stroke-linecap="round" stroke-linejoin="round"/>
<path d="M257.988 100.34C258.489 102.212 257.38 104.133 255.508 104.635C253.636 105.136 251.716 104.027 251.214 102.155C250.712 100.283 251.821 98.3627 253.693 97.8611C255.565 97.3595 257.486 98.4684 257.988 100.34Z" fill="#C0BFBC" stroke="#FDFCFC" stroke-width="2" stroke-linecap="round" stroke-linejoin="round"/>
<path d="M271.535 96.7102C272.036 98.5822 270.928 100.503 269.056 101.005C267.184 101.506 265.263 100.397 264.761 98.5252C264.26 96.6532 265.369 94.7325 267.241 94.2309C269.113 93.7293 271.033 94.8382 271.535 96.7102Z" fill="#C0BFBC" stroke="#FDFCFC" stroke-width="2" stroke-linecap="round" stroke-linejoin="round"/>
<path d="M285.082 93.0804C285.584 94.9523 284.475 96.873 282.603 97.3746C280.731 97.8762 278.81 96.7673 278.308 94.8953C277.807 93.0233 278.916 91.1027 280.788 90.6011C282.66 90.0995 284.58 91.2084 285.082 93.0804Z" fill="#FBFAFA" stroke="#FDFCFC" stroke-width="2" stroke-linecap="round" stroke-linejoin="round"/>
<path d="M298.629 89.4505C299.131 91.3225 298.022 93.2431 296.15 93.7447C294.278 94.2463 292.357 93.1374 291.855 91.2654C291.354 89.3935 292.463 87.4728 294.335 86.9712C296.207 86.4696 298.127 87.5785 298.629 89.4505Z" fill="#FBFAFA" stroke="#FDFCFC" stroke-width="2" stroke-linecap="round" stroke-linejoin="round"/>
<path d="M312.176 85.8206C312.678 87.6926 311.569 89.6133 309.697 90.1149C307.825 90.6165 305.904 89.5076 305.403 87.6356C304.901 85.7636 306.01 83.8429 307.882 83.3413C309.754 82.8397 311.675 83.9486 312.176 85.8206Z" fill="#FBFAFA" stroke="#FDFCFC" stroke-width="2" stroke-linecap="round" stroke-linejoin="round"/>
<path d="M239.222 84.4961C239.724 86.3681 238.615 88.2888 236.743 88.7904C234.871 89.292 232.95 88.1831 232.449 86.3111C231.947 84.4391 233.056 82.5184 234.928 82.0168C236.8 81.5152 238.721 82.6241 239.222 84.4961Z" fill="#C0BFBC" stroke="#FDFCFC" stroke-width="2" stroke-linecap="round" stroke-linejoin="round"/>
<path d="M252.77 80.8662C253.271 82.7382 252.162 84.6589 250.29 85.1605C248.418 85.6621 246.498 84.5532 245.996 82.6812C245.494 80.8092 246.603 78.8885 248.475 78.3869C250.347 77.8853 252.268 78.9943 252.77 80.8662Z" fill="#C0BFBC" stroke="#FDFCFC" stroke-width="2" stroke-linecap="round" stroke-linejoin="round"/>
<path d="M266.317 77.2364C266.818 79.1084 265.709 81.029 263.837 81.5306C261.965 82.0322 260.045 80.9233 259.543 79.0513C259.042 77.1793 260.15 75.2587 262.022 74.7571C263.894 74.2555 265.815 75.3644 266.317 77.2364Z" fill="#C0BFBC" stroke="#FDFCFC" stroke-width="2" stroke-linecap="round" stroke-linejoin="round"/>
<path d="M279.864 73.6062C280.365 75.4782 279.256 77.3989 277.384 77.9005C275.513 78.4021 273.592 77.2932 273.09 75.4212C272.589 73.5492 273.698 71.6285 275.57 71.1269C277.442 70.6253 279.362 71.7342 279.864 73.6062Z" fill="#C0BFBC" stroke="#FDFCFC" stroke-width="2" stroke-linecap="round" stroke-linejoin="round"/>
<path d="M293.411 69.9764C293.913 71.8483 292.804 73.769 290.932 74.2706C289.06 74.7722 287.139 73.6633 286.637 71.7913C286.136 69.9193 287.245 67.9987 289.117 67.4971C290.989 66.9955 292.909 68.1044 293.411 69.9764Z" fill="#C0BFBC" stroke="#FDFCFC" stroke-width="2" stroke-linecap="round" stroke-linejoin="round"/>
<path d="M306.958 66.3465C307.46 68.2185 306.351 70.1391 304.479 70.6407C302.607 71.1423 300.686 70.0334 300.184 68.1614C299.683 66.2894 300.792 64.3688 302.664 63.8672C304.536 63.3656 306.456 64.4745 306.958 66.3465Z" fill="#C0BFBC" stroke="#FDFCFC" stroke-width="2" stroke-linecap="round" stroke-linejoin="round"/>
<path d="M234.004 65.0223C234.506 66.8942 233.397 68.8149 231.525 69.3165C229.653 69.8181 227.732 68.7092 227.231 66.8372C226.729 64.9652 227.838 63.0446 229.71 62.543C231.582 62.0414 233.503 63.1503 234.004 65.0223Z" fill="#FBFAFA" stroke="#FDFCFC" stroke-width="2" stroke-linecap="round" stroke-linejoin="round"/>
<path d="M247.552 61.3924C248.053 63.2644 246.944 65.185 245.072 65.6866C243.2 66.1882 241.28 65.0793 240.778 63.2073C240.276 61.3353 241.385 59.4147 243.257 58.9131C245.129 58.4115 247.05 59.5204 247.552 61.3924Z" fill="#C0BFBC" stroke="#FDFCFC" stroke-width="2" stroke-linecap="round" stroke-linejoin="round"/>
<path d="M261.099 57.7625C261.6 59.6345 260.491 61.5552 258.619 62.0568C256.747 62.5584 254.827 61.4494 254.325 59.5775C253.823 57.7055 254.932 55.7848 256.804 55.2832C258.676 54.7816 260.597 55.8905 261.099 57.7625Z" fill="#C0BFBC" stroke="#FDFCFC" stroke-width="2" stroke-linecap="round" stroke-linejoin="round"/>
<path d="M274.646 54.1324C275.147 56.0043 274.038 57.925 272.166 58.4266C270.294 58.9282 268.374 57.8193 267.872 55.9473C267.371 54.0753 268.48 52.1547 270.352 51.6531C272.223 51.1515 274.144 52.2604 274.646 54.1324Z" fill="#C0BFBC" stroke="#FDFCFC" stroke-width="2" stroke-linecap="round" stroke-linejoin="round"/>
<path d="M288.193 50.5025C288.694 52.3745 287.586 54.2951 285.714 54.7967C283.842 55.2983 281.921 54.1894 281.419 52.3174C280.918 50.4455 282.027 48.5248 283.899 48.0232C285.771 47.5216 287.691 48.6305 288.193 50.5025Z" fill="#C0BFBC" stroke="#FDFCFC" stroke-width="2" stroke-linecap="round" stroke-linejoin="round"/>
<path d="M301.74 46.8726C302.242 48.7446 301.133 50.6653 299.261 51.1669C297.389 51.6685 295.468 50.5596 294.966 48.6876C294.465 46.8156 295.574 44.8949 297.446 44.3933C299.318 43.8917 301.238 45.0006 301.74 46.8726Z" fill="#C0BFBC" stroke="#FDFCFC" stroke-width="2" stroke-linecap="round" stroke-linejoin="round"/>
<path d="M269.68 76.335C270.679 80.0625 268.466 83.8954 264.739 84.8942C261.011 85.893 257.178 83.68 256.179 79.9526C255.181 76.2251 257.394 72.3921 261.121 71.3934C264.849 70.3946 268.682 72.6076 269.68 76.335Z" fill="#9141AC"/>
</g>
</g>
<defs>
<linearGradient id="paint0_linear_34_329" x1="176.605" y1="88.4833" x2="320.615" y2="263.245" gradientUnits="userSpaceOnUse">
<stop stop-color="#51EDC8"/>
<stop offset="1" stop-color="#517DED"/>
</linearGradient>
<linearGradient id="paint1_linear_34_329" x1="367.138" y1="244.304" x2="327.812" y2="233.766" gradientUnits="userSpaceOnUse">
<stop stop-color="#8FF0A4"/>
<stop offset="1" stop-color="#62A0EA"/>
</linearGradient>
<linearGradient id="paint2_linear_34_329" x1="163.56" y1="150.769" x2="163.56" y2="237.549" gradientUnits="userSpaceOnUse">
<stop stop-color="#E6E4E4"/>
<stop offset="1" stop-color="#E6E6E6"/>
</linearGradient>
<linearGradient id="paint3_linear_34_329" x1="235.792" y1="125.039" x2="323.234" y2="101.609" gradientUnits="userSpaceOnUse">
<stop stop-color="#613583"/>
<stop offset="0.0433748" stop-color="#AF60EF"/>
<stop offset="0.0920385" stop-color="#613583"/>
<stop offset="0.903034" stop-color="#613583"/>
<stop offset="0.955148" stop-color="#874AB4"/>
<stop offset="1" stop-color="#3B214E"/>
</linearGradient>
<linearGradient id="paint4_linear_34_329" x1="312.37" y1="59.4514" x2="224.314" y2="83.046" gradientUnits="userSpaceOnUse">
<stop stop-color="#D5D3CF"/>
<stop offset="0.0384615" stop-color="#F6F5F4"/>
<stop offset="0.0769231" stop-color="#D5D3CF"/>
<stop offset="0.923077" stop-color="#D5D3CF"/>
<stop offset="0.961538" stop-color="#EEEEEC"/>
<stop offset="1" stop-color="#D5D3CF"/>
</linearGradient>
<linearGradient id="paint5_linear_34_329" x1="277.871" y1="106.81" x2="255.637" y2="23.8337" gradientUnits="userSpaceOnUse">
<stop stop-color="white"/>
<stop offset="1" stop-color="#F6F5F4"/>
</linearGradient>
<clipPath id="clip0_34_329">
<rect width="500" height="300" fill="white"/>
</clipPath>
<clipPath id="clip1_34_329">
<rect width="112.2" height="112.2" fill="white" transform="translate(198.953 29.0398) rotate(-15)"/>
</clipPath>
</defs>
</svg>
