<svg width="500" height="300" viewBox="0 0 500 300" fill="none" xmlns="http://www.w3.org/2000/svg">
<g clip-path="url(#clip0_44_425)">
<circle cx="252" cy="149" r="133" fill="url(#paint0_linear_44_425)"/>
<path d="M309.751 151.736L355.328 163.949L375.405 198.556L357.318 266.065C356.235 270.105 352.065 272.495 348.026 271.412L282.396 253.827C281.437 253.572 280.538 253.131 279.751 252.528C278.963 251.925 278.302 251.172 277.806 250.313C277.31 249.454 276.988 248.505 276.86 247.522C276.731 246.538 276.798 245.538 277.057 244.581L300.505 157.074C300.759 156.115 301.201 155.216 301.804 154.428C302.407 153.641 303.16 152.98 304.019 152.484C304.878 151.987 305.827 151.666 306.811 151.538C307.794 151.409 308.794 151.477 309.751 151.736Z" fill="black" fill-opacity="0.1"/>
<path d="M310.914 149.721L356.491 161.933L376.568 196.541L358.481 264.05C357.399 268.09 353.229 270.48 349.189 269.397L283.559 251.812C282.601 251.557 281.701 251.116 280.914 250.513C280.126 249.91 279.465 249.157 278.969 248.298C278.473 247.439 278.151 246.49 278.023 245.506C277.895 244.523 277.962 243.523 278.221 242.566L301.668 155.059C301.923 154.1 302.364 153.201 302.967 152.413C303.57 151.626 304.323 150.965 305.182 150.469C306.041 149.973 306.99 149.651 307.974 149.523C308.958 149.394 309.957 149.462 310.914 149.721Z" fill="#F6F5F4"/>
<path d="M356.491 161.933L351.118 181.986C350.035 186.026 352.473 190.089 356.513 191.172L376.568 196.542L356.491 161.933Z" fill="#DEDDDA"/>
<path d="M306.399 163.464L348.534 174.754L347.029 180.372L304.894 169.082L306.399 163.464Z" fill="#C0BFBC"/>
<path d="M298.873 191.554L366.289 209.618L365.536 212.427L298.12 194.363L298.873 191.554ZM297.367 197.172L355.36 212.711L354.607 215.52L296.615 199.981L297.367 197.172ZM295.109 205.599L320.39 212.373L319.638 215.182L294.357 208.408L295.109 205.599ZM301.883 180.318L369.299 198.382L368.547 201.191L301.131 183.127L301.883 180.318ZM286.83 236.498L354.246 254.562L353.493 257.371L286.077 239.307L286.83 236.498ZM285.325 242.116L344.314 257.922L343.561 260.731L284.572 244.925L285.325 242.116ZM293.604 211.217L318.885 217.991L318.132 220.8L292.851 214.026L293.604 211.217ZM292.099 216.835L308.953 221.351L308.2 224.16L291.346 219.644L292.099 216.835ZM290.593 222.453L315.874 229.227L315.122 232.036L289.841 225.262L290.593 222.453ZM289.088 228.071L305.942 232.587L305.189 235.396L288.335 230.88L289.088 228.071ZM300.378 185.936L367.794 204L367.041 206.809L299.625 188.745L300.378 185.936Z" fill="#C0BFBC"/>
<path d="M362.525 223.663L323.199 213.126L316.425 238.407L355.751 248.944L362.525 223.663Z" fill="url(#paint1_linear_44_425)"/>
<rect x="125" y="149.329" width="112.2" height="86.7798" rx="10" transform="rotate(-2.72218 125 149.329)" fill="url(#paint2_linear_44_425)"/>
<rect x="125" y="149.329" width="112.2" height="84.1501" rx="10" transform="rotate(-2.72218 125 149.329)" fill="#F6F5F4"/>
<path d="M125.475 159.318C125.213 153.801 129.472 149.116 134.989 148.854L227.085 144.475C232.601 144.213 237.286 148.472 237.548 153.989L238.123 166.083C238.185 167.375 237.41 168.562 236.202 169.026L185.747 188.395C183.729 189.17 181.515 189.27 179.436 188.681L128.229 174.166C126.989 173.814 126.112 172.71 126.05 171.422L125.475 159.318Z" fill="#E6E6E6"/>
<path d="M125.475 159.318C125.213 153.801 129.472 149.116 134.989 148.854L227.085 144.475C232.601 144.213 237.286 148.472 237.548 153.989L238.004 163.571C238.065 164.856 237.301 166.036 236.104 166.506L186.128 186.139C184.081 186.943 181.827 187.05 179.714 186.444L128.1 171.641C126.864 171.287 125.992 170.184 125.931 168.9L125.475 159.318Z" fill="#F6F5F4"/>
<g clip-path="url(#clip1_44_425)">
<path d="M325.94 90.6011L251.431 110.566C247.691 111.568 243.697 108.796 242.513 104.377L226.611 45.0288C225.427 40.6101 227.499 36.2122 231.24 35.2099L305.749 15.2453C309.489 14.2429 313.483 17.0155 314.667 21.4342L330.569 80.7823C331.753 85.2009 329.681 89.5988 325.94 90.6011Z" fill="url(#paint3_linear_44_425)"/>
<path d="M325.487 88.9077L250.977 108.872C247.237 109.875 243.391 107.655 242.389 103.914L236.944 83.5931C235.942 79.8525 238.162 76.0069 241.903 75.0046L316.412 55.0399C320.152 54.0376 323.998 56.2578 325 59.9985L330.445 80.3192C331.448 84.0599 329.227 87.9054 325.487 88.9077Z" fill="url(#paint4_linear_44_425)"/>
<path d="M324.125 83.8275L249.616 103.792C245.876 104.795 242.03 102.574 241.028 98.8336L225.373 40.4083C224.37 36.6677 226.591 32.8221 230.331 31.8198L304.841 11.8551C308.581 10.8528 312.427 13.073 313.429 16.8137L329.084 75.239C330.086 78.9797 327.866 82.8252 324.125 83.8275Z" fill="url(#paint5_linear_44_425)"/>
<path d="M227.837 22.5095C224.083 23.5153 221.872 27.3441 222.878 31.098L226.281 43.7985L314.337 20.2038L310.934 7.50341C309.928 3.7495 306.1 1.53896 302.346 2.54481L227.837 22.5095Z" fill="#9141AC"/>
<path d="M225.827 42.105L226.281 43.7984L314.337 20.2038L313.884 18.5104L225.827 42.105Z" fill="#613583"/>
<path d="M253.44 90.9702C253.942 92.8422 252.833 94.7629 250.961 95.2645C249.089 95.7661 247.168 94.6572 246.667 92.7852C246.165 90.9132 247.274 88.9926 249.146 88.491C251.018 87.9894 252.939 89.0983 253.44 90.9702Z" fill="#C0BFBC" stroke="#FDFCFC" stroke-width="2" stroke-linecap="round" stroke-linejoin="round"/>
<path d="M266.988 87.3404C267.489 89.2124 266.38 91.133 264.508 91.6346C262.636 92.1362 260.716 91.0273 260.214 89.1553C259.712 87.2833 260.821 85.3627 262.693 84.8611C264.565 84.3595 266.486 85.4684 266.988 87.3404Z" fill="#C0BFBC" stroke="#FDFCFC" stroke-width="2" stroke-linecap="round" stroke-linejoin="round"/>
<path d="M280.535 83.7102C281.036 85.5822 279.928 87.5029 278.056 88.0045C276.184 88.5061 274.263 87.3972 273.761 85.5252C273.26 83.6532 274.369 81.7325 276.241 81.2309C278.113 80.7293 280.033 81.8382 280.535 83.7102Z" fill="#C0BFBC" stroke="#FDFCFC" stroke-width="2" stroke-linecap="round" stroke-linejoin="round"/>
<path d="M294.082 80.0804C294.584 81.9523 293.475 83.873 291.603 84.3746C289.731 84.8762 287.81 83.7673 287.308 81.8953C286.807 80.0233 287.916 78.1027 289.788 77.6011C291.66 77.0995 293.58 78.2084 294.082 80.0804Z" fill="#FBFAFA" stroke="#FDFCFC" stroke-width="2" stroke-linecap="round" stroke-linejoin="round"/>
<path d="M307.629 76.4505C308.131 78.3225 307.022 80.2431 305.15 80.7447C303.278 81.2463 301.357 80.1374 300.855 78.2654C300.354 76.3935 301.463 74.4728 303.335 73.9712C305.207 73.4696 307.127 74.5785 307.629 76.4505Z" fill="#FBFAFA" stroke="#FDFCFC" stroke-width="2" stroke-linecap="round" stroke-linejoin="round"/>
<path d="M321.176 72.8206C321.678 74.6926 320.569 76.6133 318.697 77.1149C316.825 77.6165 314.904 76.5076 314.403 74.6356C313.901 72.7636 315.01 70.8429 316.882 70.3413C318.754 69.8397 320.675 70.9486 321.176 72.8206Z" fill="#FBFAFA" stroke="#FDFCFC" stroke-width="2" stroke-linecap="round" stroke-linejoin="round"/>
<path d="M248.222 71.4961C248.724 73.3681 247.615 75.2888 245.743 75.7904C243.871 76.292 241.95 75.1831 241.449 73.3111C240.947 71.4391 242.056 69.5184 243.928 69.0168C245.8 68.5152 247.721 69.6241 248.222 71.4961Z" fill="#C0BFBC" stroke="#FDFCFC" stroke-width="2" stroke-linecap="round" stroke-linejoin="round"/>
<path d="M261.77 67.8662C262.271 69.7382 261.162 71.6589 259.29 72.1605C257.418 72.6621 255.498 71.5532 254.996 69.6812C254.494 67.8092 255.603 65.8885 257.475 65.3869C259.347 64.8853 261.268 65.9943 261.77 67.8662Z" fill="#C0BFBC" stroke="#FDFCFC" stroke-width="2" stroke-linecap="round" stroke-linejoin="round"/>
<path d="M275.317 64.2364C275.818 66.1084 274.709 68.029 272.837 68.5306C270.965 69.0322 269.045 67.9233 268.543 66.0513C268.042 64.1793 269.15 62.2587 271.022 61.7571C272.894 61.2555 274.815 62.3644 275.317 64.2364Z" fill="#C0BFBC" stroke="#FDFCFC" stroke-width="2" stroke-linecap="round" stroke-linejoin="round"/>
<path d="M288.864 60.6062C289.365 62.4782 288.256 64.3989 286.384 64.9005C284.513 65.4021 282.592 64.2932 282.09 62.4212C281.589 60.5492 282.698 58.6285 284.57 58.1269C286.442 57.6253 288.362 58.7342 288.864 60.6062Z" fill="#C0BFBC" stroke="#FDFCFC" stroke-width="2" stroke-linecap="round" stroke-linejoin="round"/>
<path d="M302.411 56.9764C302.913 58.8483 301.804 60.769 299.932 61.2706C298.06 61.7722 296.139 60.6633 295.637 58.7913C295.136 56.9193 296.245 54.9987 298.117 54.4971C299.989 53.9955 301.909 55.1044 302.411 56.9764Z" fill="#C0BFBC" stroke="#FDFCFC" stroke-width="2" stroke-linecap="round" stroke-linejoin="round"/>
<path d="M315.958 53.3465C316.46 55.2185 315.351 57.1391 313.479 57.6407C311.607 58.1423 309.686 57.0334 309.184 55.1614C308.683 53.2894 309.792 51.3688 311.664 50.8672C313.536 50.3656 315.456 51.4745 315.958 53.3465Z" fill="#C0BFBC" stroke="#FDFCFC" stroke-width="2" stroke-linecap="round" stroke-linejoin="round"/>
<path d="M243.004 52.0223C243.506 53.8942 242.397 55.8149 240.525 56.3165C238.653 56.8181 236.732 55.7092 236.231 53.8372C235.729 51.9652 236.838 50.0446 238.71 49.543C240.582 49.0414 242.503 50.1503 243.004 52.0223Z" fill="#FBFAFA" stroke="#FDFCFC" stroke-width="2" stroke-linecap="round" stroke-linejoin="round"/>
<path d="M256.552 48.3924C257.053 50.2644 255.944 52.185 254.072 52.6866C252.2 53.1882 250.28 52.0793 249.778 50.2073C249.276 48.3353 250.385 46.4147 252.257 45.9131C254.129 45.4115 256.05 46.5204 256.552 48.3924Z" fill="#C0BFBC" stroke="#FDFCFC" stroke-width="2" stroke-linecap="round" stroke-linejoin="round"/>
<path d="M270.099 44.7625C270.6 46.6345 269.491 48.5552 267.619 49.0568C265.747 49.5584 263.827 48.4494 263.325 46.5775C262.823 44.7055 263.932 42.7848 265.804 42.2832C267.676 41.7816 269.597 42.8905 270.099 44.7625Z" fill="#C0BFBC" stroke="#FDFCFC" stroke-width="2" stroke-linecap="round" stroke-linejoin="round"/>
<path d="M283.646 41.1324C284.147 43.0043 283.038 44.925 281.166 45.4266C279.294 45.9282 277.374 44.8193 276.872 42.9473C276.371 41.0753 277.48 39.1547 279.352 38.6531C281.223 38.1515 283.144 39.2604 283.646 41.1324Z" fill="#C0BFBC" stroke="#FDFCFC" stroke-width="2" stroke-linecap="round" stroke-linejoin="round"/>
<path d="M297.193 37.5025C297.694 39.3745 296.586 41.2951 294.714 41.7967C292.842 42.2983 290.921 41.1894 290.419 39.3174C289.918 37.4455 291.027 35.5248 292.899 35.0232C294.771 34.5216 296.691 35.6305 297.193 37.5025Z" fill="#C0BFBC" stroke="#FDFCFC" stroke-width="2" stroke-linecap="round" stroke-linejoin="round"/>
<path d="M310.74 33.8726C311.242 35.7446 310.133 37.6653 308.261 38.1669C306.389 38.6685 304.468 37.5596 303.966 35.6876C303.465 33.8156 304.574 31.8949 306.446 31.3933C308.318 30.8917 310.238 32.0006 310.74 33.8726Z" fill="#C0BFBC" stroke="#FDFCFC" stroke-width="2" stroke-linecap="round" stroke-linejoin="round"/>
<path d="M278.68 63.335C279.679 67.0625 277.466 70.8954 273.739 71.8942C270.011 72.893 266.178 70.68 265.179 66.9526C264.181 63.2251 266.394 59.3921 270.121 58.3934C273.849 57.3946 277.682 59.6076 278.68 63.335Z" fill="#9141AC"/>
</g>
</g>
<defs>
<linearGradient id="paint0_linear_44_425" x1="160.134" y1="51.1924" x2="335.639" y2="264.175" gradientUnits="userSpaceOnUse">
<stop stop-color="#51EDC8"/>
<stop offset="1" stop-color="#517DED"/>
</linearGradient>
<linearGradient id="paint1_linear_44_425" x1="359.138" y1="236.304" x2="319.812" y2="225.766" gradientUnits="userSpaceOnUse">
<stop stop-color="#8FF0A4"/>
<stop offset="1" stop-color="#62A0EA"/>
</linearGradient>
<linearGradient id="paint2_linear_44_425" x1="181.1" y1="149.329" x2="181.1" y2="236.109" gradientUnits="userSpaceOnUse">
<stop stop-color="#E6E4E4"/>
<stop offset="1" stop-color="#E6E6E6"/>
</linearGradient>
<linearGradient id="paint3_linear_44_425" x1="244.792" y1="112.039" x2="332.234" y2="88.6092" gradientUnits="userSpaceOnUse">
<stop stop-color="#613583"/>
<stop offset="0.0433748" stop-color="#AF60EF"/>
<stop offset="0.0920385" stop-color="#613583"/>
<stop offset="0.903034" stop-color="#613583"/>
<stop offset="0.955148" stop-color="#874AB4"/>
<stop offset="1" stop-color="#3B214E"/>
</linearGradient>
<linearGradient id="paint4_linear_44_425" x1="321.37" y1="46.4514" x2="233.314" y2="70.046" gradientUnits="userSpaceOnUse">
<stop stop-color="#D5D3CF"/>
<stop offset="0.0384615" stop-color="#F6F5F4"/>
<stop offset="0.0769231" stop-color="#D5D3CF"/>
<stop offset="0.923077" stop-color="#D5D3CF"/>
<stop offset="0.961538" stop-color="#EEEEEC"/>
<stop offset="1" stop-color="#D5D3CF"/>
</linearGradient>
<linearGradient id="paint5_linear_44_425" x1="286.871" y1="93.8099" x2="264.637" y2="10.8337" gradientUnits="userSpaceOnUse">
<stop stop-color="white"/>
<stop offset="1" stop-color="#F6F5F4"/>
</linearGradient>
<clipPath id="clip0_44_425">
<rect width="500" height="300" fill="white"/>
</clipPath>
<clipPath id="clip1_44_425">
<rect width="112.2" height="112.2" fill="white" transform="translate(207.953 16.0398) rotate(-15)"/>
</clipPath>
</defs>
</svg>
