<svg width="523" height="300" viewBox="0 0 523 300" fill="none" xmlns="http://www.w3.org/2000/svg">
<path d="M363.592 8.17163H132.055C109.964 8.17163 92.0552 26.0803 92.0552 48.1716V65.3093C92.0552 85.345 108.297 101.587 128.333 101.587C148.369 101.587 164.611 117.829 164.611 137.865V157.724C164.611 179.815 146.702 197.724 124.611 197.724H40C17.9086 197.724 0 215.632 0 237.724V252.5C0 274.591 17.9086 292.5 40 292.5H326.86C348.952 292.5 366.86 274.591 366.86 252.5V237.724C366.86 215.632 384.769 197.724 406.86 197.724H481.948C504.04 197.724 521.948 179.815 521.948 157.724V141.587C521.948 119.496 504.04 101.587 481.948 101.587H443.592C421.5 101.587 403.592 83.6786 403.592 61.5872V48.1716C403.592 26.0802 385.683 8.17163 363.592 8.17163Z" fill="url(#paint0_linear_33_641)"/>
<rect x="68.928" y="159.623" width="177.762" height="139.67" rx="16" fill="#3E3D41"/>
<path d="M88.1578 207.415L100.606 215.111V218.423L88.2538 226.119L86.2538 223.191L96.9738 216.775L86.2538 210.487L88.1578 207.415Z" fill="#00A3FF"/>
<path d="M68.928 175.623C68.928 166.786 76.0914 159.623 84.928 159.623H230.69C239.526 159.623 246.69 166.786 246.69 175.623V193.18H68.928V175.623Z" fill="#1C1C1C"/>
<path d="M68.928 175.623C68.928 166.786 76.0914 159.623 84.928 159.623H230.69C239.526 159.623 246.69 166.786 246.69 175.623V191.366H68.928V175.623Z" fill="#292929"/>
<path d="M224.198 172.321C223.91 172.322 223.633 172.436 223.429 172.64C223.224 172.845 223.109 173.123 223.109 173.413C223.109 173.703 223.224 173.981 223.429 174.186L226.299 177.055L223.429 179.925C223.224 180.13 223.109 180.408 223.109 180.697C223.109 180.987 223.224 181.265 223.429 181.47C223.634 181.675 223.912 181.79 224.202 181.79C224.492 181.79 224.77 181.675 224.974 181.47L227.844 178.601L230.714 181.47C230.919 181.675 231.197 181.79 231.486 181.79C231.776 181.79 232.054 181.675 232.259 181.47C232.464 181.265 232.579 180.987 232.579 180.697C232.579 180.408 232.464 180.13 232.259 179.925L229.389 177.055L232.259 174.186C232.464 173.981 232.579 173.703 232.579 173.413C232.579 173.123 232.464 172.845 232.259 172.64C232.157 172.538 232.036 172.457 231.902 172.402C231.769 172.347 231.626 172.319 231.482 172.32C231.194 172.321 230.917 172.436 230.714 172.64L227.844 175.51L224.974 172.64C224.872 172.538 224.751 172.457 224.618 172.402C224.484 172.347 224.342 172.319 224.197 172.32L224.198 172.321Z" fill="#77767B"/>
<rect x="269.363" y="159.623" width="177.762" height="139.67" rx="16" fill="#3E3D41"/>
<path d="M269.363 175.623C269.363 166.786 276.527 159.623 285.363 159.623H431.125C439.961 159.623 447.125 166.786 447.125 175.623V193.18H269.363V175.623Z" fill="#1C1C1C"/>
<path d="M269.363 175.623C269.363 166.786 276.527 159.623 285.363 159.623H431.125C439.961 159.623 447.125 166.786 447.125 175.623V191.366H269.363V175.623Z" fill="#292929"/>
<path d="M424.633 172.321C424.345 172.322 424.069 172.436 423.864 172.64C423.659 172.845 423.544 173.123 423.544 173.413C423.544 173.703 423.659 173.981 423.864 174.186L426.734 177.055L423.864 179.925C423.659 180.13 423.544 180.408 423.544 180.697C423.544 180.987 423.659 181.265 423.864 181.47C424.069 181.675 424.347 181.79 424.637 181.79C424.927 181.79 425.205 181.675 425.41 181.47L428.279 178.601L431.149 181.47C431.354 181.675 431.632 181.79 431.922 181.79C432.211 181.79 432.489 181.675 432.694 181.47C432.899 181.265 433.014 180.987 433.014 180.697C433.014 180.408 432.899 180.13 432.694 179.925L429.825 177.055L432.694 174.186C432.899 173.981 433.014 173.703 433.014 173.413C433.014 173.123 432.899 172.845 432.694 172.64C432.592 172.538 432.471 172.457 432.338 172.402C432.204 172.347 432.061 172.319 431.917 172.32C431.629 172.321 431.353 172.436 431.149 172.64L428.279 175.51L425.41 172.64C425.308 172.538 425.187 172.457 425.053 172.402C424.92 172.347 424.777 172.319 424.633 172.32L424.633 172.321Z" fill="#77767B"/>
<path d="M288.593 207.415L301.041 215.111V218.423L288.689 226.119L286.689 223.191L297.409 216.775L286.689 210.487L288.593 207.415Z" fill="#FF7800"/>
<rect x="170.506" width="177.762" height="139.67" rx="16" fill="#3E3D41"/>
<path d="M170.506 16C170.506 7.16344 177.67 0 186.506 0H332.268C341.104 0 348.268 7.16345 348.268 16V33.557H170.506V16Z" fill="#1C1C1C"/>
<path d="M170.506 16C170.506 7.16344 177.67 0 186.506 0H332.268C341.104 0 348.268 7.16344 348.268 16V31.7432H170.506V16Z" fill="#292929"/>
<path d="M325.776 12.6982C325.488 12.6989 325.211 12.8137 325.007 13.0174C324.802 13.2224 324.687 13.5003 324.687 13.7901C324.687 14.08 324.802 14.3579 325.007 14.5629L327.877 17.4324L325.007 20.302C324.802 20.507 324.687 20.7849 324.687 21.0747C324.687 21.3646 324.802 21.6425 325.007 21.8475C325.212 22.0524 325.49 22.1675 325.78 22.1675C326.07 22.1675 326.348 22.0524 326.553 21.8475L329.422 18.9779L332.292 21.8475C332.497 22.0524 332.775 22.1675 333.064 22.1675C333.354 22.1675 333.632 22.0524 333.837 21.8475C334.042 21.6425 334.157 21.3646 334.157 21.0747C334.157 20.7849 334.042 20.507 333.837 20.302L330.968 17.4324L333.837 14.5629C334.042 14.3579 334.157 14.08 334.157 13.7901C334.157 13.5003 334.042 13.2224 333.837 13.0174C333.735 12.9154 333.614 12.8346 333.481 12.7796C333.347 12.7247 333.204 12.6967 333.06 12.6973C332.772 12.6985 332.496 12.8136 332.292 13.0174L329.422 15.887L326.553 13.0174C326.451 12.9154 326.329 12.8346 326.196 12.7796C326.063 12.7247 325.92 12.6967 325.775 12.6973L325.776 12.6982Z" fill="#77767B"/>
<path d="M189.736 47.7928L202.184 55.4888V58.8008L189.832 66.4968L187.832 63.5688L198.552 57.1528L187.832 50.8648L189.736 47.7928Z" fill="#FDDC71"/>
<defs>
<linearGradient id="paint0_linear_33_641" x1="260.974" y1="8.17163" x2="260.974" y2="292.5" gradientUnits="userSpaceOnUse">
<stop stop-color="#5AB0FF"/>
<stop offset="1" stop-color="#FF5AD1"/>
</linearGradient>
</defs>
</svg>
