<svg width="533" height="300" viewBox="0 0 533 300" fill="none" xmlns="http://www.w3.org/2000/svg">
<path d="M364.384 24.1716H131.263C109.609 24.1716 92.0552 41.7256 92.0552 63.3794V66.3093C92.0552 86.345 108.297 102.587 128.333 102.587C148.369 102.587 164.611 118.829 164.611 138.865V145.655C164.611 169.441 145.329 188.724 121.543 188.724H45.888C20.5447 188.724 0 209.268 0 234.612C0 259.955 20.5447 280.5 45.8879 280.5H320.972C346.315 280.5 366.86 259.955 366.86 234.612C366.86 209.268 387.405 188.724 412.748 188.724H478.88C502.666 188.724 521.948 169.441 521.948 145.655C521.948 121.869 502.666 102.587 478.88 102.587H442.799C421.145 102.587 403.592 85.0333 403.592 63.3794C403.592 41.7256 386.038 24.1716 364.384 24.1716Z" fill="url(#paint0_linear_44_343)"/>
<rect x="78.928" y="159.623" width="177.762" height="139.67" rx="16" fill="#3E3D41"/>
<path d="M98.1578 207.415L110.606 215.111V218.423L98.2538 226.119L96.2538 223.191L106.974 216.775L96.2538 210.487L98.1578 207.415Z" fill="#00A3FF"/>
<path d="M78.928 175.623C78.928 166.786 86.0914 159.623 94.928 159.623H240.69C249.526 159.623 256.69 166.786 256.69 175.623V193.18H78.928V175.623Z" fill="#1C1C1C"/>
<path d="M78.928 175.623C78.928 166.786 86.0914 159.623 94.928 159.623H240.69C249.526 159.623 256.69 166.786 256.69 175.623V191.366H78.928V175.623Z" fill="#292929"/>
<path d="M234.198 172.321C233.91 172.322 233.633 172.436 233.429 172.64C233.224 172.845 233.109 173.123 233.109 173.413C233.109 173.703 233.224 173.981 233.429 174.186L236.299 177.055L233.429 179.925C233.224 180.13 233.109 180.408 233.109 180.697C233.109 180.987 233.224 181.265 233.429 181.47C233.634 181.675 233.912 181.79 234.202 181.79C234.492 181.79 234.77 181.675 234.974 181.47L237.844 178.601L240.714 181.47C240.919 181.675 241.197 181.79 241.486 181.79C241.776 181.79 242.054 181.675 242.259 181.47C242.464 181.265 242.579 180.987 242.579 180.697C242.579 180.408 242.464 180.13 242.259 179.925L239.389 177.055L242.259 174.186C242.464 173.981 242.579 173.703 242.579 173.413C242.579 173.123 242.464 172.845 242.259 172.64C242.157 172.538 242.036 172.457 241.902 172.402C241.769 172.347 241.626 172.319 241.482 172.32C241.194 172.321 240.917 172.436 240.714 172.64L237.844 175.51L234.974 172.64C234.872 172.538 234.751 172.457 234.618 172.402C234.484 172.347 234.342 172.319 234.197 172.32L234.198 172.321Z" fill="#77767B"/>
<rect x="279.363" y="159.623" width="177.762" height="139.67" rx="16" fill="#3E3D41"/>
<path d="M279.363 175.623C279.363 166.786 286.527 159.623 295.363 159.623H441.125C449.962 159.623 457.125 166.786 457.125 175.623V193.18H279.363V175.623Z" fill="#1C1C1C"/>
<path d="M279.363 175.623C279.363 166.786 286.527 159.623 295.363 159.623H441.125C449.962 159.623 457.125 166.786 457.125 175.623V191.366H279.363V175.623Z" fill="#292929"/>
<path d="M434.633 172.321C434.345 172.322 434.069 172.436 433.864 172.64C433.659 172.845 433.544 173.123 433.544 173.413C433.544 173.703 433.659 173.981 433.864 174.186L436.734 177.055L433.864 179.925C433.659 180.13 433.544 180.408 433.544 180.697C433.544 180.987 433.659 181.265 433.864 181.47C434.069 181.675 434.347 181.79 434.637 181.79C434.927 181.79 435.205 181.675 435.41 181.47L438.279 178.601L441.149 181.47C441.354 181.675 441.632 181.79 441.922 181.79C442.211 181.79 442.489 181.675 442.694 181.47C442.899 181.265 443.014 180.987 443.014 180.697C443.014 180.408 442.899 180.13 442.694 179.925L439.825 177.055L442.694 174.186C442.899 173.981 443.014 173.703 443.014 173.413C443.014 173.123 442.899 172.845 442.694 172.64C442.592 172.538 442.471 172.457 442.338 172.402C442.204 172.347 442.061 172.319 441.917 172.32C441.629 172.321 441.353 172.436 441.149 172.64L438.279 175.51L435.41 172.64C435.308 172.538 435.187 172.457 435.053 172.402C434.92 172.347 434.777 172.319 434.633 172.32L434.633 172.321Z" fill="#77767B"/>
<path d="M298.593 207.415L311.041 215.111V218.423L298.689 226.119L296.689 223.191L307.409 216.775L296.689 210.487L298.593 207.415Z" fill="#FF7800"/>
<rect x="180.506" width="177.762" height="139.67" rx="16" fill="#3E3D41"/>
<path d="M180.506 16C180.506 7.16344 187.67 0 196.506 0H342.268C351.104 0 358.268 7.16345 358.268 16V33.557H180.506V16Z" fill="#1C1C1C"/>
<path d="M180.506 16C180.506 7.16344 187.67 0 196.506 0H342.268C351.104 0 358.268 7.16344 358.268 16V31.7432H180.506V16Z" fill="#292929"/>
<path d="M335.776 12.6982C335.488 12.6989 335.211 12.8137 335.007 13.0174C334.802 13.2224 334.687 13.5003 334.687 13.7901C334.687 14.08 334.802 14.3579 335.007 14.5629L337.877 17.4324L335.007 20.302C334.802 20.507 334.687 20.7849 334.687 21.0747C334.687 21.3646 334.802 21.6425 335.007 21.8475C335.212 22.0524 335.49 22.1675 335.78 22.1675C336.07 22.1675 336.348 22.0524 336.553 21.8475L339.422 18.9779L342.292 21.8475C342.497 22.0524 342.775 22.1675 343.064 22.1675C343.354 22.1675 343.632 22.0524 343.837 21.8475C344.042 21.6425 344.157 21.3646 344.157 21.0747C344.157 20.7849 344.042 20.507 343.837 20.302L340.968 17.4324L343.837 14.5629C344.042 14.3579 344.157 14.08 344.157 13.7901C344.157 13.5003 344.042 13.2224 343.837 13.0174C343.735 12.9154 343.614 12.8346 343.481 12.7796C343.347 12.7247 343.204 12.6967 343.06 12.6973C342.772 12.6985 342.496 12.8136 342.292 13.0174L339.422 15.887L336.553 13.0174C336.451 12.9154 336.329 12.8346 336.196 12.7796C336.063 12.7247 335.92 12.6967 335.775 12.6973L335.776 12.6982Z" fill="#77767B"/>
<path d="M199.736 47.7928L212.184 55.4888V58.8008L199.832 66.4968L197.832 63.5688L208.552 57.1528L197.832 50.8648L199.736 47.7928Z" fill="#FDDC71"/>
<defs>
<linearGradient id="paint0_linear_44_343" x1="260.974" y1="-0.828375" x2="260.974" y2="283.5" gradientUnits="userSpaceOnUse">
<stop stop-color="#5AB0FF"/>
<stop offset="1" stop-color="#FF5AD1"/>
</linearGradient>
</defs>
</svg>
