<svg width="600" height="300" viewBox="0 0 600 300" fill="none" xmlns="http://www.w3.org/2000/svg">
<path d="M89.375 299.388C72.009 299.388 58.321 285.7 58.321 268.334C58.321 250.97 72.011 237.28 89.374 237.28H124.934C127.406 237.28 129.777 236.298 131.525 234.55C133.273 232.802 134.255 230.431 134.255 227.959C134.255 225.487 133.273 223.116 131.525 221.368C129.777 219.62 127.406 218.638 124.934 218.638C107.568 218.638 93.879 204.952 93.879 187.588C93.879 174.437 101.836 163.446 113.147 158.833C122.607 154.967 119.846 140.893 109.626 140.883H54.439C37.075 140.883 23.386 127.196 23.386 109.831C23.386 92.465 37.075 78.7769 54.439 78.7769H204.939C214.676 78.243 217.156 64.6449 207.879 60.8529C196.569 56.2399 188.612 45.2509 188.612 32.0989C188.612 14.7329 202.3 1.04395 219.665 1.04395H543.939C561.304 1.04395 574.992 14.7329 574.992 32.0989C574.992 49.4629 561.304 63.1509 543.939 63.1509H488.75C478.53 63.1609 475.771 77.2349 485.231 81.1009C496.543 85.7129 504.499 96.7039 504.499 109.855C504.499 127.22 490.809 140.908 473.445 140.908C470.997 140.944 468.661 141.941 466.943 143.685C465.224 145.429 464.261 147.779 464.261 150.228C464.261 152.676 465.224 155.026 466.943 156.77C468.661 158.514 470.997 159.512 473.445 159.548H550.773C568.138 159.548 581.826 173.237 581.826 190.602C581.826 207.967 568.138 221.655 550.773 221.655C611.313 220.732 269.515 221.637 269.515 221.637C259.186 221.637 259.465 237.28 269.667 237.28C287.032 237.28 303.313 250.97 303.313 268.334C303.313 285.699 289.623 299.387 272.258 299.387L89.375 299.388Z" fill="url(#paint0_linear_44_281)"/>
<path opacity="0.155" d="M379.374 5.91406C369.649 5.91514 360.246 11.5328 352.868 21.7492C345.491 31.9656 340.628 46.1048 339.159 61.6047H339.211C338.875 63.7315 338.706 65.8813 338.705 68.0345V130.037C338.705 152.571 356.846 170.712 379.381 170.712H379.383C401.918 170.712 420.059 152.571 420.059 130.037V68.0345C420.059 65.8443 419.883 63.6987 419.553 61.6047H419.593C418.124 46.1036 413.26 31.9635 405.882 21.7471C398.504 11.5307 389.099 5.91389 379.374 5.91465V5.91406Z" fill="black"/>
<mask id="mask0_44_281" style="mask-type:luminance" maskUnits="userSpaceOnUse" x="346" y="155" width="64" height="130">
<path d="M409.702 186.905C409.702 227.471 378.241 284.166 378.241 284.166C378.241 284.166 346.78 227.564 346.78 186.905C346.78 169.53 360.866 155.444 378.241 155.444C395.616 155.444 409.702 169.53 409.702 186.905Z" fill="white"/>
</mask>
<g mask="url(#mask0_44_281)">
<path d="M409.702 186.905C409.702 227.471 378.241 284.166 378.241 284.166C378.241 284.166 346.78 227.564 346.78 186.905C346.78 169.53 360.865 155.444 378.241 155.444C395.616 155.444 409.702 169.53 409.702 186.905Z" fill="url(#paint1_linear_44_281)"/>
<path d="M378.241 233.695C411.478 233.695 438.422 206.751 438.422 173.514C438.422 140.277 411.478 113.333 378.241 113.333C345.004 113.333 318.06 140.277 318.06 173.514C318.06 206.751 345.004 233.695 378.241 233.695Z" fill="url(#paint2_radial_44_281)"/>
<path d="M378.241 209.338C398.026 209.338 414.065 193.299 414.065 173.514C414.065 153.729 398.026 137.69 378.241 137.69C358.456 137.69 342.417 153.729 342.417 173.514C342.417 193.299 358.456 209.338 378.241 209.338Z" fill="url(#paint3_radial_44_281)"/>
<path d="M378.241 186.148C385.219 186.148 390.875 180.492 390.875 173.514C390.875 166.536 385.219 160.88 378.241 160.88C371.263 160.88 365.607 166.536 365.607 173.514C365.607 180.492 371.263 186.148 378.241 186.148Z" fill="white"/>
</g>
<path d="M378.223 27.3591H378.223C355.758 27.3591 337.547 45.5704 337.547 68.0351V130.036C337.547 152.5 355.758 170.712 378.223 170.712H378.223C400.688 170.712 418.899 152.5 418.899 130.036V68.0351C418.899 45.5704 400.688 27.3591 378.223 27.3591Z" fill="#F6F5F4"/>
<path d="M378.223 120.659C390.165 120.659 399.846 110.978 399.846 99.0356C399.846 87.0936 390.165 77.4126 378.223 77.4126C366.281 77.4126 356.6 87.0936 356.6 99.0356C356.6 110.978 366.281 120.659 378.223 120.659Z" fill="white"/>
<path d="M378.223 114.551C386.792 114.551 393.738 107.604 393.738 99.0357C393.738 90.4671 386.792 83.5208 378.223 83.5208C369.655 83.5208 362.708 90.4671 362.708 99.0357C362.708 107.604 369.655 114.551 378.223 114.551Z" fill="#5E5C64"/>
<path d="M378.223 27.3591C374.939 27.3591 371.752 27.7549 368.696 28.483C386.603 32.7508 399.847 48.7849 399.847 68.0357V130.036C399.847 149.286 386.603 165.32 368.696 169.588C371.817 170.334 375.015 170.711 378.223 170.712C400.758 170.712 418.899 152.57 418.899 130.036V68.0357C418.899 45.5007 400.758 27.3591 378.223 27.3591Z" fill="#C0BFBC" fill-opacity="0.17"/>
<path d="M378.609 5.36963C368.789 5.36985 359.293 11.0421 351.843 21.3586C344.393 31.675 339.482 45.953 337.999 61.6052H419.22C417.738 45.9526 412.826 31.6744 405.376 21.3579C397.926 11.0415 388.43 5.3694 378.609 5.36963Z" fill="#ED333B"/>
<path d="M343.629 139.192L348.938 152.774C350.852 157.669 350.883 163.1 349.025 168.017C347.168 172.934 343.553 176.988 338.88 179.395L321.226 188.49C319.871 189.188 318.36 189.525 316.838 189.471C315.315 189.416 313.832 188.971 312.531 188.178C311.23 187.384 310.155 186.27 309.409 184.941C308.664 183.613 308.272 182.115 308.272 180.591V173.177C308.272 170.158 308.905 167.173 310.131 164.414C311.357 161.656 313.148 159.185 315.389 157.162L337.021 137.632C337.517 137.184 338.114 136.864 338.76 136.698C339.407 136.532 340.085 136.525 340.734 136.679C341.384 136.832 341.987 137.141 342.491 137.579C342.995 138.017 343.386 138.57 343.629 139.192Z" fill="black" fill-opacity="0.094"/>
<path d="M343.629 136.782L348.938 150.364C350.852 155.259 350.883 160.69 349.025 165.607C347.168 170.524 343.553 174.578 338.88 176.985L321.226 186.08C319.871 186.778 318.36 187.115 316.838 187.061C315.315 187.006 313.832 186.561 312.531 185.768C311.23 184.974 310.155 183.86 309.409 182.531C308.664 181.203 308.272 179.705 308.272 178.181V170.767C308.272 167.748 308.905 164.763 310.131 162.004C311.357 159.246 313.148 156.775 315.389 154.752L337.021 135.222C337.517 134.774 338.114 134.454 338.76 134.288C339.407 134.122 340.085 134.115 340.734 134.269C341.384 134.422 341.987 134.731 342.491 135.169C342.995 135.607 343.386 136.16 343.629 136.782Z" fill="#B0AFAC"/>
<path d="M413.13 139.192L407.821 152.774C405.907 157.669 405.876 163.1 407.734 168.017C409.591 172.934 413.206 176.988 417.879 179.395L435.534 188.49C436.889 189.188 438.4 189.525 439.922 189.471C441.445 189.416 442.928 188.971 444.229 188.178C445.529 187.384 446.604 186.27 447.35 184.941C448.096 183.613 448.488 182.115 448.488 180.591V173.177C448.488 170.158 447.854 167.173 446.628 164.414C445.402 161.655 443.611 159.185 441.37 157.162L419.738 137.632C419.242 137.184 418.645 136.864 417.999 136.698C417.352 136.532 416.675 136.525 416.025 136.679C415.375 136.832 414.772 137.141 414.268 137.579C413.764 138.017 413.373 138.57 413.13 139.192Z" fill="black" fill-opacity="0.094"/>
<path d="M381.253 141.65C381.253 139.976 379.897 138.62 378.223 138.62C376.55 138.62 375.193 139.976 375.193 141.65V192.647C375.193 194.32 376.55 195.677 378.223 195.677C379.897 195.677 381.253 194.32 381.253 192.647V141.65Z" fill="#DEDDDA"/>
<path d="M386.181 6.81177C393.455 21.5224 398.221 40.7597 399.754 61.6046H419.696C418.402 47.9436 414.465 35.2907 408.446 25.4512C402.427 15.6117 394.635 9.08831 386.181 6.81177Z" fill="#E01B24"/>
<path d="M413.13 136.782L407.821 150.364C405.907 155.259 405.876 160.69 407.734 165.607C409.591 170.524 413.206 174.578 417.879 176.985L435.534 186.08C436.889 186.778 438.4 187.115 439.922 187.061C441.445 187.006 442.928 186.561 444.229 185.768C445.529 184.974 446.604 183.86 447.35 182.531C448.096 181.203 448.488 179.705 448.488 178.181V170.767C448.488 167.748 447.854 164.763 446.628 162.004C445.402 159.246 443.611 156.775 441.37 154.752L419.738 135.222C419.242 134.774 418.645 134.454 417.999 134.288C417.352 134.122 416.675 134.115 416.025 134.269C415.375 134.422 414.772 134.731 414.268 135.169C413.764 135.607 413.373 136.16 413.13 136.782Z" fill="white"/>
<path d="M239.633 142.502C234.005 142.509 228.498 144.13 223.763 147.172C219.028 150.214 215.265 154.55 212.92 159.666C209.807 158.061 206.357 157.22 202.855 157.212C191.246 157.229 181.635 166.229 180.862 177.812H180.787C172.662 177.812 166.077 184.398 166.077 192.522C166.077 200.648 172.662 207.234 180.787 207.234H263.171C267.853 207.234 272.343 205.374 275.654 202.063C278.965 198.752 280.825 194.262 280.825 189.58C280.821 185.923 279.681 182.359 277.564 179.377C275.447 176.396 272.456 174.146 269.005 172.938C269.027 172.601 269.044 172.264 269.055 171.927C269.055 155.677 255.883 142.504 239.633 142.504V142.502Z" fill="url(#paint4_linear_44_281)"/>
<mask id="mask1_44_281" style="mask-type:luminance" maskUnits="userSpaceOnUse" x="133" y="172" width="74" height="73">
<path d="M169.712 172.938C149.543 172.938 133.194 188.308 133.194 207.27C133.203 214.824 137.697 223.469 145.608 231.38L159.362 244.878H180.635L193.866 231.304C201.1 224.07 206.217 214.787 206.232 207.27C206.232 188.308 189.881 172.938 169.712 172.938Z" fill="white"/>
</mask>
<g mask="url(#mask1_44_281)">
<path d="M169.712 172.938C149.543 172.938 133.194 188.308 133.194 207.27C133.203 214.824 137.009 222.05 140.759 228.155L153.361 251.85H186.064L198.715 228.064C202.415 222.038 206.214 214.787 206.231 207.27C206.231 188.308 189.881 172.938 169.712 172.938Z" fill="url(#paint5_radial_44_281)"/>
<path d="M168.622 172.938C168.622 172.938 148.639 185.371 148.639 204.696C148.639 219.629 166.27 251.85 166.27 251.85H171.893C171.893 251.85 173.346 219.629 173.346 204.696C173.346 185.371 168.622 172.938 168.622 172.938Z" fill="url(#paint6_radial_44_281)"/>
<path d="M168.604 173.046C159.657 173.197 150.805 176.413 144.077 181.957C137.346 187.501 132.794 195.328 131.46 203.646C130.108 212.075 132.078 220.939 136.905 228.155L157.615 251.85H164.626L150.093 234.704C145.405 229.175 140.858 223.359 138.542 216.632C136.228 209.905 136.181 202.49 138.545 195.779C140.708 189.677 144.687 184.286 150.009 180.245C155.348 176.223 161.801 173.725 168.604 173.045V173.046Z" fill="url(#paint7_radial_44_281)"/>
<path d="M168.794 173.067C177.197 171.482 186.202 172.909 193.589 176.997C200.976 181.085 206.672 187.796 209.276 195.474C211.154 201.047 211.439 206.987 210.101 212.696C208.745 218.402 205.814 223.671 201.605 227.973L189.389 251.668H174.8L189.334 227.437C192.461 222.224 195.392 216.773 196.34 210.855C197.289 204.936 196.301 198.791 193.753 193.306C189.204 183.519 179.76 175.862 168.795 173.068L168.794 173.067Z" fill="url(#paint8_radial_44_281)"/>
</g>
<path d="M161.72 259.594V266.368C161.719 266.814 161.806 267.257 161.976 267.669C162.146 268.082 162.396 268.457 162.712 268.772C163.028 269.088 163.402 269.338 163.815 269.509C164.227 269.679 164.67 269.766 165.116 269.765H174.31C176.192 269.765 177.311 268.208 177.706 266.368V259.594H161.72Z" fill="#E5A50A"/>
<path d="M161.72 258.14V264.915C161.719 265.361 161.806 265.803 161.976 266.216C162.147 266.628 162.397 267.003 162.712 267.319C163.028 267.634 163.403 267.884 163.815 268.055C164.228 268.225 164.67 268.312 165.116 268.311H174.31C176.192 268.311 177.311 266.755 177.706 264.915V258.141L161.72 258.14Z" fill="#E5A50A"/>
<path d="M171.893 258.14V268.311H174.31C176.192 268.311 177.311 266.755 177.706 264.915V258.141L171.893 258.14Z" fill="#F3AF0B"/>
<path d="M110 97.082C104.696 97.082 99.6086 99.1892 95.8579 102.94C92.1071 106.691 90 111.778 90 117.082C90 122.386 92.1071 127.473 95.8579 131.224C99.6086 134.975 104.696 137.082 110 137.082H137.5C140.815 137.082 143.995 135.765 146.339 133.421C148.683 131.077 150 127.897 150 124.582C150 121.267 148.683 118.087 146.339 115.743C143.995 113.399 140.815 112.082 137.5 112.082C134.734 112.083 132.046 113.001 129.857 114.693C129.273 109.837 126.93 105.364 123.271 102.119C119.612 98.8739 114.891 97.082 110 97.082Z" fill="url(#paint9_linear_44_281)"/>
<defs>
<linearGradient id="paint0_linear_44_281" x1="286.732" y1="82.7775" x2="286.732" y2="223.947" gradientUnits="userSpaceOnUse">
<stop stop-color="#051224"/>
<stop offset="1" stop-color="#3584E4"/>
</linearGradient>
<linearGradient id="paint1_linear_44_281" x1="378.204" y1="178.534" x2="378.204" y2="305.917" gradientUnits="userSpaceOnUse">
<stop stop-color="#E01B24"/>
<stop offset="1" stop-color="#E01B24" stop-opacity="0"/>
</linearGradient>
<radialGradient id="paint2_radial_44_281" cx="0" cy="0" r="1" gradientUnits="userSpaceOnUse" gradientTransform="translate(378.242 173.516) scale(60.1816)">
<stop stop-color="#E5A50A"/>
<stop offset="1" stop-color="#E5A50A" stop-opacity="0"/>
</radialGradient>
<radialGradient id="paint3_radial_44_281" cx="0" cy="0" r="1" gradientUnits="userSpaceOnUse" gradientTransform="translate(378.239 173.511) scale(35.8239)">
<stop stop-color="white"/>
<stop offset="1" stop-color="white" stop-opacity="0"/>
</radialGradient>
<linearGradient id="paint4_linear_44_281" x1="234.415" y1="196.416" x2="234.415" y2="165.284" gradientUnits="userSpaceOnUse">
<stop stop-color="#EEF4FC"/>
<stop offset="1" stop-color="white"/>
</linearGradient>
<radialGradient id="paint5_radial_44_281" cx="0" cy="0" r="1" gradientUnits="userSpaceOnUse" gradientTransform="translate(169.336 199.035) rotate(89.8212) scale(55.6961 52.3744)">
<stop stop-color="white"/>
<stop offset="0.519" stop-color="white"/>
<stop offset="0.734" stop-color="#CFCFCF"/>
<stop offset="1" stop-color="#DCDCDC"/>
</radialGradient>
<radialGradient id="paint6_radial_44_281" cx="0" cy="0" r="1" gradientUnits="userSpaceOnUse" gradientTransform="translate(167.272 194.641) scale(58.9448 58.6196)">
<stop stop-color="#FFFA77"/>
<stop offset="1" stop-color="#DB8300"/>
</radialGradient>
<radialGradient id="paint7_radial_44_281" cx="0" cy="0" r="1" gradientUnits="userSpaceOnUse" gradientTransform="translate(150.7 186.75) rotate(77.7937) scale(65.4245 41.5334)">
<stop stop-color="#FFFA77"/>
<stop offset="1" stop-color="#DB8300"/>
</radialGradient>
<radialGradient id="paint8_radial_44_281" cx="0" cy="0" r="1" gradientUnits="userSpaceOnUse" gradientTransform="translate(187.81 186.569) rotate(102.206) scale(65.4245 41.5334)">
<stop stop-color="#FFFA77"/>
<stop offset="1" stop-color="#DB8300"/>
</radialGradient>
<linearGradient id="paint9_linear_44_281" x1="110" y1="137.082" x2="110" y2="97.0814" gradientUnits="userSpaceOnUse">
<stop stop-color="#EEF4FC"/>
<stop offset="1" stop-color="white"/>
</linearGradient>
</defs>
</svg>
