<svg width="600" height="300" viewBox="0 0 600 300" fill="none" xmlns="http://www.w3.org/2000/svg">
<g clip-path="url(#clip0_23_7533)">
<path d="M326 40H519C527.837 40 535 47.1634 535 56V254C535 262.837 527.837 270 519 270H326C317.163 270 310 262.837 310 254V56C310 47.1634 317.163 40 326 40Z" fill="url(#paint0_linear_23_7533)"/>
<path d="M764 40H571C562.163 40 555 47.1634 555 56V254C555 262.837 562.163 270 571 270H764C772.837 270 780 262.837 780 254V56C780 47.1634 772.837 40 764 40Z" fill="url(#paint1_linear_23_7533)"/>
<path d="M29 40H-164C-172.837 40 -180 47.1634 -180 56V254C-180 262.837 -172.837 270 -164 270H29C37.8366 270 45 262.837 45 254V56C45 47.1634 37.8366 40 29 40Z" fill="url(#paint2_linear_23_7533)"/>
<path d="M274 40H81C72.1634 40 65 47.1634 65 56V254C65 262.837 72.1634 270 81 270H274C282.837 270 290 262.837 290 254V56C290 47.1634 282.837 40 274 40Z" fill="url(#paint3_linear_23_7533)"/>
<path d="M465.866 134.252L395.299 119.776C390.517 118.795 385.845 121.876 384.864 126.658L368.741 205.252C367.76 210.035 370.841 214.707 375.624 215.688L446.191 230.164C450.973 231.145 455.645 228.064 456.626 223.281L472.749 144.688C473.73 139.905 470.649 135.233 465.866 134.252Z" fill="#F6F5F4" fill-opacity="0.1"/>
<path d="M465.866 130.252L395.299 115.776C390.517 114.794 385.845 117.876 384.864 122.658L368.741 201.252C367.76 206.035 370.841 210.707 375.624 211.688L446.191 226.164C450.973 227.145 455.645 224.064 456.626 219.281L472.749 140.688C473.73 135.905 470.649 131.233 465.866 130.252Z" fill="#F6F5F4"/>
<mask id="mask0_23_7533" style="mask-type:luminance" maskUnits="userSpaceOnUse" x="377" y="121" width="89" height="84">
<path d="M462.122 135.763L395.133 121.989C392.748 121.499 390.418 123.034 389.927 125.419L377.624 185.257C377.133 187.642 378.669 189.973 381.054 190.463L448.042 204.237C450.427 204.727 452.758 203.192 453.248 200.807L465.552 140.969C466.042 138.584 464.507 136.253 462.122 135.763Z" fill="white"/>
</mask>
<g mask="url(#mask0_23_7533)">
<path d="M466.44 136.651L390.815 121.101L376.736 189.575L452.36 205.125L466.44 136.651Z" fill="url(#paint4_linear_23_7533)"/>
<path d="M448.695 167.397L484.596 212.8L401.261 187.893L448.695 167.397Z" fill="#E01B24"/>
<path d="M411.64 156.139L472.802 216.565L376.737 189.576L382.193 162.204L411.64 156.139Z" fill="url(#paint5_linear_23_7533)"/>
</g>
<path opacity="0.1" d="M369.463 117.146L301.111 139.893C296.479 141.434 293.974 146.439 295.515 151.071L320.849 227.197C322.391 231.829 327.396 234.335 332.028 232.793L400.379 210.047C405.011 208.505 407.517 203.5 405.975 198.868L380.641 122.742C379.1 118.11 374.095 115.605 369.463 117.146Z" fill="#F6F5F4"/>
<path d="M369.463 113.146L301.111 135.893C296.479 137.435 293.974 142.439 295.515 147.072L320.849 223.197C322.391 227.829 327.396 230.335 332.028 228.793L400.379 206.047C405.011 204.505 407.517 199.5 405.975 194.868L380.641 118.742C379.1 114.11 374.095 111.605 369.463 113.146Z" fill="#F6F5F4"/>
<mask id="mask1_23_7533" style="mask-type:luminance" maskUnits="userSpaceOnUse" x="301" y="119" width="94" height="89">
<path d="M368.975 119.791L304.074 141.357C301.764 142.125 300.513 144.62 301.281 146.931L320.545 204.904C321.312 207.214 323.808 208.465 326.118 207.697L391.019 186.131C393.329 185.364 394.58 182.868 393.812 180.558L374.548 122.585C373.781 120.274 371.286 119.024 368.975 119.791Z" fill="white"/>
</mask>
<g mask="url(#mask1_23_7533)">
<path d="M373.158 118.401L299.891 142.747L321.935 209.087L395.202 184.741L373.158 118.401Z" fill="url(#paint6_linear_23_7533)"/>
<path d="M367.907 164.936L394.495 184.977L358.601 196.904L367.907 164.936Z" fill="#E01B24"/>
<path d="M335.445 162.678L374.044 191.773L321.936 209.087L312.975 182.655L335.445 162.678Z" fill="url(#paint7_linear_23_7533)"/>
</g>
<path d="M409.585 86.1906L337.724 91.2106C332.854 91.5508 329.182 95.7746 329.522 100.645L335.113 180.68C335.453 185.55 339.677 189.223 344.547 188.882L416.408 183.862C421.279 183.522 424.951 179.298 424.611 174.428L419.02 94.3927C418.679 89.5226 414.455 85.8504 409.585 86.1906Z" fill="white" fill-opacity="0.1"/>
<path d="M409.585 82.1906L337.724 87.2106C332.854 87.5508 329.182 91.7746 329.522 96.6447L335.113 176.68C335.453 181.55 339.677 185.223 344.547 184.882L416.408 179.862C421.279 179.522 424.951 175.298 424.611 170.428L419.02 90.3927C418.679 85.5226 414.455 81.8504 409.585 82.1906Z" fill="white"/>
<mask id="mask2_23_7533" style="mask-type:luminance" maskUnits="userSpaceOnUse" x="335" y="88" width="82" height="75">
<path d="M407.459 88.5053L339.233 93.2402C336.805 93.4088 334.972 95.5143 335.141 97.943L339.37 158.887C339.539 161.315 341.644 163.148 344.073 162.979L412.299 158.244C414.728 158.075 416.56 155.97 416.392 153.541L412.162 92.5977C411.994 90.169 409.888 88.3367 407.459 88.5053Z" fill="white"/>
</mask>
<g mask="url(#mask2_23_7533)">
<path d="M411.857 88.2001L334.836 93.5454L339.676 163.284L416.697 157.939L411.857 88.2001Z" fill="url(#paint8_linear_23_7533)"/>
<path d="M395.189 131.964L415.953 157.991L378.22 160.61L395.189 131.964Z" fill="#1A5FB4"/>
<path d="M364.31 121.698L394.454 159.483L339.677 163.285L364.31 121.698Z" fill="url(#paint9_linear_23_7533)"/>
<path d="M352.544 112.886C356.074 112.641 358.737 109.581 358.492 106.051C358.247 102.521 355.187 99.8579 351.657 100.103C348.127 100.348 345.464 103.408 345.709 106.938C345.954 110.468 349.014 113.131 352.544 112.886Z" fill="#CEE1F8"/>
</g>
<path fill-rule="evenodd" clip-rule="evenodd" d="M399.911 106.227C402.045 102.253 406.863 97.7599 417.438 94.9264L466.078 81.8711L476.583 63.6735C476.255 63.0784 476.153 62.3842 476.299 61.7201L480.302 42.3239C474.479 36.8824 472.922 27.9073 477.068 20.7275C481.889 12.3767 492.674 9.48549 501.026 14.3079C509.377 19.1279 512.267 29.9158 507.446 38.2681L507.4 38.3439L507.465 38.334L491.409 66.145L491.439 66.1639L485.352 76.6977L496.389 73.7343L496.398 73.7696L527.417 65.4583L527.391 65.5183L527.475 65.4956C536.791 62.9995 546.462 68.584 548.958 77.8985C551.453 87.213 545.87 96.8818 536.555 99.3775C528.547 101.523 520.281 97.6963 516.531 90.6627L496.76 89.5087C496.082 89.4768 495.437 89.1994 494.948 88.728L475.363 93.9756L450.535 136.94C438.856 157.166 426.667 150.13 426.667 150.13L456.108 99.1349L398.518 114.566C398.518 114.566 397.492 110.73 399.911 106.227ZM483.388 24.3777C482.708 25.5405 482.266 26.8265 482.087 28.1613C481.907 29.4961 481.994 30.8533 482.343 32.1542C482.691 33.4551 483.295 34.674 484.117 35.7403C484.94 36.8066 485.966 37.6992 487.136 38.3664C488.299 39.0458 489.585 39.4879 490.92 39.6672C492.254 39.8465 493.611 39.7593 494.912 39.4107C496.213 39.0622 497.432 38.4592 498.498 37.6365C499.565 36.8139 500.457 35.788 501.125 34.6182C501.804 33.4553 502.247 32.1692 502.426 30.8342C502.605 29.4993 502.518 28.1421 502.17 26.841C501.821 25.54 501.218 24.321 500.395 23.2546C499.572 22.1881 498.546 21.2955 497.376 20.6282C496.213 19.9488 494.928 19.5066 493.593 19.3273C492.258 19.148 490.901 19.2352 489.601 19.5837C488.3 19.9322 487.081 20.5352 486.015 21.3578C484.949 22.1804 484.056 23.2062 483.389 24.376L483.388 24.3777ZM523.124 77.305C522.452 78.472 522.018 79.7604 521.846 81.0961C521.674 82.4317 521.768 83.7882 522.122 85.0874C522.464 86.3902 523.061 87.6124 523.878 88.683C524.695 89.7537 525.717 90.6517 526.883 91.325C528.05 91.9983 529.339 92.4336 530.674 92.6057C532.01 92.7778 533.367 92.6832 534.666 92.3275C535.969 91.9859 537.191 91.3893 538.262 90.5723C539.332 89.7553 540.23 88.7341 540.904 87.5677C541.577 86.4014 542.013 85.1131 542.185 83.7774C542.357 82.4417 542.263 81.0851 541.907 79.7861C541.566 78.4832 540.969 77.261 540.152 76.1902C539.335 75.1194 538.313 74.2213 537.147 73.5478C535.98 72.8743 534.692 72.4388 533.356 72.2666C532.02 72.0943 530.663 72.1887 529.364 72.5442C526.612 73.2816 524.432 75.0413 523.126 77.3046L523.124 77.305Z" fill="black" fill-opacity="0.102"/>
<path fill-rule="evenodd" clip-rule="evenodd" d="M498.626 71.9291L500.892 80.3891L399.372 107.591L396.844 106.13C396.844 106.13 401.492 94.9329 418.91 90.2659L457.25 80.0006L461.126 79.1086L464.786 80.9963L498.626 71.9291Z" fill="#9A9996"/>
<path fill-rule="evenodd" clip-rule="evenodd" d="M495.095 69.8227L498.748 83.4532L397.228 110.655C397.228 110.655 393.585 97.0595 416.145 91.0147L495.095 69.8227Z" fill="white"/>
<path fill-rule="evenodd" clip-rule="evenodd" d="M526.125 61.5462L492.285 70.6134C489.465 71.369 490.22 74.189 490.22 74.189L492.501 82.7011C492.501 82.7011 493.034 85.4569 495.469 85.5994L515.841 86.7857L526.125 61.5462Z" fill="#ED333B"/>
<path d="M544.141 74.9291C542.156 67.5188 534.539 63.1211 527.129 65.1067C519.718 67.0922 515.321 74.7091 517.306 82.1194C519.292 89.5297 526.909 93.9273 534.319 91.9418C541.729 89.9562 546.127 82.3394 544.141 74.9291Z" stroke="#ED333B" stroke-width="7.29869" stroke-linecap="round" stroke-linejoin="round"/>
<path d="M540.528 75.8216C539.068 70.3705 533.465 67.1356 528.014 68.5962C522.563 70.0567 519.328 75.6597 520.788 81.1108C522.249 86.5618 527.852 89.7967 533.303 88.3362C538.754 86.8756 541.989 81.2726 540.528 75.8216Z" stroke="#E01B24" stroke-width="2.91947" stroke-linecap="round" stroke-linejoin="round"/>
<path fill-rule="evenodd" clip-rule="evenodd" d="M490.004 62.3359L477.783 55.2801L425.232 146.3C425.232 146.3 437.422 153.338 449.1 133.111L490.004 62.3359Z" fill="white"/>
<path fill-rule="evenodd" clip-rule="evenodd" d="M506.03 34.5061L488.513 64.8461C487.053 67.3744 484.525 65.9147 484.525 65.9147L476.893 61.5084C476.893 61.5084 474.369 60.2804 474.862 57.8915L478.989 37.9068L506.03 34.5061Z" fill="#ED333B"/>
<path d="M497.766 13.6396C504.41 17.4755 506.686 25.9711 502.851 32.6149C499.015 39.2588 490.519 41.5351 483.875 37.6992C477.231 33.8633 474.955 25.3678 478.791 18.7239C482.627 12.0801 491.122 9.80371 497.766 13.6396Z" stroke="#ED333B" stroke-width="7.29869" stroke-linecap="round" stroke-linejoin="round"/>
<path d="M495.969 16.8985C500.856 19.7202 502.531 25.9695 499.709 30.8568C496.887 35.744 490.638 37.4185 485.751 34.5968C480.864 31.7751 479.189 25.5258 482.011 20.6385C484.832 15.7513 491.082 14.0768 495.969 16.8985Z" stroke="#E01B24" stroke-width="2.91947" stroke-linecap="round" stroke-linejoin="round"/>
<path d="M470.254 81.9352C468.858 81.129 467.073 81.6075 466.266 83.0038C465.46 84.4002 465.939 86.1857 467.335 86.9919C468.731 87.7981 470.517 87.3197 471.323 85.9233C472.129 84.527 471.651 82.7414 470.254 81.9352Z" fill="#3D3846"/>
<path d="M539.592 237.571H428.454C425.89 237.571 402.336 242.199 402.336 242.199V243.711C402.336 243.711 425.887 248.339 428.454 248.339H539.592C542.156 248.339 544.224 246.275 544.224 243.708V242.199C544.224 239.636 542.156 237.571 539.592 237.571Z" fill="black" fill-opacity="0.102"/>
<path d="M538.106 242.226V235.54C538.106 234.264 539.141 233.229 540.417 233.229H542.754C544.03 233.229 545.065 234.264 545.065 235.54V242.226C545.065 243.502 544.03 244.536 542.754 244.536H540.417C539.141 244.536 538.106 243.502 538.106 242.226Z" fill="#1A5FB4"/>
<path d="M402.438 237.298V240.464C402.438 240.793 402.711 241.003 403.043 241.055L424.349 244.533C425.207 244.674 425.92 243.849 425.92 242.998V234.764C425.92 233.913 425.207 233.088 424.349 233.229L403.043 236.707C402.714 236.759 402.438 236.97 402.438 237.298Z" fill="#1A5FB4"/>
<path d="M424.181 232.358V245.404H541.587V232.358H424.181Z" fill="white"/>
<path d="M399.532 240.188C398.256 240.188 397.222 239.603 397.222 238.883C397.222 238.162 398.256 237.578 399.532 237.578H402.737C404.013 237.578 405.048 238.162 405.048 238.883C405.048 239.603 404.013 240.188 402.737 240.188H399.532Z" fill="#1A5FB4"/>
<path d="M399.828 241.055V236.707H403.306V241.055H399.828Z" fill="white"/>
<path d="M424.181 241.055V245.404H541.587V241.055H424.181Z" fill="#F6F5F4"/>
<mask id="mask3_23_7533" style="mask-type:luminance" maskUnits="userSpaceOnUse" x="134" y="182" width="91" height="91">
<path d="M179.204 182.859C191.15 182.859 202.606 187.604 211.052 196.051C219.499 204.497 224.244 215.953 224.244 227.899C224.244 233.814 223.079 239.671 220.816 245.135C218.552 250.6 215.235 255.565 211.052 259.747C202.606 268.194 191.15 272.939 179.204 272.939C173.289 272.939 167.433 271.774 161.968 269.511C156.504 267.247 151.538 263.929 147.356 259.747C143.174 255.565 139.856 250.6 137.592 245.135C135.329 239.671 134.164 233.814 134.164 227.899C134.164 215.953 138.909 204.497 147.356 196.051C155.803 187.604 167.259 182.859 179.204 182.859ZM179.204 218.891C176.815 218.891 174.524 219.84 172.835 221.529C171.145 223.219 170.196 225.51 170.196 227.899C170.196 230.288 171.145 232.579 172.835 234.269C174.524 235.958 176.815 236.907 179.204 236.907C181.593 236.907 183.884 235.958 185.574 234.269C187.263 232.579 188.212 230.288 188.212 227.899C188.212 225.51 187.263 223.219 185.574 221.529C183.884 219.84 181.593 218.891 179.204 218.891Z" fill="white"/>
</mask>
<g mask="url(#mask3_23_7533)">
<path d="M137.167 227.9C137.167 204.683 155.987 185.862 179.204 185.862C202.421 185.862 221.242 204.683 221.242 227.9V229.401C221.242 252.618 202.421 271.439 179.204 271.439C155.987 271.439 137.167 252.618 137.167 229.401V227.9Z" fill="#D5D3CF"/>
<path d="M179.204 182.859C191.15 182.859 202.606 187.604 211.052 196.051C219.499 204.497 224.244 215.953 224.244 227.899C224.244 233.814 223.079 239.671 220.816 245.135C218.552 250.6 215.235 255.565 211.052 259.747C202.606 268.194 191.15 272.939 179.204 272.939C173.289 272.939 167.433 271.774 161.968 269.511C156.504 267.247 151.538 263.929 147.356 259.747C143.174 255.565 139.856 250.6 137.592 245.135C135.329 239.671 134.164 233.814 134.164 227.899C134.164 215.953 138.909 204.497 147.356 196.051C155.803 187.604 167.259 182.859 179.204 182.859ZM179.204 218.891C176.815 218.891 174.524 219.84 172.835 221.529C171.145 223.219 170.196 225.51 170.196 227.899C170.196 230.288 171.145 232.579 172.835 234.269C174.524 235.958 176.815 236.907 179.204 236.907C181.593 236.907 183.884 235.958 185.574 234.269C187.263 232.579 188.212 230.288 188.212 227.899C188.212 225.51 187.263 223.219 185.574 221.529C183.884 219.84 181.593 218.891 179.204 218.891Z" fill="#F6F5F4"/>
<path opacity="0.488" d="M179.204 245.95C169.271 245.95 161.218 237.897 161.218 227.963C161.218 218.03 169.271 209.977 179.204 209.977C189.138 209.977 197.19 218.03 197.19 227.963C197.19 237.897 189.138 245.95 179.204 245.95Z" stroke="#9A9996" stroke-width="3.37276"/>
<path opacity="0.05" d="M131.161 207.854L179.204 227.899L123.907 245.277M220.405 259.822L179.188 228.026L237.098 225.552" fill="black" fill-opacity="0.929"/>
</g>
<mask id="mask4_23_7533" style="mask-type:luminance" maskUnits="userSpaceOnUse" x="83" y="155" width="91" height="91">
<path d="M128.888 155.558C140.833 155.558 152.29 160.303 160.736 168.75C169.183 177.196 173.928 188.652 173.928 200.598C173.928 206.513 172.763 212.369 170.5 217.834C168.236 223.299 164.919 228.264 160.736 232.446C152.29 240.893 140.833 245.638 128.888 245.638C122.973 245.638 117.116 244.473 111.652 242.21C106.187 239.946 101.222 236.628 97.0398 232.446C92.8574 228.264 89.5398 223.299 87.2763 217.834C85.0128 212.369 83.8478 206.513 83.8478 200.598C83.8478 188.652 88.5931 177.196 97.0398 168.75C105.486 160.303 116.943 155.558 128.888 155.558ZM128.888 191.59C126.499 191.59 124.208 192.539 122.518 194.228C120.829 195.918 119.88 198.209 119.88 200.598C119.88 202.987 120.829 205.278 122.518 206.968C124.208 208.657 126.499 209.606 128.888 209.606C131.277 209.606 133.568 208.657 135.258 206.968C136.947 205.278 137.896 202.987 137.896 200.598C137.896 198.209 136.947 195.918 135.258 194.228C133.568 192.539 131.277 191.59 128.888 191.59Z" fill="white"/>
</mask>
<g mask="url(#mask4_23_7533)">
<path d="M86.8505 200.599C86.8505 177.382 105.671 158.561 128.888 158.561C152.105 158.561 170.926 177.382 170.926 200.599V202.1C170.926 225.317 152.105 244.137 128.888 244.137C105.671 244.137 86.8505 225.317 86.8505 202.1V200.599Z" fill="#D5D3CF"/>
<path d="M128.888 155.558C140.833 155.558 152.29 160.303 160.736 168.75C169.183 177.196 173.928 188.652 173.928 200.598C173.928 206.513 172.763 212.369 170.5 217.834C168.236 223.299 164.919 228.264 160.736 232.446C152.29 240.893 140.833 245.638 128.888 245.638C122.973 245.638 117.116 244.473 111.652 242.21C106.187 239.946 101.222 236.628 97.0398 232.446C92.8574 228.264 89.5398 223.299 87.2763 217.834C85.0128 212.369 83.8478 206.513 83.8478 200.598C83.8478 188.652 88.5931 177.196 97.0398 168.75C105.486 160.303 116.943 155.558 128.888 155.558ZM128.888 191.59C126.499 191.59 124.208 192.539 122.518 194.228C120.829 195.918 119.88 198.209 119.88 200.598C119.88 202.987 120.829 205.278 122.518 206.968C124.208 208.657 126.499 209.606 128.888 209.606C131.277 209.606 133.568 208.657 135.258 206.968C136.947 205.278 137.896 202.987 137.896 200.598C137.896 198.209 136.947 195.918 135.258 194.228C133.568 192.539 131.277 191.59 128.888 191.59Z" fill="#F6F5F4"/>
<path opacity="0.488" d="M128.888 218.648C118.955 218.648 110.902 210.596 110.902 200.662C110.902 190.729 118.955 182.676 128.888 182.676C138.821 182.676 146.874 190.729 146.874 200.662C146.874 210.596 138.821 218.648 128.888 218.648Z" stroke="#9A9996" stroke-width="3.37276"/>
<path opacity="0.05" d="M80.8452 180.553L128.888 200.598L73.5907 217.976M170.089 232.521L128.872 200.725L186.782 198.251" fill="black" fill-opacity="0.929"/>
</g>
<path opacity="0.74" d="M128.889 191.59C131.278 191.59 133.569 192.539 135.258 194.228C136.947 195.917 137.896 198.209 137.896 200.598C137.896 200.822 137.888 201.046 137.871 201.27C137.739 198.976 136.735 196.819 135.066 195.241C133.396 193.663 131.186 192.782 128.889 192.78C126.616 192.78 124.428 193.639 122.762 195.185C121.096 196.73 120.077 198.849 119.907 201.115C119.894 200.943 119.885 200.77 119.881 200.598C119.881 199.415 120.114 198.243 120.567 197.15C121.019 196.057 121.683 195.064 122.519 194.227C123.356 193.391 124.349 192.727 125.442 192.274C126.535 191.822 127.706 191.589 128.889 191.589V191.59ZM173.889 201.348C173.904 201.597 173.917 201.847 173.928 202.098C173.928 226.974 153.763 247.138 128.889 247.138C104.014 247.138 83.85 226.974 83.85 202.099C83.8569 201.849 83.8659 201.599 83.877 201.349C84.2865 225.919 104.316 245.624 128.889 245.636C153.459 245.618 173.481 225.913 173.889 201.348Z" fill="url(#paint10_radial_23_7533)"/>
<path opacity="0.74" d="M179.207 218.891C181.596 218.891 183.887 219.84 185.576 221.53C187.265 223.219 188.214 225.51 188.214 227.899C188.214 228.124 188.205 228.348 188.188 228.572C188.056 226.278 187.052 224.122 185.383 222.544C183.713 220.965 181.504 220.085 179.207 220.082C176.934 220.082 174.746 220.941 173.081 222.487C171.415 224.032 170.395 226.151 170.225 228.416C170.212 228.244 170.203 228.072 170.199 227.899C170.199 226.716 170.432 225.545 170.885 224.452C171.337 223.359 172.001 222.366 172.837 221.53C173.674 220.693 174.667 220.03 175.76 219.577C176.852 219.124 178.024 218.891 179.207 218.891ZM224.207 228.65C224.221 228.9 224.234 229.15 224.245 229.4C224.245 254.274 204.08 274.438 179.207 274.438C154.333 274.438 134.169 254.274 134.169 229.4C134.175 229.15 134.184 228.9 134.195 228.65C134.604 253.22 154.633 272.926 179.207 272.937C203.775 272.92 223.797 253.215 224.207 228.65Z" fill="url(#paint11_radial_23_7533)"/>
<path d="M289.465 180.706L249.568 116.986C247.727 114.046 243.851 113.154 240.911 114.995L198.32 141.663C195.379 143.504 194.488 147.38 196.329 150.32L236.227 214.04C238.068 216.981 241.944 217.872 244.884 216.031L287.475 189.363C290.415 187.522 291.306 183.646 289.465 180.706Z" fill="#5E5C64"/>
<path d="M282.527 181.461L245.859 122.898C244.938 121.428 243 120.982 241.53 121.903L209.587 141.904C208.117 142.824 207.671 144.762 208.592 146.232L245.26 204.795C246.18 206.265 248.118 206.711 249.588 205.79L281.532 185.789C283.002 184.869 283.447 182.931 282.527 181.461Z" fill="url(#paint12_linear_23_7533)"/>
<path d="M259.216 173.822L242.549 147.203C240.711 144.267 236.841 143.377 233.905 145.216C230.97 147.054 230.08 150.924 231.918 153.86L248.585 180.478C250.423 183.414 254.293 184.304 257.229 182.466C260.165 180.628 261.054 176.758 259.216 173.822Z" fill="#3D3846" stroke="#3D3846" stroke-width="6.28136" stroke-linejoin="round"/>
<path d="M231.918 153.86C233.757 156.796 237.627 157.685 240.563 155.847C243.499 154.009 244.388 150.139 242.55 147.203C240.712 144.267 236.842 143.377 233.906 145.215C230.97 147.054 230.08 150.924 231.918 153.86Z" fill="white"/>
<path d="M248.586 180.479C250.424 183.415 254.294 184.305 257.23 182.467C260.166 180.628 261.056 176.758 259.217 173.822C257.379 170.886 253.509 169.997 250.573 171.835C247.637 173.673 246.747 177.543 248.586 180.479Z" fill="white"/>
<mask id="mask5_23_7533" style="mask-type:luminance" maskUnits="userSpaceOnUse" x="195" y="114" width="96" height="103">
<path d="M289.465 180.706L249.568 116.986C247.727 114.046 243.851 113.154 240.911 114.995L198.32 141.663C195.379 143.504 194.488 147.38 196.329 150.32L236.227 214.04C238.068 216.981 241.944 217.872 244.884 216.031L287.475 189.363C290.415 187.522 291.306 183.646 289.465 180.706Z" fill="white"/>
</mask>
<g mask="url(#mask5_23_7533)">
<path d="M197.62 164.218L224.288 206.809L236.926 191.485L216.925 159.542L197.62 164.218Z" fill="#3D3846" stroke="#3D3846" stroke-width="6.28136" stroke-linecap="round" stroke-linejoin="round"/>
</g>
<path d="M243.359 118.905C243.819 119.64 244.788 119.863 245.523 119.403C246.258 118.943 246.481 117.974 246.021 117.238C245.56 116.503 244.591 116.281 243.856 116.741C243.121 117.201 242.898 118.17 243.359 118.905Z" fill="#9A9996"/>
<path d="M200.768 145.573C201.228 146.308 202.197 146.531 202.932 146.07C203.667 145.61 203.89 144.641 203.43 143.906C202.969 143.171 202 142.948 201.265 143.408C200.53 143.869 200.307 144.838 200.768 145.573Z" fill="#9A9996"/>
<path d="M285.027 185.454C285.487 186.189 286.456 186.411 287.191 185.951C287.926 185.491 288.149 184.522 287.689 183.787C287.228 183.052 286.259 182.829 285.524 183.289C284.789 183.749 284.566 184.718 285.027 185.454Z" fill="#9A9996"/>
<path d="M242.436 212.121C242.896 212.856 243.865 213.079 244.6 212.619C245.335 212.159 245.558 211.19 245.098 210.454C244.638 209.719 243.669 209.497 242.933 209.957C242.198 210.417 241.976 211.386 242.436 212.121Z" fill="#9A9996"/>
<path d="M245.937 155.041L253.285 166.776L245.076 171.916L237.729 160.18L245.937 155.041Z" fill="#949390"/>
<path d="M200.982 139.996L198.32 141.663C195.37 143.51 194.483 147.371 196.329 150.32L236.227 214.04C238.073 216.99 241.934 217.878 244.884 216.031L247.546 214.364C244.596 216.211 240.735 215.323 238.888 212.374L198.991 148.654C197.145 145.704 198.032 141.843 200.982 139.996Z" fill="#3D3846"/>
<path d="M291.811 118.136L236.781 66.9129C234.242 64.5493 230.267 64.6917 227.903 67.231L193.666 104.013C191.302 106.553 191.445 110.527 193.984 112.891L249.014 164.113C251.553 166.477 255.527 166.335 257.891 163.795L292.129 127.013C294.492 124.474 294.35 120.499 291.811 118.136Z" fill="#5E5C64"/>
<path d="M285.304 120.66L234.728 73.5836C233.459 72.4018 231.471 72.473 230.29 73.7427L204.611 101.329C203.43 102.599 203.501 104.586 204.77 105.768L255.346 152.845C256.616 154.027 258.603 153.955 259.785 152.686L285.463 125.099C286.645 123.83 286.574 121.842 285.304 120.66Z" fill="#C0BFBC"/>
<path d="M260.811 119.315L237.822 97.9172C235.287 95.5572 231.318 95.6992 228.958 98.2345C226.599 100.77 226.741 104.738 229.276 107.098L252.265 128.496C254.8 130.856 258.769 130.714 261.129 128.179C263.488 125.644 263.346 121.675 260.811 119.315Z" fill="#3D3846" stroke="#3D3846" stroke-width="6.28136" stroke-linejoin="round"/>
<path d="M229.276 107.098C231.812 109.458 235.78 109.316 238.14 106.781C240.501 104.245 240.358 100.277 237.823 97.9166C235.287 95.5565 231.319 95.6987 228.959 98.2342C226.599 100.77 226.741 104.738 229.276 107.098Z" fill="white"/>
<path d="M252.265 128.497C254.801 130.857 258.769 130.715 261.129 128.179C263.49 125.644 263.347 121.675 260.812 119.315C258.276 116.955 254.308 117.097 251.948 119.633C249.588 122.168 249.73 126.137 252.265 128.497Z" fill="white"/>
<mask id="mask6_23_7533" style="mask-type:luminance" maskUnits="userSpaceOnUse" x="191" y="65" width="103" height="101">
<path d="M291.811 118.136L236.781 66.9129C234.242 64.5493 230.267 64.6917 227.903 67.231L193.666 104.013C191.302 106.553 191.445 110.527 193.984 112.891L249.014 164.113C251.553 166.477 255.527 166.335 257.891 163.795L292.129 127.013C294.492 124.474 294.35 120.499 291.811 118.136Z" fill="white"/>
</mask>
<g mask="url(#mask6_23_7533)">
<path d="M198.828 125.981L235.61 160.219L243.851 142.146L216.265 116.467L198.828 125.981Z" fill="#3D3846" stroke="#3D3846" stroke-width="6.28136" stroke-linecap="round" stroke-linejoin="round"/>
</g>
<path d="M231.28 70.3739C231.915 70.9648 232.908 70.9292 233.499 70.2944C234.09 69.6595 234.055 68.6659 233.42 68.075C232.785 67.4841 231.791 67.5197 231.2 68.1545C230.609 68.7893 230.645 69.783 231.28 70.3739Z" fill="#9A9996"/>
<path d="M197.042 107.156C197.677 107.747 198.671 107.711 199.262 107.077C199.853 106.442 199.817 105.448 199.182 104.857C198.547 104.266 197.554 104.302 196.963 104.937C196.372 105.572 196.407 106.565 197.042 107.156Z" fill="#9A9996"/>
<path d="M288.752 123.87C289.387 124.461 290.38 124.426 290.971 123.791C291.562 123.156 291.527 122.162 290.892 121.571C290.257 120.98 289.263 121.016 288.673 121.651C288.082 122.286 288.117 123.279 288.752 123.87Z" fill="#9A9996"/>
<path d="M254.514 160.652C255.149 161.243 256.143 161.208 256.734 160.573C257.325 159.938 257.289 158.944 256.654 158.354C256.02 157.763 255.026 157.798 254.435 158.433C253.844 159.068 253.88 160.062 254.514 160.652Z" fill="#9A9996"/>
<path d="M243.123 104.611L253.257 114.045L246.659 121.133L236.525 111.7L243.123 104.611Z" fill="#949390"/>
<path d="M195.806 101.714L193.666 104.013C191.295 106.56 191.437 110.52 193.984 112.891L249.014 164.113C251.561 166.484 255.52 166.343 257.891 163.795L260.031 161.496C257.66 164.044 253.701 164.185 251.153 161.815L196.124 110.592C193.577 108.221 193.435 104.261 195.806 101.714Z" fill="#3D3846"/>
<path d="M575.847 60.8118H595.292C602.151 60.8118 607.712 66.3724 607.712 73.2317V91.2181C607.712 98.0775 602.151 103.638 595.292 103.638H575.847C568.988 103.638 563.427 98.0775 563.427 91.2181V73.2317C563.427 66.3724 568.988 60.8118 575.847 60.8118Z" stroke="white" stroke-width="6.85175" stroke-linecap="round"/>
<path d="M613.372 93.8533C594.332 93.8533 578.896 78.418 578.896 59.3777C578.896 40.3373 594.332 24.902 613.372 24.902C632.412 24.902 647.848 40.3373 647.848 59.3777C647.848 78.418 632.412 93.8533 613.372 93.8533Z" fill="white"/>
<path d="M613.562 73.939C622.937 73.939 631.929 77.6635 638.559 84.2932C645.188 90.9228 648.913 99.9146 648.913 109.29C648.913 118.666 645.188 127.658 638.559 134.288C631.929 140.917 622.937 144.642 613.562 144.642C605.38 144.64 597.451 141.801 591.129 136.608C584.806 131.415 580.481 124.189 578.89 116.163H569.923C567.772 116.163 566.038 114.431 566.038 112.278C566.037 111.768 566.137 111.263 566.332 110.791C566.527 110.319 566.813 109.891 567.174 109.53C567.535 109.169 567.964 108.883 568.435 108.689C568.907 108.494 569.412 108.394 569.923 108.395H578.241C578.475 99.1814 582.298 90.4231 588.895 83.9871C595.493 77.551 604.343 73.9461 613.56 73.9407L613.562 73.939Z" fill="black" fill-opacity="0.102"/>
<path d="M647.848 54.4521H579.325V106.273H647.848V54.4521Z" fill="white"/>
<path d="M613.372 140.535C594.332 140.535 578.896 125.1 578.896 106.06C578.896 87.0192 594.332 71.5839 613.372 71.5839C632.412 71.5839 647.848 87.0192 647.848 106.06C647.848 125.1 632.412 140.535 613.372 140.535Z" fill="white"/>
<mask id="mask7_23_7533" style="mask-type:luminance" maskUnits="userSpaceOnUse" x="584" y="30" width="59" height="59">
<path d="M613.371 88.3937C597.346 88.3937 584.356 75.4034 584.356 59.3791C584.356 43.3548 597.346 30.3645 613.371 30.3645C629.395 30.3645 642.385 43.3548 642.385 59.3791C642.385 75.4034 629.395 88.3937 613.371 88.3937Z" fill="white"/>
</mask>
<g mask="url(#mask7_23_7533)">
<path d="M613.371 88.3937C597.346 88.3937 584.356 75.4034 584.356 59.3791C584.356 43.3548 597.346 30.3645 613.371 30.3645C629.395 30.3645 642.385 43.3548 642.385 59.3791C642.385 75.4034 629.395 88.3937 613.371 88.3937Z" fill="#DEDDDA"/>
<path d="M613.371 100.077C597.346 100.077 584.356 87.0866 584.356 71.0623C584.356 55.038 597.346 42.0477 613.371 42.0477C629.395 42.0477 642.385 55.038 642.385 71.0623C642.385 87.0866 629.395 100.077 613.371 100.077Z" fill="#241F31"/>
</g>
<g opacity="0.96">
<path d="M68.199 89.8747C66.3335 82.9127 65.8576 75.6514 66.7984 68.5054C67.7392 61.3594 70.0783 54.4687 73.6821 48.2267C77.2859 41.9847 82.084 36.5137 87.8022 32.126C93.5204 27.7383 100.047 24.5198 107.009 22.6544C121.069 18.8869 136.051 20.8592 148.657 28.1374C161.263 35.4157 170.462 47.4036 174.229 61.464" stroke="#3D3846" stroke-width="14.9999" stroke-linejoin="bevel"/>
<path d="M105.352 16.1559C84.8051 21.6615 67.4078 34.1684 59.6374 53.2349C57.982 57.3081 58.7859 65.9401 64.8373 67.5615L69.7877 68.7926C70.6358 69.0197 71.5394 68.9007 72.2998 68.4617C73.0602 68.0227 73.6151 67.2997 73.8425 66.4517C78.485 49.1239 91.1041 34.1313 108.892 29.3651C126.68 24.5988 145.105 31.2734 157.79 43.9581C158.411 44.5788 159.253 44.9275 160.131 44.9275C161.009 44.9275 161.851 44.5787 162.472 43.958L165.981 40.8002C171.187 35.594 166.117 28.0608 163.772 25.7168C147.475 12.857 126.036 10.6137 105.352 16.1559Z" fill="url(#paint13_linear_23_7533)"/>
<path d="M174.177 61.2051L181.416 88.2229M68.1128 89.6248L75.3522 116.643" stroke="#3D3846" stroke-width="14.9999" stroke-linejoin="bevel"/>
<path d="M151.476 32.6411C155.472 35.4652 159.091 38.7867 162.247 42.5255C162.985 41.4006 164.091 40.3542 165.318 39.7272C162.686 36.6271 159.752 33.7972 156.558 31.2794L151.476 32.6411Z" fill="url(#paint14_linear_23_7533)"/>
<path d="M104.376 12.5135C84.0803 17.9518 67.7096 32.6473 59.9948 51.8696C59.9948 51.8696 56.7383 62.7259 64.991 64.9373L67.6245 65.643C68.4951 65.876 69.4226 65.7537 70.2031 65.303C70.9835 64.8524 71.5531 64.1102 71.7865 63.2397C74.1238 54.5045 78.7208 46.5392 85.1148 40.1452C91.5088 33.7512 99.4743 29.1543 108.209 26.817C125.997 22.0508 144.943 27.1271 157.964 40.1485C158.601 40.7858 159.466 41.1438 160.367 41.1438C161.268 41.1438 162.133 40.7859 162.77 40.1487L164.754 38.1645C170.598 32.6344 162.471 24.3903 162.471 24.3903C146.181 11.6128 124.665 7.07732 104.376 12.5135Z" fill="url(#paint15_radial_23_7533)"/>
<path d="M106.674 21.0884C82.5116 27.5626 70.6962 44.0795 65.2242 64.5016C65.1835 64.6576 65.1553 64.8165 65.1398 64.977L67.6243 65.6429C68.4949 65.876 69.4224 65.7537 70.2029 65.303C70.9834 64.8524 71.5529 64.1102 71.7864 63.2397C74.1237 54.5045 78.7207 46.5391 85.1147 40.1452C91.5087 33.7512 99.4741 29.1543 108.209 26.817C125.997 22.0508 144.943 27.1271 157.964 40.1485C158.601 40.7858 159.466 41.1438 160.367 41.1438C161.268 41.1438 162.133 40.7859 162.77 40.1487L164.59 38.3282C164.496 38.1974 164.392 38.0743 164.279 37.9601C149.328 23.0097 130.837 14.6136 106.674 21.0884Z" fill="url(#paint16_radial_23_7533)"/>
<path d="M78.0935 150.25C89.4956 147.195 96.2622 135.475 93.207 124.073C90.1518 112.671 78.4318 105.904 67.0297 108.96C55.6275 112.015 48.861 123.735 51.9162 135.137C54.9714 146.539 66.6914 153.306 78.0935 150.25Z" fill="url(#paint17_radial_23_7533)"/>
<path d="M56.2225 115.866C56.0303 116.09 55.8428 116.318 55.6601 116.549C55.6557 116.628 55.6637 116.706 55.6838 116.782C55.735 116.973 55.8601 117.136 56.0315 117.235C56.203 117.334 56.4067 117.361 56.5979 117.31C56.7891 117.259 56.9521 117.134 57.051 116.962C57.15 116.791 57.1768 116.587 57.1256 116.396C57.0747 116.207 56.9515 116.045 56.7826 115.946C56.6136 115.847 56.4125 115.818 56.2225 115.866ZM55.156 117.696C54.9649 117.748 54.8018 117.873 54.7029 118.044C54.6039 118.215 54.5771 118.419 54.6283 118.61C54.6795 118.802 54.8046 118.965 54.976 119.064C55.1475 119.163 55.3512 119.189 55.5424 119.138C55.7336 119.087 55.8966 118.962 55.9956 118.79C56.0945 118.619 56.1214 118.415 56.0701 118.224C56.0189 118.033 55.8938 117.87 55.7224 117.771C55.551 117.672 55.3472 117.645 55.156 117.696ZM54.1006 119.524C53.9094 119.576 53.7464 119.701 53.6474 119.872C53.5484 120.044 53.5216 120.247 53.5728 120.439C53.6241 120.63 53.7491 120.793 53.9206 120.892C54.092 120.991 54.2957 121.018 54.4869 120.966C54.6781 120.915 54.8411 120.79 54.9401 120.619C55.0391 120.447 55.0659 120.243 55.0146 120.052C54.9634 119.861 54.8383 119.698 54.6669 119.599C54.4955 119.5 54.2918 119.473 54.1006 119.524ZM56.9842 118.752C56.793 118.803 56.63 118.928 56.531 119.1C56.432 119.271 56.4052 119.475 56.4565 119.666C56.5077 119.857 56.6328 120.02 56.8042 120.119C56.9756 120.218 57.1793 120.245 57.3705 120.194C57.5617 120.142 57.7247 120.017 57.8237 119.846C57.9227 119.674 57.9495 119.471 57.8983 119.28C57.847 119.088 57.722 118.925 57.5505 118.826C57.3791 118.727 57.1754 118.701 56.9842 118.752ZM53.0451 121.353C52.9709 121.373 52.9003 121.405 52.8357 121.447C52.7222 121.708 52.6139 121.972 52.5109 122.238C52.5129 122.248 52.515 122.257 52.5173 122.267C52.5686 122.458 52.6937 122.621 52.8651 122.72C53.0365 122.819 53.2402 122.846 53.4314 122.794C53.6226 122.743 53.7856 122.618 53.8846 122.447C53.9836 122.275 54.0104 122.072 53.9592 121.88C53.9079 121.689 53.7828 121.526 53.6114 121.427C53.44 121.328 53.2363 121.301 53.0451 121.353ZM55.9287 120.58C55.7375 120.631 55.5745 120.756 55.4755 120.928C55.3766 121.099 55.3497 121.303 55.401 121.494C55.4522 121.685 55.5773 121.848 55.7487 121.947C55.9201 122.046 56.1239 122.073 56.3151 122.022C56.5062 121.971 56.6693 121.845 56.7682 121.674C56.8672 121.503 56.894 121.299 56.8428 121.108C56.7916 120.917 56.6665 120.753 56.4951 120.655C56.3236 120.556 56.1199 120.529 55.9287 120.58ZM54.8732 122.408C54.682 122.459 54.519 122.584 54.42 122.756C54.3211 122.927 54.2943 123.131 54.3455 123.322C54.3967 123.513 54.5218 123.676 54.6932 123.775C54.8647 123.874 55.0684 123.901 55.2596 123.85C55.4508 123.799 55.6138 123.674 55.7127 123.502C55.8117 123.331 55.8385 123.127 55.7873 122.936C55.7361 122.745 55.611 122.582 55.4396 122.483C55.2681 122.384 55.0644 122.357 54.8732 122.408ZM57.7569 121.635C57.5657 121.687 57.4027 121.812 57.3037 121.983C57.2047 122.155 57.1779 122.358 57.2291 122.55C57.2804 122.741 57.4054 122.904 57.5769 123.003C57.7483 123.102 57.952 123.128 58.1432 123.077C58.3344 123.026 58.4974 122.901 58.5964 122.73C58.6954 122.558 58.7222 122.354 58.6709 122.163C58.6197 121.972 58.4946 121.809 58.3232 121.71C58.1518 121.611 57.9481 121.584 57.7569 121.635ZM52.2079 123.156C52.0557 123.613 51.919 124.075 51.798 124.541C51.8839 124.592 51.9793 124.626 52.0786 124.64C52.1779 124.655 52.279 124.648 52.3759 124.623C52.5671 124.571 52.7301 124.446 52.8291 124.275C52.9281 124.103 52.9549 123.9 52.9037 123.709C52.8622 123.554 52.7721 123.417 52.6469 123.318C52.5216 123.218 52.3677 123.162 52.2079 123.156ZM53.8177 124.236C53.6266 124.287 53.4635 124.413 53.3646 124.584C53.2656 124.755 53.2388 124.959 53.29 125.15C53.3412 125.342 53.4663 125.505 53.6377 125.604C53.8092 125.702 54.0129 125.729 54.2041 125.678C54.3953 125.627 54.5583 125.502 54.6573 125.33C54.7562 125.159 54.7831 124.955 54.7318 124.764C54.6806 124.573 54.5555 124.41 54.3841 124.311C54.2127 124.212 54.0089 124.185 53.8177 124.236ZM56.7014 123.464C56.5102 123.515 56.3472 123.64 56.2482 123.811C56.1492 123.983 56.1224 124.186 56.1736 124.378C56.2249 124.569 56.35 124.732 56.5214 124.831C56.6928 124.93 56.8965 124.957 57.0877 124.905C57.2789 124.854 57.4419 124.729 57.5409 124.558C57.6399 124.386 57.6667 124.183 57.6155 123.991C57.5642 123.8 57.4391 123.637 57.2677 123.538C57.0963 123.439 56.8926 123.412 56.7014 123.464ZM51.6671 125.215C51.5802 125.611 51.5045 126.008 51.4402 126.407C51.5999 126.334 51.7285 126.206 51.8031 126.047C51.8778 125.887 51.8937 125.707 51.8482 125.537C51.8156 125.416 51.7534 125.306 51.6671 125.215ZM52.7623 126.064C52.5711 126.116 52.4081 126.241 52.3091 126.412C52.2101 126.584 52.1833 126.787 52.2345 126.978C52.2858 127.17 52.4108 127.333 52.5823 127.432C52.7537 127.531 52.9574 127.557 53.1486 127.506C53.3398 127.455 53.5028 127.33 53.6018 127.158C53.7008 126.987 53.7276 126.783 53.6763 126.592C53.6251 126.401 53.5 126.238 53.3286 126.139C53.1572 126.04 52.9535 126.013 52.7623 126.064ZM55.6459 125.292C55.4547 125.343 55.2917 125.468 55.1927 125.639C55.0937 125.811 55.0669 126.015 55.1182 126.206C55.1694 126.397 55.2945 126.56 55.4659 126.659C55.6373 126.758 55.841 126.785 56.0322 126.734C56.2234 126.682 56.3864 126.557 56.4854 126.386C56.5844 126.214 56.6112 126.011 56.56 125.819C56.5087 125.628 56.3837 125.465 56.2122 125.366C56.0408 125.267 55.8371 125.241 55.6459 125.292ZM58.5295 124.519C58.3383 124.57 58.1753 124.695 58.0764 124.867C57.9774 125.038 57.9506 125.242 58.0018 125.433C58.053 125.624 58.1781 125.787 58.3495 125.886C58.521 125.985 58.7247 126.012 58.9159 125.961C59.1071 125.91 59.2701 125.785 59.3691 125.613C59.468 125.442 59.4948 125.238 59.4436 125.047C59.3924 124.856 59.2673 124.693 59.0959 124.594C58.9245 124.495 58.7207 124.468 58.5295 124.519ZM51.7068 127.893C51.6114 127.918 51.5221 127.963 51.444 128.023C51.3659 128.084 51.3005 128.159 51.2518 128.245C51.2329 128.457 51.2172 128.669 51.2047 128.882C51.2709 129.054 51.3983 129.195 51.5623 129.278C51.7263 129.362 51.9153 129.382 52.0931 129.334C52.2843 129.283 52.4473 129.158 52.5463 128.987C52.6453 128.815 52.6721 128.612 52.6209 128.42C52.5696 128.229 52.4445 128.066 52.2731 127.967C52.1017 127.868 51.898 127.841 51.7068 127.893ZM54.5904 127.12C54.3992 127.171 54.2362 127.296 54.1372 127.468C54.0383 127.639 54.0114 127.843 54.0627 128.034C54.1139 128.225 54.239 128.388 54.4104 128.487C54.5818 128.586 54.7856 128.613 54.9768 128.562C55.1679 128.51 55.331 128.385 55.4299 128.214C55.5289 128.043 55.5557 127.839 55.5045 127.648C55.4533 127.456 55.3282 127.293 55.1568 127.194C54.9853 127.095 54.7816 127.069 54.5904 127.12ZM57.4741 126.347C57.2829 126.398 57.1198 126.524 57.0209 126.695C56.9219 126.866 56.8951 127.07 56.9463 127.261C56.9975 127.453 57.1226 127.616 57.294 127.714C57.4655 127.813 57.6692 127.84 57.8604 127.789C58.0516 127.738 58.2146 127.613 58.3136 127.441C58.4125 127.27 58.4394 127.066 58.3881 126.875C58.3369 126.684 58.2118 126.521 58.0404 126.422C57.869 126.323 57.6652 126.296 57.4741 126.347ZM53.5349 128.948C53.3437 128.999 53.1807 129.124 53.0817 129.296C52.9828 129.467 52.956 129.671 53.0072 129.862C53.0584 130.053 53.1835 130.216 53.3549 130.315C53.5264 130.414 53.7301 130.441 53.9213 130.39C54.1125 130.339 54.2755 130.214 54.3744 130.042C54.4734 129.871 54.5002 129.667 54.449 129.476C54.3978 129.285 54.2727 129.122 54.1013 129.023C53.9298 128.924 53.7261 128.897 53.5349 128.948ZM56.4186 128.175C56.2274 128.227 56.0644 128.352 55.9654 128.523C55.8664 128.695 55.8396 128.898 55.8908 129.089C55.9421 129.281 56.0671 129.444 56.2386 129.543C56.41 129.642 56.6137 129.668 56.8049 129.617C56.9961 129.566 57.1591 129.441 57.2581 129.269C57.3571 129.098 57.3839 128.894 57.3326 128.703C57.2814 128.512 57.1563 128.349 56.9849 128.25C56.8135 128.151 56.6098 128.124 56.4186 128.175ZM59.3022 127.403C59.111 127.454 58.948 127.579 58.849 127.75C58.7501 127.922 58.7232 128.126 58.7745 128.317C58.8257 128.508 58.9508 128.671 59.1222 128.77C59.2936 128.869 59.4973 128.896 59.6885 128.845C59.8797 128.793 60.0428 128.668 60.1417 128.497C60.2407 128.325 60.2675 128.122 60.2163 127.93C60.1651 127.739 60.04 127.576 59.8685 127.477C59.6971 127.378 59.4934 127.351 59.3022 127.403ZM51.2157 129.794C51.2129 130.22 51.2228 130.645 51.2454 131.07C51.379 130.985 51.482 130.859 51.5396 130.711C51.5971 130.564 51.6061 130.402 51.5654 130.248C51.5399 130.153 51.4959 130.064 51.4359 129.986C51.3759 129.909 51.3011 129.843 51.2157 129.794ZM52.4794 130.776C52.2883 130.827 52.1252 130.953 52.0263 131.124C51.9273 131.295 51.9005 131.499 51.9517 131.69C52.0029 131.881 52.128 132.044 52.2994 132.143C52.4709 132.242 52.6746 132.269 52.8658 132.218C53.057 132.167 53.22 132.042 53.319 131.87C53.4179 131.699 53.4448 131.495 53.3935 131.304C53.3423 131.113 53.2172 130.95 53.0458 130.851C52.8744 130.752 52.6706 130.725 52.4794 130.776ZM55.3631 130.004C55.1719 130.055 55.0089 130.18 54.9099 130.351C54.8109 130.523 54.7841 130.726 54.8353 130.918C54.8866 131.109 55.0117 131.272 55.1831 131.371C55.3545 131.47 55.5582 131.497 55.7494 131.445C55.9406 131.394 56.1036 131.269 56.2026 131.098C56.3016 130.926 56.3284 130.722 56.2772 130.531C56.2259 130.34 56.1008 130.177 55.9294 130.078C55.758 129.979 55.5543 129.952 55.3631 130.004ZM58.2467 129.231C58.0555 129.282 57.8925 129.407 57.7935 129.579C57.6946 129.75 57.6677 129.954 57.719 130.145C57.7702 130.336 57.8953 130.499 58.0667 130.598C58.2381 130.697 58.4419 130.724 58.6331 130.673C58.8243 130.621 58.9873 130.496 59.0862 130.325C59.1852 130.154 59.212 129.95 59.1608 129.759C59.1096 129.567 58.9845 129.404 58.8131 129.305C58.6416 129.206 58.4379 129.18 58.2467 129.231ZM51.4175 132.606C51.4901 133.096 51.5798 133.584 51.6863 134.068C51.7282 134.064 51.7696 134.057 51.8103 134.046C52.0015 133.995 52.1645 133.87 52.2635 133.698C52.3625 133.527 52.3893 133.323 52.338 133.132C52.2868 132.941 52.1617 132.778 51.9903 132.679C51.8189 132.58 51.6152 132.553 51.424 132.604C51.4218 132.605 51.4196 132.606 51.4175 132.606ZM54.3076 131.832C54.1164 131.883 53.9534 132.008 53.8544 132.179C53.7554 132.351 53.7286 132.555 53.7799 132.746C53.8311 132.937 53.9562 133.1 54.1276 133.199C54.299 133.298 54.5027 133.325 54.6939 133.274C54.8851 133.222 55.0481 133.097 55.1471 132.926C55.2461 132.754 55.2729 132.551 55.2217 132.359C55.1704 132.168 55.0454 132.005 54.8739 131.906C54.7025 131.807 54.4988 131.78 54.3076 131.832ZM57.1912 131.059C57 131.11 56.837 131.235 56.7381 131.407C56.6391 131.578 56.6123 131.782 56.6635 131.973C56.7147 132.164 56.8398 132.327 57.0112 132.426C57.1827 132.525 57.3864 132.552 57.5776 132.501C57.7688 132.45 57.9318 132.325 58.0308 132.153C58.1297 131.982 58.1565 131.778 58.1053 131.587C58.0541 131.396 57.929 131.233 57.7576 131.134C57.5862 131.035 57.3824 131.008 57.1912 131.059ZM60.0749 130.286C59.8837 130.338 59.7207 130.463 59.6217 130.634C59.5227 130.806 59.4959 131.009 59.5471 131.2C59.5984 131.392 59.7234 131.555 59.8949 131.654C60.0663 131.753 60.27 131.779 60.4612 131.728C60.6524 131.677 60.8154 131.552 60.9144 131.38C61.0134 131.209 61.0402 131.005 60.9889 130.814C60.9377 130.623 60.8126 130.46 60.6412 130.361C60.4698 130.262 60.2661 130.235 60.0749 130.286ZM53.2521 133.66C53.0609 133.711 52.8979 133.836 52.7989 134.008C52.7 134.179 52.6731 134.383 52.7244 134.574C52.7756 134.765 52.9007 134.928 53.0721 135.027C53.2435 135.126 53.4473 135.153 53.6385 135.102C53.8296 135.05 53.9927 134.925 54.0916 134.754C54.1906 134.583 54.2174 134.379 54.1662 134.188C54.115 133.996 53.9899 133.833 53.8185 133.734C53.647 133.635 53.4433 133.609 53.2521 133.66ZM56.1358 132.887C55.9446 132.938 55.7815 133.063 55.6826 133.235C55.5836 133.406 55.5568 133.61 55.608 133.801C55.6592 133.992 55.7843 134.155 55.9557 134.254C56.1272 134.353 56.3309 134.38 56.5221 134.329C56.7133 134.278 56.8763 134.153 56.9753 133.981C57.0742 133.81 57.1011 133.606 57.0498 133.415C56.9986 133.224 56.8735 133.061 56.7021 132.962C56.5307 132.863 56.3269 132.836 56.1358 132.887ZM59.0194 132.115C58.8282 132.166 58.6652 132.291 58.5662 132.462C58.4672 132.634 58.4404 132.837 58.4916 133.029C58.5429 133.22 58.668 133.383 58.8394 133.482C59.0108 133.581 59.2145 133.608 59.4057 133.556C59.5969 133.505 59.7599 133.38 59.8589 133.209C59.9579 133.037 59.9847 132.833 59.9335 132.642C59.8822 132.451 59.7571 132.288 59.5857 132.189C59.4143 132.09 59.2106 132.063 59.0194 132.115ZM52.1966 135.488C52.1432 135.502 52.0915 135.523 52.0425 135.549C52.1808 136.02 52.3353 136.486 52.5058 136.946C52.5318 136.942 52.5575 136.937 52.583 136.93C52.7742 136.879 52.9372 136.753 53.0361 136.582C53.1351 136.411 53.1619 136.207 53.1107 136.016C53.0595 135.825 52.9344 135.662 52.763 135.563C52.5915 135.464 52.3878 135.437 52.1966 135.488ZM55.0803 134.715C54.8891 134.767 54.7261 134.892 54.6271 135.063C54.5281 135.234 54.5013 135.438 54.5525 135.629C54.6038 135.821 54.7288 135.984 54.9003 136.083C55.0717 136.182 55.2754 136.208 55.4666 136.157C55.6578 136.106 55.8208 135.981 55.9198 135.809C56.0188 135.638 56.0456 135.434 55.9943 135.243C55.9431 135.052 55.818 134.889 55.6466 134.79C55.4752 134.691 55.2715 134.664 55.0803 134.715ZM57.9639 133.943C57.7727 133.994 57.6097 134.119 57.5107 134.29C57.4118 134.462 57.3849 134.666 57.4362 134.857C57.4874 135.048 57.6125 135.211 57.7839 135.31C57.9553 135.409 58.159 135.436 58.3502 135.384C58.5414 135.333 58.7045 135.208 58.8034 135.037C58.9024 134.865 58.9292 134.662 58.878 134.47C58.8267 134.279 58.7017 134.116 58.5302 134.017C58.3588 133.918 58.1551 133.891 57.9639 133.943ZM60.8475 133.17C60.6563 133.221 60.4933 133.346 60.3944 133.518C60.2954 133.689 60.2686 133.893 60.3198 134.084C60.371 134.275 60.4961 134.438 60.6675 134.537C60.839 134.636 61.0427 134.663 61.2339 134.612C61.4251 134.561 61.5881 134.435 61.6871 134.264C61.786 134.093 61.8128 133.889 61.7616 133.698C61.7104 133.507 61.5853 133.344 61.4139 133.245C61.2425 133.146 61.0387 133.119 60.8475 133.17ZM54.0248 136.543C53.8336 136.595 53.6706 136.72 53.5716 136.891C53.4726 137.063 53.4458 137.266 53.497 137.458C53.5483 137.649 53.6734 137.812 53.8448 137.911C54.0162 138.01 54.2199 138.037 54.4111 137.985C54.6023 137.934 54.7653 137.809 54.8643 137.638C54.9633 137.466 54.9901 137.262 54.9389 137.071C54.8876 136.88 54.7625 136.717 54.5911 136.618C54.4197 136.519 54.216 136.492 54.0248 136.543ZM56.9084 135.771C56.7172 135.822 56.5542 135.947 56.4552 136.119C56.3563 136.29 56.3294 136.494 56.3807 136.685C56.4319 136.876 56.557 137.039 56.7284 137.138C56.8998 137.237 57.1036 137.264 57.2948 137.213C57.486 137.161 57.649 137.036 57.7479 136.865C57.8469 136.693 57.8737 136.49 57.8225 136.299C57.7713 136.107 57.6462 135.944 57.4748 135.845C57.3033 135.746 57.0996 135.72 56.9084 135.771ZM59.7921 134.998C59.6009 135.049 59.4378 135.174 59.3389 135.346C59.2399 135.517 59.2131 135.721 59.2643 135.912C59.3155 136.103 59.4406 136.266 59.6121 136.365C59.7835 136.464 59.9872 136.491 60.1784 136.44C60.3696 136.389 60.5326 136.264 60.6316 136.092C60.7305 135.921 60.7574 135.717 60.7061 135.526C60.6549 135.335 60.5298 135.172 60.3584 135.073C60.187 134.974 59.9833 134.947 59.7921 134.998ZM55.8529 137.599C55.6617 137.65 55.4987 137.775 55.3998 137.947C55.3008 138.118 55.274 138.322 55.3252 138.513C55.3764 138.704 55.5015 138.867 55.6729 138.966C55.8444 139.065 56.0481 139.092 56.2393 139.041C56.4305 138.99 56.5935 138.864 56.6925 138.693C56.7914 138.522 56.8182 138.318 56.767 138.127C56.7158 137.936 56.5907 137.772 56.4193 137.674C56.2479 137.575 56.0441 137.548 55.8529 137.599ZM58.7366 136.826C58.5454 136.878 58.3824 137.003 58.2834 137.174C58.1844 137.345 58.1576 137.549 58.2088 137.74C58.2601 137.932 58.3851 138.095 58.5566 138.194C58.728 138.293 58.9317 138.319 59.1229 138.268C59.3141 138.217 59.4771 138.092 59.5761 137.92C59.6751 137.749 59.7019 137.545 59.6506 137.354C59.5994 137.163 59.4743 137 59.3029 136.901C59.1315 136.802 58.9278 136.775 58.7366 136.826ZM61.6202 136.054C61.429 136.105 61.266 136.23 61.167 136.401C61.0681 136.573 61.0412 136.777 61.0925 136.968C61.1437 137.159 61.2688 137.322 61.4402 137.421C61.6116 137.52 61.8153 137.547 62.0065 137.495C62.1977 137.444 62.3608 137.319 62.4597 137.148C62.5587 136.976 62.5855 136.773 62.5343 136.581C62.4831 136.39 62.358 136.227 62.1865 136.128C62.0151 136.029 61.8114 136.002 61.6202 136.054ZM53.0713 138.353C53.2679 138.778 53.4783 139.196 53.7024 139.607C53.7906 139.514 53.8535 139.4 53.8852 139.277C53.9169 139.153 53.9163 139.023 53.8834 138.899C53.8367 138.726 53.7287 138.575 53.5795 138.474C53.4303 138.374 53.2498 138.331 53.0713 138.353ZM54.7975 139.427C54.6063 139.478 54.4432 139.603 54.3443 139.775C54.2453 139.946 54.2185 140.15 54.2697 140.341C54.3209 140.532 54.446 140.695 54.6174 140.794C54.7889 140.893 54.9926 140.92 55.1838 140.869C55.375 140.818 55.538 140.693 55.637 140.521C55.7359 140.35 55.7628 140.146 55.7115 139.955C55.6603 139.764 55.5352 139.601 55.3638 139.502C55.1924 139.403 54.9886 139.376 54.7975 139.427ZM57.6811 138.654C57.4899 138.706 57.3269 138.831 57.2279 139.002C57.1289 139.174 57.1021 139.377 57.1533 139.569C57.2046 139.76 57.3297 139.923 57.5011 140.022C57.6725 140.121 57.8762 140.147 58.0674 140.096C58.2586 140.045 58.4216 139.92 58.5206 139.749C58.6196 139.577 58.6464 139.373 58.5952 139.182C58.5439 138.991 58.4188 138.828 58.2474 138.729C58.076 138.63 57.8723 138.603 57.6811 138.654ZM60.5647 137.882C60.3735 137.933 60.2105 138.058 60.1115 138.23C60.0126 138.401 59.9858 138.605 60.037 138.796C60.0882 138.987 60.2133 139.15 60.3847 139.249C60.5561 139.348 60.7599 139.375 60.9511 139.324C61.1423 139.272 61.3053 139.147 61.4042 138.976C61.5032 138.804 61.53 138.601 61.4788 138.41C61.4276 138.218 61.3025 138.055 61.1311 137.956C60.9596 137.857 60.7559 137.831 60.5647 137.882ZM56.6256 140.483C56.4344 140.534 56.2714 140.659 56.1724 140.83C56.0735 141.002 56.0466 141.205 56.0979 141.397C56.1491 141.588 56.2742 141.751 56.4456 141.85C56.617 141.949 56.8207 141.976 57.0119 141.924C57.2031 141.873 57.3662 141.748 57.4651 141.577C57.5641 141.405 57.5909 141.202 57.5397 141.01C57.4884 140.819 57.3634 140.656 57.1919 140.557C57.0205 140.458 56.8168 140.431 56.6256 140.483ZM59.5092 139.71C59.318 139.761 59.155 139.886 59.0561 140.058C58.9571 140.229 58.9303 140.433 58.9815 140.624C59.0327 140.815 59.1578 140.978 59.3292 141.077C59.5007 141.176 59.7044 141.203 59.8956 141.152C60.0868 141.101 60.2498 140.975 60.3488 140.804C60.4477 140.633 60.4745 140.429 60.4233 140.238C60.3721 140.046 60.247 139.883 60.0756 139.784C59.9042 139.686 59.7004 139.659 59.5092 139.71ZM62.3929 138.937C62.2017 138.988 62.0387 139.114 61.9397 139.285C61.8407 139.456 61.8139 139.66 61.8651 139.851C61.9164 140.043 62.0415 140.206 62.2129 140.305C62.3843 140.403 62.588 140.43 62.7792 140.379C62.9704 140.328 63.1334 140.203 63.2324 140.031C63.3314 139.86 63.3582 139.656 63.307 139.465C63.2557 139.274 63.1306 139.111 62.9592 139.012C62.7878 138.913 62.5841 138.886 62.3929 138.937ZM55.5701 142.311C55.52 142.324 55.4714 142.343 55.4252 142.367C55.719 142.754 56.026 143.131 56.3455 143.497C56.4186 143.406 56.4692 143.299 56.4933 143.184C56.5174 143.07 56.5143 142.951 56.4842 142.838C56.433 142.647 56.3079 142.484 56.1365 142.385C55.965 142.286 55.7613 142.26 55.5701 142.311ZM58.4538 141.538C58.2626 141.589 58.0995 141.714 58.0006 141.886C57.9016 142.057 57.8748 142.261 57.926 142.452C57.9772 142.643 58.1023 142.806 58.2738 142.905C58.4452 143.004 58.6489 143.031 58.8401 142.98C59.0313 142.929 59.1943 142.804 59.2933 142.632C59.3922 142.461 59.4191 142.257 59.3678 142.066C59.3166 141.875 59.1915 141.712 59.0201 141.613C58.8487 141.514 58.645 141.487 58.4538 141.538ZM61.3374 140.765C61.1462 140.817 60.9832 140.942 60.8842 141.113C60.7852 141.285 60.7584 141.488 60.8097 141.679C60.8609 141.871 60.986 142.034 61.1574 142.133C61.3288 142.232 61.5325 142.258 61.7237 142.207C61.9149 142.156 62.0779 142.031 62.1769 141.859C62.2759 141.688 62.3027 141.484 62.2515 141.293C62.2002 141.102 62.0752 140.939 61.9037 140.84C61.7323 140.741 61.5286 140.714 61.3374 140.765ZM57.3983 143.366C57.2417 143.408 57.103 143.5 57.0033 143.628C56.9036 143.756 56.8483 143.913 56.8456 144.075C57.0906 144.334 57.342 144.587 57.5996 144.833C57.6621 144.832 57.7242 144.824 57.7846 144.808C57.9758 144.757 58.1388 144.632 58.2378 144.46C58.3368 144.289 58.3636 144.085 58.3123 143.894C58.2611 143.703 58.136 143.54 57.9646 143.441C57.7932 143.342 57.5895 143.315 57.3983 143.366ZM60.2819 142.594C60.0907 142.645 59.9277 142.77 59.8287 142.941C59.7298 143.113 59.7029 143.316 59.7542 143.508C59.8054 143.699 59.9305 143.862 60.1019 143.961C60.2733 144.06 60.477 144.087 60.6682 144.035C60.8594 143.984 61.0225 143.859 61.1214 143.688C61.2204 143.516 61.2472 143.313 61.196 143.121C61.1448 142.93 61.0197 142.767 60.8482 142.668C60.6768 142.569 60.4731 142.542 60.2819 142.594ZM63.1655 141.821C62.9743 141.872 62.8113 141.997 62.7124 142.169C62.6134 142.34 62.5866 142.544 62.6378 142.735C62.689 142.926 62.8141 143.089 62.9855 143.188C63.157 143.287 63.3607 143.314 63.5519 143.263C63.7431 143.211 63.9061 143.086 64.0051 142.915C64.104 142.744 64.1309 142.54 64.0796 142.349C64.0284 142.157 63.9033 141.994 63.7319 141.895C63.5605 141.796 63.3567 141.77 63.1655 141.821ZM59.2264 144.422C59.0352 144.473 58.8722 144.598 58.7732 144.769C58.6743 144.941 58.6475 145.145 58.6987 145.336C58.7499 145.527 58.875 145.69 59.0464 145.789C59.2178 145.888 59.4216 145.915 59.6128 145.864C59.804 145.812 59.967 145.687 60.0659 145.516C60.1649 145.344 60.1917 145.141 60.1405 144.949C60.0893 144.758 59.9642 144.595 59.7928 144.496C59.6213 144.397 59.4176 144.37 59.2264 144.422ZM62.1101 143.649C61.9189 143.7 61.7558 143.825 61.6569 143.997C61.5579 144.168 61.5311 144.372 61.5823 144.563C61.6336 144.754 61.7586 144.917 61.9301 145.016C62.1015 145.115 62.3052 145.142 62.4964 145.091C62.6876 145.04 62.8506 144.915 62.9496 144.743C63.0485 144.572 63.0754 144.368 63.0241 144.177C62.9729 143.986 62.8478 143.823 62.6764 143.724C62.505 143.625 62.3013 143.598 62.1101 143.649ZM61.0546 145.477C60.8634 145.528 60.7004 145.654 60.6014 145.825C60.5024 145.996 60.4756 146.2 60.5268 146.391C60.5781 146.582 60.7032 146.745 60.8746 146.844C61.046 146.943 61.2497 146.97 61.4409 146.919C61.6321 146.868 61.7951 146.743 61.8941 146.571C61.9931 146.4 62.0199 146.196 61.9687 146.005C61.9174 145.814 61.7923 145.651 61.6209 145.552C61.4495 145.453 61.2458 145.426 61.0546 145.477ZM63.9382 144.705C63.747 144.756 63.584 144.881 63.485 145.052C63.3861 145.224 63.3592 145.427 63.4105 145.619C63.4617 145.81 63.5868 145.973 63.7582 146.072C63.9296 146.171 64.1334 146.198 64.3245 146.146C64.5157 146.095 64.6788 145.97 64.7777 145.799C64.8767 145.627 64.9035 145.423 64.8523 145.232C64.8011 145.041 64.676 144.878 64.5046 144.779C64.3331 144.68 64.1294 144.653 63.9382 144.705ZM62.8827 146.533C62.6915 146.584 62.5285 146.709 62.4295 146.88C62.3306 147.052 62.3038 147.256 62.355 147.447C62.4062 147.638 62.5313 147.801 62.7027 147.9C62.8741 147.999 63.0779 148.026 63.2691 147.975C63.4603 147.923 63.6233 147.798 63.7222 147.627C63.8212 147.455 63.848 147.252 63.7968 147.06C63.7456 146.869 63.6205 146.706 63.4491 146.607C63.2776 146.508 63.0739 146.481 62.8827 146.533ZM64.7109 147.588C64.5197 147.639 64.3567 147.764 64.2577 147.936C64.1587 148.107 64.1319 148.311 64.1831 148.502C64.2344 148.693 64.3595 148.856 64.5309 148.955C64.7023 149.054 64.906 149.081 65.0972 149.03C65.2884 148.979 65.4514 148.854 65.5504 148.682C65.6494 148.511 65.6762 148.307 65.625 148.116C65.5737 147.925 65.4486 147.762 65.2772 147.663C65.1058 147.564 64.9021 147.537 64.7109 147.588Z" fill="url(#paint18_radial_23_7533)"/>
<path d="M72.5828 93.4938C66.418 95.1456 60.7471 98.5995 56.4515 103.32C55.6611 104.188 55.1016 105.241 54.8244 106.382C54.5471 107.524 54.5611 108.716 54.8649 109.85L67.0016 155.145C67.3049 156.277 67.887 157.314 68.6948 158.163C69.5026 159.011 70.5102 159.644 71.6256 160.002C77.7056 161.957 84.3476 162.126 90.5193 160.486L90.5402 160.48C97.9755 158.478 103.14 154.238 107.61 147.969C108.21 147.128 108.616 146.164 108.8 145.147C108.984 144.13 108.94 143.085 108.673 142.087L97.4886 100.347C97.221 99.348 96.7357 98.4209 96.0677 97.6319C95.3996 96.8429 94.5652 96.2115 93.6244 95.7829C86.6179 92.5923 80.0268 91.5057 72.5882 93.4923L72.5832 93.4937L72.5828 93.4938Z" fill="url(#paint19_radial_23_7533)"/>
<path d="M79.5569 92.5009L97.068 157.853C101.227 155.533 104.579 152.219 107.61 147.969C108.21 147.128 108.616 146.164 108.8 145.147C108.983 144.13 108.94 143.085 108.672 142.087L97.4882 100.347C97.2206 99.3484 96.7355 98.4213 96.0674 97.6322C95.3994 96.8431 94.5651 96.2116 93.6242 95.7829C88.8759 93.6207 84.3168 92.4285 79.5569 92.5009Z" fill="url(#paint20_radial_23_7533)"/>
<g opacity="0.462" filter="url(#filter0_f_23_7533)">
<path d="M94.3943 98.3798C94.1563 98.4473 93.9549 98.6066 93.8344 98.8225C93.7138 99.0385 93.6839 99.2935 93.7513 99.5314L105.486 143.327C105.55 143.566 105.707 143.769 105.921 143.893C106.135 144.017 106.39 144.05 106.629 143.986C106.868 143.922 107.072 143.766 107.195 143.552C107.319 143.337 107.353 143.083 107.288 142.844L95.5536 99.0485C95.523 98.9275 95.4684 98.8139 95.3931 98.7144C95.3179 98.6149 95.2234 98.5315 95.1153 98.4691C95.0072 98.4068 94.8877 98.3667 94.7638 98.3514C94.64 98.3361 94.5143 98.3457 94.3943 98.3798Z" fill="url(#paint21_radial_23_7533)" fill-opacity="0.987"/>
</g>
<path opacity="0.187" d="M56.1675 109.602L67.9024 153.397" stroke="url(#paint22_radial_23_7533)" stroke-opacity="0.987" stroke-width="7.49997" stroke-linecap="round" stroke-linejoin="bevel"/>
<path d="M196.156 118.616C184.754 121.671 173.034 114.904 169.979 103.502C166.924 92.0999 173.691 80.38 185.093 77.3248C196.495 74.2696 208.215 81.0361 211.27 92.4382C214.325 103.84 207.559 115.56 196.156 118.616Z" fill="url(#paint23_radial_23_7533)"/>
<path d="M197.905 77.9021C198.184 78 198.46 78.1035 198.734 78.2128C198.777 78.2785 198.81 78.3505 198.83 78.4263C198.881 78.6175 198.854 78.8212 198.756 78.9926C198.657 79.164 198.494 79.2891 198.302 79.3403C198.111 79.3916 197.907 79.3647 197.736 79.2658C197.565 79.1668 197.439 79.0038 197.388 78.8126C197.338 78.6233 197.364 78.4218 197.46 78.2515C197.557 78.0811 197.717 77.9557 197.905 77.9021ZM199.744 78.954C199.935 78.9028 200.139 78.9296 200.311 79.0286C200.482 79.1275 200.607 79.2905 200.658 79.4817C200.709 79.6729 200.683 79.8767 200.584 80.0481C200.485 80.2195 200.322 80.3446 200.13 80.3958C199.939 80.447 199.736 80.4202 199.564 80.3213C199.393 80.2223 199.268 80.0593 199.216 79.8681C199.165 79.6769 199.192 79.4732 199.291 79.3017C199.39 79.1303 199.553 79.0052 199.744 78.954ZM201.572 80.0095C201.764 79.9582 201.967 79.9851 202.139 80.084C202.31 80.183 202.435 80.346 202.486 80.5372C202.538 80.7284 202.511 80.9321 202.412 81.1036C202.313 81.275 202.15 81.4001 201.959 81.4513C201.767 81.5025 201.564 81.4757 201.392 81.3767C201.221 81.2778 201.096 81.1148 201.045 80.9236C200.993 80.7324 201.02 80.5286 201.119 80.3572C201.218 80.1858 201.381 80.0607 201.572 80.0095ZM198.689 80.7821C198.88 80.7309 199.084 80.7577 199.255 80.8567C199.426 80.9557 199.552 81.1187 199.603 81.3099C199.654 81.5011 199.627 81.7048 199.528 81.8762C199.429 82.0477 199.266 82.1727 199.075 82.224C198.884 82.2752 198.68 82.2484 198.509 82.1494C198.337 82.0504 198.212 81.8874 198.161 81.6962C198.11 81.505 198.137 81.3013 198.235 81.1299C198.334 80.9585 198.497 80.8334 198.689 80.7821ZM203.4 81.065C203.475 81.0455 203.552 81.0376 203.629 81.0417C203.858 81.2115 204.084 81.386 204.306 81.5649C204.309 81.5741 204.312 81.5834 204.315 81.5927C204.366 81.7839 204.339 81.9876 204.24 82.159C204.141 82.3305 203.978 82.4556 203.787 82.5068C203.596 82.558 203.392 82.5312 203.22 82.4322C203.049 82.3333 202.924 82.1702 202.873 81.979C202.821 81.7878 202.848 81.5841 202.947 81.4127C203.046 81.2413 203.209 81.1162 203.4 81.065ZM200.517 81.8376C200.708 81.7864 200.912 81.8132 201.083 81.9122C201.255 82.0112 201.38 82.1742 201.431 82.3654C201.482 82.5566 201.455 82.7603 201.356 82.9317C201.257 83.1031 201.094 83.2282 200.903 83.2795C200.712 83.3307 200.508 83.3039 200.337 83.2049C200.165 83.1059 200.04 82.9429 199.989 82.7517C199.938 82.5605 199.965 82.3568 200.064 82.1854C200.163 82.0139 200.326 81.8889 200.517 81.8376ZM202.345 82.8931C202.536 82.8419 202.74 82.8687 202.911 82.9677C203.083 83.0666 203.208 83.2297 203.259 83.4209C203.31 83.6121 203.283 83.8158 203.185 83.9872C203.086 84.1586 202.923 84.2837 202.731 84.3349C202.54 84.3862 202.336 84.3593 202.165 84.2604C201.994 84.1614 201.868 83.9984 201.817 83.8072C201.766 83.616 201.793 83.4123 201.892 83.2409C201.991 83.0694 202.154 82.9443 202.345 82.8931ZM199.461 83.6658C199.653 83.6146 199.856 83.6414 200.028 83.7403C200.199 83.8393 200.324 84.0023 200.375 84.1935C200.427 84.3847 200.4 84.5884 200.301 84.7599C200.202 84.9313 200.039 85.0564 199.848 85.1076C199.656 85.1588 199.453 85.132 199.281 85.033C199.11 84.9341 198.985 84.7711 198.934 84.5799C198.882 84.3887 198.909 84.1849 199.008 84.0135C199.107 83.8421 199.27 83.717 199.461 83.6658ZM205.027 82.2084C205.387 82.5278 205.737 82.8593 206.074 83.2023C206.026 83.2901 205.96 83.3672 205.881 83.4291C205.802 83.4909 205.712 83.5362 205.615 83.5623C205.424 83.6135 205.22 83.5867 205.049 83.4877C204.877 83.3887 204.752 83.2257 204.701 83.0345C204.66 82.88 204.669 82.7163 204.728 82.5676C204.787 82.4189 204.892 82.2929 205.027 82.2084ZM204.173 83.9486C204.364 83.8974 204.568 83.9242 204.739 84.0232C204.911 84.1221 205.036 84.2851 205.087 84.4763C205.138 84.6675 205.112 84.8713 205.013 85.0427C204.914 85.2141 204.751 85.3392 204.559 85.3904C204.368 85.4416 204.165 85.4148 203.993 85.3159C203.822 85.2169 203.697 85.0539 203.645 84.8627C203.594 84.6715 203.621 84.4678 203.72 84.2963C203.819 84.1249 203.982 83.9998 204.173 83.9486ZM201.289 84.7213C201.481 84.67 201.684 84.6969 201.856 84.7958C202.027 84.8948 202.152 85.0578 202.204 85.249C202.255 85.4402 202.228 85.6439 202.129 85.8153C202.03 85.9868 201.867 86.1119 201.676 86.1631C201.485 86.2143 201.281 86.1875 201.109 86.0885C200.938 85.9896 200.813 85.8265 200.762 85.6353C200.711 85.4441 200.737 85.2404 200.836 85.069C200.935 84.8976 201.098 84.7725 201.289 84.7213ZM206.525 83.7213C206.798 84.02 207.062 84.3264 207.318 84.6401C207.143 84.6561 206.967 84.6097 206.823 84.509C206.679 84.4084 206.575 84.26 206.529 84.09C206.497 83.9694 206.496 83.8426 206.525 83.7213ZM206.001 85.0041C206.192 84.9529 206.396 84.9797 206.568 85.0786C206.739 85.1776 206.864 85.3406 206.915 85.5318C206.967 85.723 206.94 85.9267 206.841 86.0982C206.742 86.2696 206.579 86.3947 206.388 86.4459C206.196 86.4971 205.993 86.4703 205.821 86.3713C205.65 86.2724 205.525 86.1094 205.474 85.9182C205.422 85.727 205.449 85.5232 205.548 85.3518C205.647 85.1804 205.81 85.0553 206.001 85.0041ZM203.118 85.7768C203.309 85.7255 203.513 85.7523 203.684 85.8513C203.855 85.9503 203.98 86.1133 204.032 86.3045C204.083 86.4957 204.056 86.6994 203.957 86.8708C203.858 87.0423 203.695 87.1673 203.504 87.2186C203.313 87.2698 203.109 87.243 202.938 87.144C202.766 87.045 202.641 86.882 202.59 86.6908C202.539 86.4996 202.565 86.2959 202.664 86.1245C202.763 85.9531 202.926 85.828 203.118 85.7768ZM200.234 86.5494C200.425 86.4982 200.629 86.525 200.8 86.624C200.972 86.723 201.097 86.886 201.148 87.0772C201.199 87.2684 201.173 87.4721 201.074 87.6435C200.975 87.8149 200.812 87.94 200.62 87.9912C200.429 88.0425 200.225 88.0157 200.054 87.9167C199.883 87.8177 199.758 87.6547 199.706 87.4635C199.655 87.2723 199.682 87.0686 199.781 86.8972C199.88 86.7257 200.043 86.6007 200.234 86.5494ZM207.829 86.0596C207.925 86.0341 208.024 86.0279 208.122 86.0412C208.22 86.0545 208.314 86.0871 208.4 86.1371C208.522 86.3114 208.642 86.4875 208.759 86.6654C208.787 86.8472 208.748 87.0331 208.647 87.1874C208.547 87.3417 208.393 87.4535 208.216 87.5014C208.025 87.5526 207.821 87.5258 207.649 87.4268C207.478 87.3279 207.353 87.1648 207.302 86.9736C207.25 86.7824 207.277 86.5787 207.376 86.4073C207.475 86.2359 207.638 86.1108 207.829 86.0596ZM204.946 86.8322C205.137 86.781 205.341 86.8078 205.512 86.9068C205.684 87.0058 205.809 87.1688 205.86 87.36C205.911 87.5512 205.884 87.7549 205.785 87.9263C205.686 88.0977 205.523 88.2228 205.332 88.2741C205.141 88.3253 204.937 88.2985 204.766 88.1995C204.594 88.1005 204.469 87.9375 204.418 87.7463C204.367 87.5551 204.394 87.3514 204.493 87.18C204.592 87.0086 204.755 86.8835 204.946 86.8322ZM202.062 87.6049C202.253 87.5537 202.457 87.5805 202.629 87.6795C202.8 87.7784 202.925 87.9415 202.976 88.1326C203.027 88.3238 203.001 88.5276 202.902 88.699C202.803 88.8704 202.64 88.9955 202.449 89.0467C202.257 89.098 202.054 89.0711 201.882 88.9722C201.711 88.8732 201.586 88.7102 201.534 88.519C201.483 88.3278 201.51 88.1241 201.609 87.9526C201.708 87.7812 201.871 87.6561 202.062 87.6049ZM206.774 87.8877C206.965 87.8365 207.169 87.8633 207.34 87.9623C207.512 88.0613 207.637 88.2243 207.688 88.4155C207.739 88.6067 207.712 88.8104 207.613 88.9818C207.515 89.1532 207.351 89.2783 207.16 89.3295C206.969 89.3808 206.765 89.354 206.594 89.255C206.423 89.156 206.297 88.993 206.246 88.8018C206.195 88.6106 206.222 88.4069 206.321 88.2355C206.42 88.064 206.583 87.939 206.774 87.8877ZM203.89 88.6604C204.082 88.6092 204.285 88.636 204.457 88.7349C204.628 88.8339 204.753 88.9969 204.804 89.1881C204.856 89.3793 204.829 89.583 204.73 89.7545C204.631 89.9259 204.468 90.051 204.277 90.1022C204.085 90.1534 203.882 90.1266 203.71 90.0276C203.539 89.9287 203.414 89.7657 203.363 89.5745C203.311 89.3833 203.338 89.1796 203.437 89.0081C203.536 88.8367 203.699 88.7116 203.89 88.6604ZM201.007 89.4331C201.198 89.3818 201.402 89.4086 201.573 89.5076C201.744 89.6066 201.87 89.7696 201.921 89.9608C201.972 90.152 201.945 90.3557 201.846 90.5271C201.747 90.6986 201.584 90.8236 201.393 90.8749C201.202 90.9261 200.998 90.8993 200.827 90.8003C200.655 90.7013 200.53 90.5383 200.479 90.3471C200.428 90.1559 200.455 89.9522 200.553 89.7808C200.652 89.6094 200.815 89.4843 201.007 89.4331ZM209.206 87.461C209.421 87.828 209.625 88.2013 209.818 88.5804C209.659 88.5735 209.507 88.5163 209.384 88.4172C209.26 88.318 209.171 88.1821 209.13 88.0291C209.104 87.9341 209.098 87.835 209.111 87.7375C209.124 87.64 209.156 87.5461 209.206 87.461ZM208.602 88.9432C208.793 88.892 208.997 88.9188 209.168 89.0178C209.34 89.1167 209.465 89.2798 209.516 89.4709C209.567 89.6621 209.541 89.8659 209.442 90.0373C209.343 90.2087 209.18 90.3338 208.988 90.385C208.797 90.4363 208.594 90.4094 208.422 90.3105C208.251 90.2115 208.126 90.0485 208.074 89.8573C208.023 89.6661 208.05 89.4624 208.149 89.2909C208.248 89.1195 208.411 88.9944 208.602 88.9432ZM205.718 89.7159C205.91 89.6646 206.113 89.6915 206.285 89.7904C206.456 89.8894 206.581 90.0524 206.633 90.2436C206.684 90.4348 206.657 90.6385 206.558 90.81C206.459 90.9814 206.296 91.1065 206.105 91.1577C205.914 91.2089 205.71 91.1821 205.538 91.0831C205.367 90.9842 205.242 90.8211 205.191 90.63C205.139 90.4388 205.166 90.235 205.265 90.0636C205.364 89.8922 205.527 89.7671 205.718 89.7159ZM202.835 90.4885C203.026 90.4373 203.23 90.4641 203.401 90.5631C203.573 90.6621 203.698 90.8251 203.749 91.0163C203.8 91.2075 203.773 91.4112 203.674 91.5826C203.575 91.754 203.412 91.8791 203.221 91.9304C203.03 91.9816 202.826 91.9548 202.655 91.8558C202.483 91.7568 202.358 91.5938 202.307 91.4026C202.256 91.2114 202.283 91.0077 202.382 90.8363C202.481 90.6649 202.644 90.5398 202.835 90.4885ZM210.437 89.997C210.619 90.4578 210.785 90.9248 210.935 91.3972C210.897 91.415 210.857 91.4294 210.817 91.4405C210.625 91.4917 210.422 91.4649 210.25 91.366C210.079 91.267 209.954 91.104 209.903 90.9128C209.851 90.7216 209.878 90.5179 209.977 90.3464C210.076 90.175 210.239 90.0499 210.43 89.9987C210.432 89.9981 210.435 89.9975 210.437 89.997ZM207.547 90.7714C207.738 90.7201 207.942 90.7469 208.113 90.8459C208.284 90.9449 208.409 91.1079 208.461 91.2991C208.512 91.4903 208.485 91.694 208.386 91.8654C208.287 92.0369 208.124 92.1619 207.933 92.2132C207.742 92.2644 207.538 92.2376 207.367 92.1386C207.195 92.0396 207.07 91.8766 207.019 91.6854C206.968 91.4942 206.994 91.2905 207.093 91.1191C207.192 90.9477 207.355 90.8226 207.547 90.7714ZM204.663 91.544C204.854 91.4928 205.058 91.5196 205.229 91.6186C205.401 91.7176 205.526 91.8806 205.577 92.0718C205.628 92.263 205.601 92.4667 205.503 92.6381C205.404 92.8095 205.241 92.9346 205.049 92.9858C204.858 93.0371 204.654 93.0103 204.483 92.9113C204.312 92.8123 204.186 92.6493 204.135 92.4581C204.084 92.2669 204.111 92.0632 204.21 91.8918C204.309 91.7203 204.472 91.5953 204.663 91.544ZM201.779 92.3167C201.971 92.2655 202.174 92.2923 202.346 92.3913C202.517 92.4902 202.642 92.6532 202.693 92.8444C202.745 93.0356 202.718 93.2394 202.619 93.4108C202.52 93.5822 202.357 93.7073 202.166 93.7585C201.974 93.8097 201.771 93.7829 201.599 93.684C201.428 93.585 201.303 93.422 201.252 93.2308C201.2 93.0396 201.227 92.8359 201.326 92.6644C201.425 92.493 201.588 92.3679 201.779 92.3167ZM209.375 91.8268C209.566 91.7756 209.77 91.8024 209.941 91.9014C210.113 92.0004 210.238 92.1634 210.289 92.3546C210.34 92.5458 210.313 92.7495 210.214 92.9209C210.115 93.0923 209.952 93.2174 209.761 93.2687C209.57 93.3199 209.366 93.2931 209.195 93.1941C209.023 93.0951 208.898 92.9321 208.847 92.7409C208.796 92.5497 208.823 92.346 208.922 92.1746C209.021 92.0032 209.184 91.8781 209.375 91.8268ZM206.491 92.5995C206.682 92.5483 206.886 92.5751 207.057 92.6741C207.229 92.773 207.354 92.9361 207.405 93.1273C207.456 93.3184 207.43 93.5222 207.331 93.6936C207.232 93.865 207.069 93.9901 206.877 94.0413C206.686 94.0926 206.483 94.0657 206.311 93.9668C206.14 93.8678 206.015 93.7048 205.963 93.5136C205.912 93.3224 205.939 93.1187 206.038 92.9473C206.137 92.7758 206.3 92.6507 206.491 92.5995ZM203.608 93.3722C203.799 93.3209 204.002 93.3478 204.174 93.4467C204.345 93.5457 204.47 93.7087 204.522 93.8999C204.573 94.0911 204.546 94.2948 204.447 94.4663C204.348 94.6377 204.185 94.7628 203.994 94.814C203.803 94.8652 203.599 94.8384 203.427 94.7394C203.256 94.6405 203.131 94.4775 203.08 94.2863C203.029 94.0951 203.055 93.8913 203.154 93.7199C203.253 93.5485 203.416 93.4234 203.608 93.3722ZM211.203 92.8823C211.256 92.8681 211.311 92.8598 211.367 92.8578C211.482 93.3348 211.582 93.8156 211.664 94.2994C211.64 94.309 211.615 94.3172 211.589 94.3241C211.398 94.3754 211.194 94.3486 211.023 94.2496C210.852 94.1506 210.726 93.9876 210.675 93.7964C210.624 93.6052 210.651 93.4015 210.75 93.2301C210.849 93.0586 211.012 92.9336 211.203 92.8823ZM208.319 93.655C208.51 93.6038 208.714 93.6306 208.886 93.7296C209.057 93.8285 209.182 93.9915 209.233 94.1827C209.285 94.3739 209.258 94.5777 209.159 94.7491C209.06 94.9205 208.897 95.0456 208.706 95.0968C208.514 95.148 208.311 95.1212 208.139 95.0223C207.968 94.9233 207.843 94.7603 207.792 94.5691C207.74 94.3779 207.767 94.1742 207.866 94.0027C207.965 93.8313 208.128 93.7062 208.319 93.655ZM205.436 94.4277C205.627 94.3764 205.831 94.4033 206.002 94.5022C206.173 94.6012 206.299 94.7642 206.35 94.9554C206.401 95.1466 206.374 95.3503 206.275 95.5217C206.176 95.6932 206.013 95.8182 205.822 95.8695C205.631 95.9207 205.427 95.8939 205.256 95.7949C205.084 95.696 204.959 95.5329 204.908 95.3417C204.857 95.1505 204.884 94.9468 204.982 94.7754C205.081 94.604 205.244 94.4789 205.436 94.4277ZM202.552 95.2003C202.743 95.1491 202.947 95.1759 203.118 95.2749C203.29 95.3739 203.415 95.5369 203.466 95.7281C203.517 95.9193 203.491 96.123 203.392 96.2944C203.293 96.4658 203.13 96.5909 202.938 96.6421C202.747 96.6934 202.543 96.6666 202.372 96.5676C202.201 96.4686 202.076 96.3056 202.024 96.1144C201.973 95.9232 202 95.7195 202.099 95.5481C202.198 95.3766 202.361 95.2516 202.552 95.2003ZM210.147 94.7105C210.339 94.6592 210.542 94.6861 210.714 94.785C210.885 94.884 211.01 95.047 211.062 95.2382C211.113 95.4294 211.086 95.6331 210.987 95.8046C210.888 95.976 210.725 96.1011 210.534 96.1523C210.343 96.2035 210.139 96.1767 209.967 96.0777C209.796 95.9788 209.671 95.8158 209.62 95.6246C209.568 95.4334 209.595 95.2296 209.694 95.0582C209.793 94.8868 209.956 94.7617 210.147 94.7105ZM207.264 95.4831C207.455 95.4319 207.659 95.4587 207.83 95.5577C208.002 95.6567 208.127 95.8197 208.178 96.0109C208.229 96.2021 208.202 96.4058 208.103 96.5772C208.004 96.7486 207.841 96.8737 207.65 96.925C207.459 96.9762 207.255 96.9494 207.084 96.8504C206.912 96.7514 206.787 96.5884 206.736 96.3972C206.685 96.206 206.712 96.0023 206.811 95.8309C206.91 95.6595 207.073 95.5344 207.264 95.4831ZM204.38 96.2558C204.571 96.2046 204.775 96.2314 204.947 96.3304C205.118 96.4293 205.243 96.5924 205.294 96.7836C205.345 96.9748 205.319 97.1785 205.22 97.3499C205.121 97.5213 204.958 97.6464 204.767 97.6976C204.575 97.7489 204.372 97.722 204.2 97.6231C204.029 97.5241 203.904 97.3611 203.852 97.1699C203.801 96.9787 203.828 96.775 203.927 96.6036C204.026 96.4321 204.189 96.307 204.38 96.2558ZM209.092 96.5386C209.283 96.4874 209.487 96.5142 209.658 96.6132C209.83 96.7122 209.955 96.8752 210.006 97.0664C210.057 97.2576 210.03 97.4613 209.931 97.6327C209.833 97.8041 209.669 97.9292 209.478 97.9805C209.287 98.0317 209.083 98.0049 208.912 97.9059C208.741 97.8069 208.615 97.6439 208.564 97.4527C208.513 97.2615 208.54 97.0578 208.639 96.8864C208.738 96.7149 208.901 96.5899 209.092 96.5386ZM206.208 97.3113C206.4 97.2601 206.603 97.2869 206.775 97.3859C206.946 97.4848 207.071 97.6478 207.122 97.839C207.174 98.0302 207.147 98.234 207.048 98.4054C206.949 98.5768 206.786 98.7019 206.595 98.7531C206.403 98.8043 206.2 98.7775 206.028 98.6786C205.857 98.5796 205.732 98.4166 205.681 98.2254C205.629 98.0342 205.656 97.8305 205.755 97.659C205.854 97.4876 206.017 97.3625 206.208 97.3113ZM203.325 98.084C203.516 98.0327 203.72 98.0596 203.891 98.1585C204.062 98.2575 204.188 98.4205 204.239 98.6117C204.29 98.8029 204.263 99.0066 204.164 99.178C204.065 99.3495 203.902 99.4746 203.711 99.5258C203.52 99.577 203.316 99.5502 203.145 99.4512C202.973 99.3523 202.848 99.1892 202.797 98.998C202.746 98.8068 202.773 98.6031 202.872 98.4317C202.97 98.2603 203.133 98.1352 203.325 98.084ZM211.878 95.8006C211.92 96.2668 211.947 96.7341 211.958 97.202C211.836 97.166 211.724 97.0991 211.635 97.0077C211.545 96.9163 211.481 96.8035 211.448 96.68C211.401 96.5062 211.419 96.3215 211.498 96.1598C211.577 95.9982 211.712 95.8708 211.878 95.8006ZM210.92 97.5941C211.111 97.5429 211.315 97.5697 211.486 97.6687C211.658 97.7676 211.783 97.9307 211.834 98.1219C211.885 98.3131 211.859 98.5168 211.76 98.6882C211.661 98.8596 211.498 98.9847 211.306 99.0359C211.115 99.0872 210.912 99.0603 210.74 98.9614C210.569 98.8624 210.444 98.6994 210.392 98.5082C210.341 98.317 210.368 98.1133 210.467 97.9419C210.566 97.7704 210.729 97.6453 210.92 97.5941ZM208.036 98.3668C208.228 98.3156 208.431 98.3424 208.603 98.4413C208.774 98.5403 208.899 98.7033 208.951 98.8945C209.002 99.0857 208.975 99.2894 208.876 99.4609C208.777 99.6323 208.614 99.7574 208.423 99.8086C208.232 99.8598 208.028 99.833 207.856 99.734C207.685 99.6351 207.56 99.4721 207.509 99.2809C207.458 99.0897 207.484 98.8859 207.583 98.7145C207.682 98.5431 207.845 98.418 208.036 98.3668ZM205.153 99.1395C205.344 99.0882 205.548 99.115 205.719 99.214C205.891 99.313 206.016 99.476 206.067 99.6672C206.118 99.8584 206.091 100.062 205.992 100.234C205.893 100.405 205.73 100.53 205.539 100.581C205.348 100.633 205.144 100.606 204.973 100.507C204.801 100.408 204.676 100.245 204.625 100.054C204.574 99.8623 204.601 99.6586 204.7 99.4872C204.799 99.3158 204.962 99.1907 205.153 99.1395ZM209.865 99.4223C210.056 99.371 210.26 99.3979 210.431 99.4968C210.602 99.5958 210.727 99.7588 210.779 99.95C210.83 100.141 210.803 100.345 210.704 100.516C210.605 100.688 210.442 100.813 210.251 100.864C210.06 100.915 209.856 100.888 209.685 100.79C209.513 100.691 209.388 100.528 209.337 100.336C209.286 100.145 209.312 99.9414 209.411 99.77C209.51 99.5986 209.673 99.4735 209.865 99.4223ZM206.981 100.195C207.172 100.144 207.376 100.171 207.547 100.269C207.719 100.368 207.844 100.531 207.895 100.723C207.946 100.914 207.919 101.118 207.821 101.289C207.722 101.46 207.559 101.586 207.367 101.637C207.176 101.688 206.972 101.661 206.801 101.562C206.63 101.463 206.504 101.3 206.453 101.109C206.402 100.918 206.429 100.714 206.528 100.543C206.627 100.371 206.79 100.246 206.981 100.195ZM204.097 100.968C204.289 100.916 204.492 100.943 204.664 101.042C204.835 101.141 204.96 101.304 205.011 101.495C205.063 101.687 205.036 101.89 204.937 102.062C204.838 102.233 204.675 102.358 204.484 102.409C204.292 102.461 204.089 102.434 203.917 102.335C203.746 102.236 203.621 102.073 203.57 101.882C203.518 101.69 203.545 101.487 203.644 101.315C203.743 101.144 203.906 101.019 204.097 100.968ZM211.693 100.478C211.743 100.465 211.794 100.457 211.846 100.454C211.785 100.936 211.708 101.416 211.615 101.893C211.506 101.851 211.408 101.783 211.33 101.696C211.252 101.609 211.195 101.505 211.165 101.392C211.114 101.201 211.141 100.997 211.24 100.825C211.339 100.654 211.502 100.529 211.693 100.478ZM208.809 101.25C209 101.199 209.204 101.226 209.375 101.325C209.547 101.424 209.672 101.587 209.723 101.778C209.774 101.969 209.748 102.173 209.649 102.344C209.55 102.516 209.387 102.641 209.195 102.692C209.004 102.743 208.801 102.717 208.629 102.618C208.458 102.519 208.333 102.356 208.281 102.164C208.23 101.973 208.257 101.77 208.356 101.598C208.455 101.427 208.618 101.302 208.809 101.25ZM205.926 102.023C206.117 101.972 206.32 101.999 206.492 102.098C206.663 102.197 206.788 102.36 206.84 102.551C206.891 102.742 206.864 102.946 206.765 103.117C206.666 103.289 206.503 103.414 206.312 103.465C206.121 103.516 205.917 103.489 205.746 103.39C205.574 103.291 205.449 103.128 205.398 102.937C205.347 102.746 205.373 102.542 205.472 102.371C205.571 102.199 205.734 102.074 205.926 102.023ZM210.637 102.306C210.794 102.264 210.96 102.274 211.11 102.335C211.261 102.396 211.387 102.504 211.47 102.643C211.388 102.99 211.296 103.335 211.196 103.677C211.142 103.708 211.084 103.731 211.024 103.748C210.832 103.799 210.629 103.772 210.457 103.673C210.286 103.574 210.161 103.411 210.11 103.22C210.058 103.029 210.085 102.825 210.184 102.654C210.283 102.482 210.446 102.357 210.637 102.306ZM207.754 103.079C207.945 103.027 208.149 103.054 208.32 103.153C208.491 103.252 208.617 103.415 208.668 103.606C208.719 103.798 208.692 104.001 208.593 104.173C208.494 104.344 208.331 104.469 208.14 104.52C207.949 104.572 207.745 104.545 207.574 104.446C207.402 104.347 207.277 104.184 207.226 103.993C207.175 103.801 207.202 103.598 207.3 103.426C207.399 103.255 207.562 103.13 207.754 103.079ZM204.87 103.851C205.061 103.8 205.265 103.827 205.436 103.926C205.608 104.025 205.733 104.188 205.784 104.379C205.835 104.57 205.809 104.774 205.71 104.945C205.611 105.117 205.448 105.242 205.256 105.293C205.065 105.344 204.861 105.317 204.69 105.219C204.519 105.12 204.394 104.957 204.342 104.765C204.291 104.574 204.318 104.37 204.417 104.199C204.516 104.028 204.679 103.902 204.87 103.851ZM209.582 104.134C209.773 104.083 209.977 104.11 210.148 104.209C210.32 104.308 210.445 104.471 210.496 104.662C210.547 104.853 210.52 105.057 210.421 105.228C210.322 105.4 210.159 105.525 209.968 105.576C209.777 105.627 209.573 105.6 209.402 105.501C209.23 105.402 209.105 105.239 209.054 105.048C209.003 104.857 209.03 104.653 209.129 104.482C209.228 104.31 209.391 104.185 209.582 104.134ZM206.698 104.907C206.889 104.855 207.093 104.882 207.265 104.981C207.436 105.08 207.561 105.243 207.612 105.434C207.663 105.626 207.637 105.829 207.538 106.001C207.439 106.172 207.276 106.297 207.085 106.349C206.893 106.4 206.69 106.373 206.518 106.274C206.347 106.175 206.222 106.012 206.17 105.821C206.119 105.63 206.146 105.426 206.245 105.254C206.344 105.083 206.507 104.958 206.698 104.907ZM208.526 105.962C208.718 105.911 208.921 105.938 209.093 106.037C209.264 106.136 209.389 106.299 209.44 106.49C209.492 106.681 209.465 106.885 209.366 107.056C209.267 107.228 209.104 107.353 208.913 107.404C208.721 107.455 208.518 107.428 208.346 107.329C208.175 107.23 208.05 107.067 207.999 106.876C207.947 106.685 207.974 106.481 208.073 106.31C208.172 106.139 208.335 106.013 208.526 105.962ZM205.643 106.735C205.834 106.684 206.038 106.71 206.209 106.809C206.38 106.908 206.506 107.071 206.557 107.263C206.608 107.454 206.581 107.658 206.482 107.829C206.383 108 206.22 108.125 206.029 108.177C205.838 108.228 205.634 108.201 205.463 108.102C205.291 108.003 205.166 107.84 205.115 107.649C205.064 107.458 205.091 107.254 205.19 107.083C205.288 106.911 205.451 106.786 205.643 106.735ZM207.471 107.79C207.662 107.739 207.866 107.766 208.037 107.865C208.209 107.964 208.334 108.127 208.385 108.318C208.436 108.509 208.409 108.713 208.31 108.884C208.211 109.056 208.048 109.181 207.857 109.232C207.666 109.283 207.462 109.257 207.291 109.158C207.119 109.059 206.994 108.896 206.943 108.704C206.892 108.513 206.919 108.31 207.018 108.138C207.117 107.967 207.28 107.842 207.471 107.79ZM206.415 109.619C206.607 109.567 206.81 109.594 206.982 109.693C207.153 109.792 207.278 109.955 207.329 110.146C207.381 110.337 207.354 110.541 207.255 110.713C207.156 110.884 206.993 111.009 206.802 111.06C206.61 111.112 206.407 111.085 206.235 110.986C206.064 110.887 205.939 110.724 205.888 110.533C205.836 110.341 205.863 110.138 205.962 109.966C206.061 109.795 206.224 109.67 206.415 109.619Z" fill="url(#paint24_radial_23_7533)"/>
<path d="M172.551 66.7074C178.716 65.0555 185.354 65.2113 191.434 67.1514C192.553 67.5083 193.564 68.1405 194.374 68.9901C195.185 69.8397 195.769 70.8793 196.073 72.0135L208.21 117.308C208.513 118.44 208.528 119.63 208.252 120.768C207.977 121.907 207.421 122.959 206.634 123.827C202.346 128.56 196.678 132.028 190.513 133.692L190.492 133.698C183.052 135.682 176.46 134.592 169.454 131.398C168.514 130.969 167.68 130.338 167.012 129.549C166.345 128.76 165.86 127.834 165.593 126.836L154.408 85.095C154.141 84.0964 154.097 83.0509 154.281 82.0336C154.465 81.0162 154.872 80.0522 155.473 79.2106C159.945 72.9443 165.11 68.7077 172.545 66.7089L172.55 66.7075L172.551 66.7074Z" fill="url(#paint25_radial_23_7533)"/>
<path d="M166.014 69.3346L183.525 134.687C178.764 134.757 174.204 133.563 169.454 131.398C168.514 130.969 167.68 130.338 167.013 129.549C166.345 128.76 165.86 127.834 165.593 126.836L154.409 85.0953C154.141 84.0966 154.098 83.0511 154.281 82.0337C154.465 81.0163 154.872 80.0522 155.473 79.2106C158.504 74.9639 161.856 71.6519 166.014 69.3346Z" fill="url(#paint26_radial_23_7533)"/>
<g opacity="0.462" filter="url(#filter1_f_23_7533)">
<path d="M156.105 81.8446C156.344 81.7841 156.598 81.8213 156.811 81.948C157.023 82.0748 157.177 82.2807 157.237 82.5204L168.972 126.316C169.036 126.555 169.003 126.809 168.879 127.024C168.755 127.238 168.551 127.394 168.312 127.458C168.073 127.522 167.819 127.489 167.605 127.365C167.39 127.241 167.234 127.038 167.17 126.799L155.435 83.0034C155.401 82.8833 155.391 82.7576 155.407 82.6338C155.422 82.51 155.462 82.3905 155.525 82.2824C155.587 82.1744 155.671 82.08 155.77 82.0048C155.87 81.9295 155.984 81.8751 156.105 81.8446Z" fill="url(#paint27_radial_23_7533)" fill-opacity="0.987"/>
</g>
<path opacity="0.187" d="M194.821 72.4499L206.556 116.245" stroke="url(#paint28_radial_23_7533)" stroke-opacity="0.987" stroke-width="7.49997" stroke-linecap="round" stroke-linejoin="bevel"/>
</g>
<path d="M620.646 151.548L567.039 165.911C560.637 167.627 556.837 174.208 558.553 180.611L580.682 263.196C582.397 269.599 588.978 273.399 595.381 271.683L648.987 257.319C655.39 255.604 659.189 249.023 657.473 242.62L635.345 160.034C633.629 153.632 627.048 149.832 620.646 151.548Z" fill="url(#paint29_linear_23_7533)"/>
<path d="M619.874 148.649L566.268 163.013C559.865 164.729 556.066 171.31 557.781 177.712L579.133 257.396C580.848 263.799 587.429 267.598 593.832 265.883L647.438 251.519C653.84 249.803 657.64 243.222 655.924 236.82L634.573 157.136C632.857 150.734 626.277 146.934 619.874 148.649Z" fill="#3D3846"/>
<path d="M584.101 197.06L577.98 198.7C575.27 199.427 573.768 202.609 574.625 205.809L574.627 205.815C575.484 209.014 578.376 211.02 581.086 210.293L587.208 208.653C589.918 207.927 591.419 204.745 590.562 201.545L590.561 201.539C589.703 198.34 586.811 196.334 584.101 197.06Z" fill="#9A9996"/>
<path d="M605.842 191.235L599.708 192.878C597.001 193.604 595.502 196.786 596.36 199.985L596.361 199.991C597.218 203.191 600.107 205.197 602.814 204.471L608.948 202.828C611.655 202.103 613.154 198.921 612.296 195.721L612.295 195.716C611.437 192.516 608.548 190.509 605.842 191.235Z" fill="#9A9996"/>
<path d="M620.441 157.818L570.357 171.238C567.783 171.928 566.243 174.526 566.918 177.043L568.746 183.866C569.42 186.382 572.053 187.863 574.627 187.174L624.711 173.753C627.285 173.064 628.825 170.465 628.151 167.949L626.322 161.125C625.648 158.609 623.015 157.128 620.441 157.818Z" fill="#241F31"/>
<path d="M625.488 176.651L575.403 190.071C572.829 190.76 570.155 189.125 569.43 186.418L567.786 180.285C567.061 177.578 568.559 174.825 571.133 174.135L621.218 160.715C623.791 160.025 626.466 161.661 627.191 164.368L628.834 170.501C629.56 173.208 628.061 175.961 625.488 176.651Z" fill="#6FB182"/>
<path d="M583.325 194.163L577.203 195.804C574.493 196.53 572.992 199.712 573.849 202.912L573.851 202.918C574.708 206.118 577.6 208.123 580.31 207.397L586.431 205.756C589.141 205.03 590.643 201.848 589.786 198.648L589.784 198.642C588.927 195.442 586.035 193.437 583.325 194.163Z" fill="#DEDDDA"/>
<path d="M605.066 188.338L598.932 189.982C596.225 190.707 594.726 193.889 595.583 197.088L595.585 197.094C596.442 200.294 599.331 202.3 602.038 201.575L608.172 199.931C610.879 199.206 612.377 196.024 611.52 192.824L611.519 192.819C610.661 189.619 607.772 187.613 605.066 188.338Z" fill="#DEDDDA"/>
<path d="M589.148 215.893L583.026 217.533C580.316 218.259 578.814 221.442 579.672 224.642L580.449 227.544C581.307 230.744 584.198 232.749 586.908 232.023L593.03 230.383C595.74 229.657 597.242 226.474 596.384 223.274L595.607 220.372C594.749 217.172 591.857 215.167 589.148 215.893Z" fill="#5E5C64"/>
<path d="M610.888 210.068L604.754 211.711C602.047 212.436 600.549 215.618 601.406 218.818L602.184 221.72C603.041 224.92 605.93 226.926 608.637 226.201L614.771 224.557C617.477 223.832 618.976 220.65 618.119 217.451L617.341 214.548C616.484 211.348 613.595 209.342 610.888 210.068Z" fill="#5E5C64"/>
<path d="M594.971 237.628L588.849 239.268C586.14 239.994 584.638 243.177 585.495 246.376L586.273 249.279C587.13 252.479 590.022 254.484 592.732 253.758L598.854 252.117C601.564 251.391 603.065 248.209 602.208 245.009L601.43 242.107C600.573 238.907 597.681 236.901 594.971 237.628Z" fill="#5E5C64"/>
<path d="M588.372 212.996L582.25 214.636C579.54 215.362 578.038 218.545 578.895 221.745L579.673 224.647C580.531 227.847 583.422 229.852 586.132 229.126L592.254 227.486C594.964 226.76 596.466 223.577 595.608 220.377L594.831 217.475C593.973 214.275 591.081 212.27 588.372 212.996Z" fill="#9A9996"/>
<path d="M610.112 207.171L603.978 208.814C601.271 209.54 599.772 212.721 600.63 215.921L601.407 218.824C602.265 222.023 605.153 224.029 607.86 223.304L613.994 221.661C616.701 220.935 618.2 217.754 617.342 214.554L616.565 211.651C615.707 208.451 612.818 206.445 610.112 207.171Z" fill="#9A9996"/>
<path d="M594.195 234.731L588.073 236.371C585.363 237.097 583.862 240.28 584.719 243.479L585.497 246.382C586.354 249.582 589.246 251.587 591.956 250.861L598.078 249.221C600.788 248.494 602.289 245.312 601.432 242.112L600.654 239.21C599.797 236.01 596.905 234.005 594.195 234.731Z" fill="#9A9996"/>
<path d="M-108.885 82.5576L-30.5237 61.5606L29.1224 95.8308L60.2263 211.9C62.0875 218.846 57.9327 225.99 50.9867 227.851L-61.8527 258.086C-63.4993 258.531 -65.2175 258.647 -66.9089 258.426C-68.6002 258.206 -70.2313 257.653 -71.7085 256.8C-73.1857 255.948 -74.48 254.812 -75.5169 253.457C-76.5538 252.103 -77.3129 250.557 -77.7507 248.909L-118.065 98.4545C-118.51 96.8079 -118.626 95.0895 -118.405 93.398C-118.184 91.7065 -117.632 90.0753 -116.779 88.5981C-115.926 87.1208 -114.79 85.8266 -113.435 84.7897C-112.081 83.7529 -110.534 82.9952 -108.885 82.5576Z" fill="black" fill-opacity="0.1"/>
<path d="M-108.886 78.557L-30.5239 57.56L29.1221 91.83L60.2261 207.9C62.0871 214.846 57.9331 221.99 50.9861 223.85L-61.8529 254.086C-63.4995 254.531 -65.2178 254.647 -66.9092 254.426C-68.6005 254.206 -70.2316 253.653 -71.7089 252.8C-73.1861 251.947 -74.4803 250.811 -75.5171 249.457C-76.554 248.102 -77.3131 246.557 -77.7509 244.908L-118.065 94.454C-118.51 92.8074 -118.626 91.089 -118.405 89.3976C-118.184 87.7062 -117.632 86.075 -116.779 84.5978C-115.926 83.1206 -114.789 81.8264 -113.435 80.7895C-112.081 79.7527 -110.535 78.9947 -108.886 78.557Z" fill="#F6F5F4"/>
<path d="M-30.5239 57.56L-21.2859 92.038C-19.4249 98.984 -12.3009 102.938 -5.35493 101.078L29.1231 91.832L-30.5239 57.56Z" fill="#DEDDDA"/>
<path d="M-90.8532 151.198L25.0579 120.14L26.352 124.969L-89.5591 156.028L-90.8532 151.198ZM-88.265 160.857L11.4437 134.14L12.7378 138.97L-86.9709 165.687L-88.265 160.857ZM-84.3827 175.346L-40.916 163.699L-39.6219 168.529L-83.0886 180.176L-84.3827 175.346ZM-96.0295 131.88L19.8816 100.821L21.1757 105.651L-94.7354 136.709L-96.0295 131.88ZM-70.1476 228.472L45.7635 197.414L47.0576 202.244L-68.8535 233.302L-70.1476 228.472ZM-67.5594 238.131L33.8628 210.955L35.1569 215.785L-66.2654 242.961L-67.5594 238.131ZM-81.7945 185.005L-38.3278 173.359L-37.0337 178.188L-80.5004 189.835L-81.7945 185.005ZM-79.2063 194.665L-50.2285 186.9L-48.9344 191.73L-77.9122 199.494L-79.2063 194.665ZM-76.6181 204.324L-33.1515 192.677L-31.8574 197.507L-75.324 209.154L-76.6181 204.324ZM-74.0299 213.983L-45.0521 206.219L-43.7581 211.048L-72.7358 218.813L-74.0299 213.983ZM-93.4414 141.539L22.4697 110.481L23.7638 115.31L-92.1473 146.368L-93.4414 141.539Z" fill="#C0BFBC"/>
<path d="M31.5283 144.288L-36.0865 162.405L-24.4396 205.872L43.1752 187.755L31.5283 144.288Z" fill="url(#paint30_linear_23_7533)"/>
</g>
<defs>
<filter id="filter0_f_23_7533" x="91.433" y="96.0612" width="18.1704" height="50.2399" filterUnits="userSpaceOnUse" color-interpolation-filters="sRGB">
<feFlood flood-opacity="0" result="BackgroundImageFix"/>
<feBlend mode="normal" in="SourceGraphic" in2="BackgroundImageFix" result="shape"/>
<feGaussianBlur stdDeviation="1.14153" result="effect1_foregroundBlur_23_7533"/>
</filter>
<filter id="filter1_f_23_7533" x="153.117" y="79.5332" width="18.1704" height="50.2399" filterUnits="userSpaceOnUse" color-interpolation-filters="sRGB">
<feFlood flood-opacity="0" result="BackgroundImageFix"/>
<feBlend mode="normal" in="SourceGraphic" in2="BackgroundImageFix" result="shape"/>
<feGaussianBlur stdDeviation="1.14153" result="effect1_foregroundBlur_23_7533"/>
</filter>
<linearGradient id="paint0_linear_23_7533" x1="534.999" y1="155" x2="309.999" y2="155" gradientUnits="userSpaceOnUse">
<stop stop-color="#3584E4"/>
<stop offset="1" stop-color="#DC8ADD"/>
</linearGradient>
<linearGradient id="paint1_linear_23_7533" x1="555.001" y1="155" x2="780.001" y2="155" gradientUnits="userSpaceOnUse">
<stop stop-color="#F5C211"/>
<stop offset="1" stop-color="#FF7800"/>
</linearGradient>
<linearGradient id="paint2_linear_23_7533" x1="-179.999" y1="155" x2="45.0008" y2="155" gradientUnits="userSpaceOnUse">
<stop stop-color="#9141AC"/>
<stop offset="1" stop-color="#ED333B"/>
</linearGradient>
<linearGradient id="paint3_linear_23_7533" x1="65.0005" y1="155" x2="290.001" y2="155" gradientUnits="userSpaceOnUse">
<stop stop-color="#3584E4"/>
<stop offset="1" stop-color="#2EC27E"/>
</linearGradient>
<linearGradient id="paint4_linear_23_7533" x1="383.775" y1="155.339" x2="459.4" y2="170.888" gradientUnits="userSpaceOnUse">
<stop stop-color="#9A9996"/>
<stop offset="1" stop-color="#C0BFBC"/>
</linearGradient>
<linearGradient id="paint5_linear_23_7533" x1="389.651" y1="195.477" x2="395.272" y2="168.322" gradientUnits="userSpaceOnUse">
<stop stop-color="#F66151"/>
<stop offset="1" stop-color="#ED333B"/>
</linearGradient>
<linearGradient id="paint6_linear_23_7533" x1="310.913" y1="175.918" x2="384.181" y2="151.572" gradientUnits="userSpaceOnUse">
<stop stop-color="#F87E70"/>
<stop offset="1" stop-color="#FAB4AC"/>
</linearGradient>
<linearGradient id="paint7_linear_23_7533" x1="336.07" y1="207.74" x2="327.361" y2="181.413" gradientUnits="userSpaceOnUse">
<stop stop-color="#F66151"/>
<stop offset="1" stop-color="#ED333B"/>
</linearGradient>
<linearGradient id="paint8_linear_23_7533" x1="337.256" y1="128.415" x2="414.277" y2="123.07" gradientUnits="userSpaceOnUse">
<stop stop-color="#62A0EA"/>
<stop offset="1" stop-color="#99C1F1"/>
</linearGradient>
<linearGradient id="paint9_linear_23_7533" x1="338.3" y1="143.441" x2="393.077" y2="139.64" gradientUnits="userSpaceOnUse">
<stop stop-color="#1A5FB4"/>
<stop offset="1" stop-color="#62A0EA"/>
</linearGradient>
<radialGradient id="paint10_radial_23_7533" cx="0" cy="0" r="1" gradientUnits="userSpaceOnUse" gradientTransform="translate(134.729 220.161) rotate(179.863) scale(45.0388 110.844)">
<stop stop-color="#EAE9E7"/>
<stop offset="0.208" stop-color="#CAC8C4" stop-opacity="0.953"/>
<stop offset="0.745" stop-color="#EBEAE9" stop-opacity="0.972"/>
<stop offset="1" stop-color="#D5D3CF" stop-opacity="0.925"/>
</radialGradient>
<radialGradient id="paint11_radial_23_7533" cx="0" cy="0" r="1" gradientUnits="userSpaceOnUse" gradientTransform="translate(185.045 247.462) rotate(179.863) scale(45.0381 110.841)">
<stop stop-color="#EAE9E7"/>
<stop offset="0.208" stop-color="#CAC8C4" stop-opacity="0.953"/>
<stop offset="0.745" stop-color="#EBEAE9" stop-opacity="0.972"/>
<stop offset="1" stop-color="#D5D3CF" stop-opacity="0.925"/>
</radialGradient>
<linearGradient id="paint12_linear_23_7533" x1="225.559" y1="131.903" x2="265.56" y2="195.79" gradientUnits="userSpaceOnUse">
<stop stop-color="#F66151"/>
<stop offset="1" stop-color="#F5C211"/>
</linearGradient>
<linearGradient id="paint13_linear_23_7533" x1="54.8824" y1="51.4627" x2="166.715" y2="21.4972" gradientUnits="userSpaceOnUse">
<stop stop-color="#A09F9C"/>
<stop offset="0.078" stop-color="#5E5C64"/>
<stop offset="0.104" stop-color="#D0D0CE" stop-opacity="0.992"/>
<stop offset="0.12" stop-color="#A09F9C" stop-opacity="0.992"/>
<stop offset="0.285" stop-color="#5E5C64"/>
<stop offset="0.5" stop-color="#77767B"/>
<stop offset="0.762" stop-color="#B5B4B1" stop-opacity="0.965"/>
<stop offset="0.874" stop-color="#77767B"/>
<stop offset="0.905" stop-color="#CBCAC9" stop-opacity="0.965"/>
<stop offset="0.949" stop-color="#A09F9C" stop-opacity="0.965"/>
<stop offset="1" stop-color="#A09F9C" stop-opacity="0.966"/>
</linearGradient>
<linearGradient id="paint14_linear_23_7533" x1="54.4914" y1="51.0845" x2="166.324" y2="21.1191" gradientUnits="userSpaceOnUse">
<stop stop-color="#A09F9C"/>
<stop offset="0.078" stop-color="#A09F9C" stop-opacity="0.996"/>
<stop offset="0.104" stop-color="#D0D0CE" stop-opacity="0.992"/>
<stop offset="0.12" stop-color="#A09F9C" stop-opacity="0.992"/>
<stop offset="0.285" stop-color="#787773" stop-opacity="0.984"/>
<stop offset="0.5" stop-color="#908F8B" stop-opacity="0.976"/>
<stop offset="0.762" stop-color="#B5B4B1" stop-opacity="0.965"/>
<stop offset="0.874" stop-color="#A09F9C" stop-opacity="0.965"/>
<stop offset="0.905" stop-color="#CBCAC9" stop-opacity="0.965"/>
<stop offset="0.949" stop-color="#A09F9C" stop-opacity="0.965"/>
<stop offset="1" stop-color="#A09F9C" stop-opacity="0.966"/>
</linearGradient>
<radialGradient id="paint15_radial_23_7533" cx="0" cy="0" r="1" gradientUnits="userSpaceOnUse" gradientTransform="translate(105.72 18.6867) rotate(-15) scale(57.8882 21.1308)">
<stop stop-color="#EBEAE8"/>
<stop offset="1" stop-color="#DEDDDA" stop-opacity="0.983"/>
</radialGradient>
<radialGradient id="paint16_radial_23_7533" cx="0" cy="0" r="1" gradientUnits="userSpaceOnUse" gradientTransform="translate(108.508 27.925) rotate(-13.1138) scale(56.6804 29.1219)">
<stop stop-color="#B0AFAB"/>
<stop offset="1" stop-color="#DCDBD8" stop-opacity="0.961"/>
</radialGradient>
<radialGradient id="paint17_radial_23_7533" cx="0" cy="0" r="1" gradientUnits="userSpaceOnUse" gradientTransform="translate(56.0184 125.539) rotate(-15) scale(21.0005)">
<stop stop-color="#3D3846"/>
<stop offset="1" stop-color="#241F31"/>
</radialGradient>
<radialGradient id="paint18_radial_23_7533" cx="0" cy="0" r="1" gradientUnits="userSpaceOnUse" gradientTransform="translate(55.6978 128.369) rotate(-15) scale(19.4053 17.1659)">
<stop stop-color="#9A9996"/>
<stop offset="1" stop-color="#3D3846" stop-opacity="0.252"/>
</radialGradient>
<radialGradient id="paint19_radial_23_7533" cx="0" cy="0" r="1" gradientUnits="userSpaceOnUse" gradientTransform="translate(76.0869 119.182) rotate(-14.7749) scale(61.4122 58.1628)">
<stop stop-color="#EAE9E7"/>
<stop offset="0.649" stop-color="#B5B3AD"/>
<stop offset="1" stop-color="#FCFCFC"/>
</radialGradient>
<radialGradient id="paint20_radial_23_7533" cx="0" cy="0" r="1" gradientUnits="userSpaceOnUse" gradientTransform="translate(92.2654 107.504) rotate(-13.2418) scale(37.4812 58.8085)">
<stop stop-color="#CACAC9"/>
<stop offset="0.311" stop-color="#B0AEAB" stop-opacity="0.941"/>
<stop offset="0.688" stop-color="#6C6B66" stop-opacity="0.949"/>
<stop offset="1" stop-color="#D6D6D4" stop-opacity="0.966"/>
</radialGradient>
<radialGradient id="paint21_radial_23_7533" cx="0" cy="0" r="1" gradientUnits="userSpaceOnUse" gradientTransform="translate(97.6955 111.079) rotate(-15) scale(35.226 18.4152)">
<stop stop-color="white"/>
<stop offset="1" stop-color="white" stop-opacity="0"/>
</radialGradient>
<radialGradient id="paint22_radial_23_7533" cx="0" cy="0" r="1" gradientUnits="userSpaceOnUse" gradientTransform="translate(-nan -nan) rotate(-nan) scale(-nan -nan)">
<stop stop-color="white"/>
<stop offset="1" stop-color="white" stop-opacity="0"/>
</radialGradient>
<radialGradient id="paint23_radial_23_7533" cx="0" cy="0" r="1" gradientUnits="userSpaceOnUse" gradientTransform="translate(202.918 86.177) rotate(165) scale(21.0005)">
<stop stop-color="#3D3846"/>
<stop offset="1" stop-color="#241F31"/>
</radialGradient>
<radialGradient id="paint24_radial_23_7533" cx="0" cy="0" r="1" gradientUnits="userSpaceOnUse" gradientTransform="translate(204.611 88.4673) rotate(165) scale(19.4053 17.1659)">
<stop stop-color="#9A9996"/>
<stop offset="1" stop-color="#3D3846" stop-opacity="0.252"/>
</radialGradient>
<radialGradient id="paint25_radial_23_7533" cx="0" cy="0" r="1" gradientUnits="userSpaceOnUse" gradientTransform="translate(182.36 90.7058) rotate(164.775) scale(61.4122 58.1628)">
<stop stop-color="#EAE9E7"/>
<stop offset="0.649" stop-color="#B5B3AD"/>
<stop offset="1" stop-color="#FCFCFC"/>
</radialGradient>
<radialGradient id="paint26_radial_23_7533" cx="0" cy="0" r="1" gradientUnits="userSpaceOnUse" gradientTransform="translate(162.51 88.6818) rotate(163.242) scale(37.4812 58.8085)">
<stop stop-color="#CACAC9"/>
<stop offset="0.311" stop-color="#B0AEAB" stop-opacity="0.941"/>
<stop offset="0.688" stop-color="#6C6B66" stop-opacity="0.949"/>
<stop offset="1" stop-color="#D6D6D4" stop-opacity="0.966"/>
</radialGradient>
<radialGradient id="paint27_radial_23_7533" cx="0" cy="0" r="1" gradientUnits="userSpaceOnUse" gradientTransform="translate(159.595 94.4927) rotate(165) scale(35.226 18.4152)">
<stop stop-color="white"/>
<stop offset="1" stop-color="white" stop-opacity="0"/>
</radialGradient>
<radialGradient id="paint28_radial_23_7533" cx="0" cy="0" r="1" gradientUnits="userSpaceOnUse" gradientTransform="translate(-nan -nan) rotate(-nan) scale(-nan -nan)">
<stop stop-color="white"/>
<stop offset="1" stop-color="white" stop-opacity="0"/>
</radialGradient>
<linearGradient id="paint29_linear_23_7533" x1="584.448" y1="277.305" x2="661.247" y2="256.727" gradientUnits="userSpaceOnUse">
<stop stop-color="#241F31"/>
<stop offset="0.076" stop-color="#5E5C64"/>
<stop offset="0.151" stop-color="#241F31"/>
<stop offset="0.849" stop-color="#241F31"/>
<stop offset="0.925" stop-color="#5E5C64"/>
<stop offset="1" stop-color="#241F31"/>
</linearGradient>
<linearGradient id="paint30_linear_23_7533" x1="37.3517" y1="166.021" x2="-30.2631" y2="184.139" gradientUnits="userSpaceOnUse">
<stop stop-color="#8FF0A4"/>
<stop offset="1" stop-color="#62A0EA"/>
</linearGradient>
<clipPath id="clip0_23_7533">
<rect width="600" height="300" fill="white"/>
</clipPath>
</defs>
</svg>
