<svg width="600" height="300" viewBox="0 0 600 300" fill="none" xmlns="http://www.w3.org/2000/svg">
<g clip-path="url(#clip0_23_7723)">
<path d="M356 13H501C505.243 13 509.313 14.6857 512.314 17.6863C515.314 20.6869 517 24.7565 517 29V109C517 113.243 515.314 117.313 512.314 120.314C509.313 123.314 505.243 125 501 125H356C353.899 125 351.818 124.586 349.877 123.782C347.936 122.978 346.172 121.799 344.686 120.314C343.201 118.828 342.022 117.064 341.218 115.123C340.414 113.182 340 111.101 340 109V29C340 26.8988 340.414 24.8183 341.218 22.8771C342.022 20.9359 343.201 19.172 344.686 17.6863C346.172 16.2006 347.936 15.022 349.877 14.2179C351.818 13.4139 353.899 13 356 13Z" fill="#3E3D41"/>
<path d="M356 15H501C505.243 15 509.313 16.6857 512.314 19.6863C515.314 22.6869 517 26.7565 517 31V50H340V31C340 28.8988 340.414 26.8183 341.218 24.8771C342.022 22.9359 343.201 21.172 344.686 19.6863C346.172 18.2006 347.936 17.022 349.877 16.2179C351.818 15.4139 353.899 15 356 15Z" fill="#1C1C1C"/>
<path d="M356 13H501C505.243 13 509.313 14.6857 512.314 17.6863C515.314 20.6869 517 24.7565 517 29V48H340V29C340 26.8988 340.414 24.8183 341.218 22.8771C342.022 20.9359 343.201 19.172 344.686 17.6863C346.172 16.2006 347.936 15.022 349.877 14.2179C351.818 13.4139 353.899 13 356 13Z" fill="#292929"/>
<path d="M492.98 25.2801C492.662 25.2809 492.357 25.4074 492.132 25.6321C491.906 25.858 491.779 26.1645 491.779 26.4841C491.779 26.8036 491.906 27.1101 492.132 27.3361L495.296 30.5001L492.132 33.6641C491.906 33.89 491.779 34.1965 491.779 34.5161C491.779 34.8356 491.906 35.1421 492.132 35.3681C492.358 35.594 492.664 35.7209 492.984 35.7209C493.304 35.7209 493.61 35.594 493.836 35.3681L497 32.2041L500.164 35.3681C500.39 35.594 500.696 35.7209 501.016 35.7209C501.335 35.7209 501.642 35.594 501.868 35.3681C502.094 35.1421 502.221 34.8356 502.221 34.5161C502.221 34.1965 502.094 33.89 501.868 33.6641L498.704 30.5001L501.868 27.3361C502.094 27.1101 502.221 26.8036 502.221 26.4841C502.221 26.1645 502.094 25.858 501.868 25.6321C501.755 25.5196 501.622 25.4305 501.475 25.3699C501.328 25.3093 501.17 25.2784 501.011 25.2791C500.693 25.2804 500.389 25.4073 500.164 25.6321L497 28.7961L493.836 25.6321C493.723 25.5196 493.59 25.4305 493.443 25.3699C493.296 25.3093 493.138 25.2784 492.979 25.2791L492.98 25.2801Z" fill="#77767B"/>
<path d="M356.365 230.504L241.285 229.475L66.5 -29.9139L535.4 -20.7159L356.365 230.504Z" fill="url(#paint0_radial_23_7723)"/>
<path d="M365.75 231.5L365.59 291.823L663.72 168.527L601.794 -21.463L365.75 231.5Z" fill="url(#paint1_radial_23_7723)"/>
<path d="M233.752 231.5L233.912 291.823L-64.218 148.103L15.79 -26.343L233.752 231.5Z" fill="url(#paint2_radial_23_7723)"/>
<path opacity="0.88" d="M217.641 174.163L146.202 39.196" stroke="url(#paint3_radial_23_7723)" stroke-width="4" stroke-linecap="round"/>
<path d="M335.509 201.736L382.956 30.127" stroke="url(#paint4_radial_23_7723)" stroke-width="6" stroke-linecap="round"/>
<path d="M432.434 93.041C434.7 93.041 436.537 91.204 436.537 88.938C436.537 86.6719 434.7 84.835 432.434 84.835C430.168 84.835 428.331 86.6719 428.331 88.938C428.331 91.204 430.168 93.041 432.434 93.041Z" fill="white" fill-opacity="0.226961"/>
<path d="M265.211 157.68C267.477 157.68 269.314 155.843 269.314 153.577C269.314 151.311 267.477 149.474 265.211 149.474C262.945 149.474 261.108 151.311 261.108 153.577C261.108 155.843 262.945 157.68 265.211 157.68Z" fill="white" fill-opacity="0.226961"/>
<path d="M225.582 116.485C227.848 116.485 229.685 114.648 229.685 112.382C229.685 110.116 227.848 108.279 225.582 108.279C223.316 108.279 221.479 110.116 221.479 112.382C221.479 114.648 223.316 116.485 225.582 116.485Z" fill="white" fill-opacity="0.657828"/>
<path d="M213.123 233.962L116.477 141.475" stroke="#99C1F1" stroke-width="6" stroke-linecap="round"/>
<path d="M260.398 201.52L215.683 29.1801" stroke="url(#paint5_radial_23_7723)" stroke-width="6" stroke-linecap="round"/>
<path d="M87.282 30.8199H170.282C174.525 30.8199 178.595 32.5057 181.596 35.5062C184.596 38.5068 186.282 42.5765 186.282 46.8199V149.82C186.282 154.063 184.596 158.133 181.596 161.134C178.595 164.134 174.525 165.82 170.282 165.82H87.282C83.0385 165.82 78.9689 164.134 75.9683 161.134C72.9677 158.133 71.282 154.063 71.282 149.82V46.8199C71.282 42.5765 72.9677 38.5068 75.9683 35.5062C78.9689 32.5057 83.0385 30.8199 87.282 30.8199Z" fill="#F6F5F4"/>
<path d="M87.282 32.8199H170.282C172.383 32.8199 174.464 33.2338 176.405 34.0379C178.346 34.8419 180.11 36.0205 181.596 37.5062C183.081 38.992 184.26 40.7558 185.064 42.697C185.868 44.6382 186.282 46.7188 186.282 48.8199V67.8199H71.282V48.8199C71.282 44.5765 72.9677 40.5068 75.9683 37.5062C78.9689 34.5057 83.0385 32.8199 87.282 32.8199Z" fill="#C0BFBC"/>
<path d="M87.282 30.8199H170.282C174.525 30.8199 178.595 32.5057 181.596 35.5062C184.596 38.5068 186.282 42.5765 186.282 46.8199V65.8199H71.282V46.8199C71.282 42.5765 72.9677 38.5068 75.9683 35.5062C78.9689 32.5057 83.0385 30.8199 87.282 30.8199Z" fill="#DEDDDA"/>
<path d="M162.262 43.0999C161.944 43.1007 161.639 43.2272 161.414 43.4519C161.188 43.6779 161.061 43.9843 161.061 44.3039C161.061 44.6234 161.188 44.9299 161.414 45.1559L164.578 48.3199L161.414 51.4839C161.188 51.7099 161.061 52.0163 161.061 52.3359C161.061 52.6554 161.188 52.9619 161.414 53.1879C161.64 53.4138 161.946 53.5408 162.266 53.5408C162.585 53.5408 162.892 53.4138 163.118 53.1879L166.282 50.0239L169.446 53.1879C169.672 53.4138 169.978 53.5408 170.298 53.5408C170.617 53.5408 170.924 53.4138 171.15 53.1879C171.376 52.9619 171.503 52.6554 171.503 52.3359C171.503 52.0163 171.376 51.7099 171.15 51.4839L167.986 48.3199L171.15 45.1559C171.376 44.9299 171.503 44.6234 171.503 44.3039C171.503 43.9843 171.376 43.6779 171.15 43.4519C171.037 43.3394 170.904 43.2503 170.757 43.1897C170.61 43.1291 170.452 43.0982 170.293 43.0989C169.975 43.1002 169.671 43.2271 169.446 43.4519L166.282 46.6159L163.118 43.4519C163.005 43.3394 162.872 43.2503 162.725 43.1897C162.578 43.1291 162.42 43.0982 162.261 43.0989L162.262 43.0999Z" fill="#77767B"/>
<path opacity="0.7" d="M181.123 232.962L95.74 180.134" stroke="#3584E4" stroke-width="6" stroke-linecap="round"/>
<path d="M239.56 197.781L197.26 93.7581" stroke="#F8E45C" stroke-width="6" stroke-linecap="round"/>
<path d="M279.068 164.98L271.8 39.976L279.068 164.98Z" fill="#F5C211"/>
<path d="M279.068 164.98L271.8 39.976" stroke="url(#paint6_radial_23_7723)" stroke-width="6" stroke-linecap="round"/>
<path opacity="0.7" d="M375.74 238.962L471.123 159.134" stroke="#F8E45C" stroke-width="6" stroke-linecap="round"/>
<path d="M407.03 247.874L591.435 143.99" stroke="url(#paint7_radial_23_7723)" stroke-width="6" stroke-linecap="round"/>
<mask id="mask0_23_7723" style="mask-type:luminance" maskUnits="userSpaceOnUse" x="230" y="192" width="139" height="106">
<path d="M359.33 192.224H239.797C234.714 192.224 230.593 196.344 230.593 201.428V288.586C230.593 293.67 234.714 297.791 239.797 297.791H359.33C364.414 297.791 368.535 293.67 368.535 288.586V201.428C368.535 196.344 364.414 192.224 359.33 192.224Z" fill="white"/>
</mask>
<g mask="url(#mask0_23_7723)">
<path d="M354.652 227.801H244.475C236.808 227.801 230.593 234.016 230.593 241.683V283.907C230.593 291.574 236.808 297.789 244.475 297.789H354.652C362.319 297.789 368.535 291.574 368.535 283.907V241.683C368.535 234.016 362.319 227.801 354.652 227.801Z" fill="#241F31"/>
<path d="M353.636 233.495H245.49C240.407 233.495 236.286 237.616 236.286 242.7V288.501C236.286 293.585 240.407 297.706 245.49 297.706H353.636C358.719 297.706 362.84 293.585 362.84 288.501V242.7C362.84 237.616 358.719 233.495 353.636 233.495Z" fill="url(#paint8_linear_23_7723)"/>
<path d="M353.636 227.366H245.49C240.407 227.366 236.286 231.487 236.286 236.57V282.372C236.286 287.455 240.407 291.576 245.49 291.576H353.636C358.719 291.576 362.84 287.455 362.84 282.372V236.57C362.84 231.487 358.719 227.366 353.636 227.366Z" fill="#77767B"/>
<path d="M353.636 225.475H245.49C240.407 225.475 236.286 229.596 236.286 234.68V280.481C236.286 285.565 240.407 289.686 245.49 289.686H353.636C358.719 289.686 362.84 285.565 362.84 280.481V234.68C362.84 229.596 358.719 225.475 353.636 225.475Z" fill="#5E5C64"/>
<path d="M308.182 225.616C305.68 229.919 304.672 234.929 305.314 239.865C305.956 244.801 308.213 249.386 311.733 252.906C321.035 260.331 334.689 258.278 341.393 248.442L359.366 227.394C357.975 226.482 356.246 225.489 353.792 225.489L308.182 225.616Z" fill="black" fill-opacity="0.167857"/>
</g>
<path d="M258.188 255.852H255.045C251.962 255.852 249.463 258.351 249.463 261.434V261.436C249.463 264.519 251.962 267.018 255.045 267.018H258.188C261.271 267.018 263.77 264.519 263.77 261.436V261.434C263.77 258.351 261.271 255.852 258.188 255.852Z" fill="#3D3846"/>
<path d="M274.448 255.852H271.305C268.222 255.852 265.723 258.351 265.723 261.434V261.436C265.723 264.519 268.222 267.018 271.305 267.018H274.448C277.531 267.018 280.03 264.519 280.03 261.436V261.434C280.03 258.351 277.531 255.852 274.448 255.852Z" fill="#3D3846"/>
<path d="M258.188 269.085H255.045C251.962 269.085 249.463 271.584 249.463 274.667V274.669C249.463 277.752 251.962 280.251 255.045 280.251H258.188C261.271 280.251 263.77 277.752 263.77 274.669V274.667C263.77 271.584 261.271 269.085 258.188 269.085Z" fill="#3D3846"/>
<path d="M274.448 269.085H271.305C268.222 269.085 265.723 271.584 265.723 274.667V274.669C265.723 277.752 268.222 280.251 271.305 280.251H274.448C277.531 280.251 280.03 277.752 280.03 274.669V274.667C280.03 271.584 277.531 269.085 274.448 269.085Z" fill="#3D3846"/>
<path d="M385.745 251.105C388.011 251.105 389.848 249.268 389.848 247.002C389.848 244.736 388.011 242.899 385.745 242.899C383.479 242.899 381.642 244.736 381.642 247.002C381.642 249.268 383.479 251.105 385.745 251.105Z" fill="white" fill-opacity="0.657828"/>
<path d="M367.754 170.689L382.71 214.8C384.874 221.183 389.427 226.48 395.413 229.578C401.398 232.676 408.352 233.335 414.813 231.416L468.779 215.396L470.274 153.141L403.607 129.189L367.754 170.689Z" fill="#C0BFBC"/>
<path d="M396.01 148.514L409.848 189.318C410.748 191.975 412.643 194.179 415.134 195.469C417.625 196.759 420.519 197.034 423.208 196.236L471.47 181.909L472.586 135.407L422.791 117.516L396.01 148.514Z" fill="#9A9996"/>
<path d="M418.832 79.999L306.288 216.369C302.717 220.696 300.886 226.199 301.154 231.803C301.422 237.408 303.769 242.711 307.736 246.678C309.936 248.435 312.476 249.719 315.195 250.448C317.915 251.178 320.756 251.339 323.54 250.92C326.324 250.501 328.992 249.512 331.376 248.014C333.761 246.516 335.81 244.543 337.396 242.216L386.776 184.748C388.305 182.968 390.285 181.633 392.508 180.883C394.731 180.132 397.115 179.994 399.41 180.483L440.408 189.224C442.592 189.689 444.551 190.891 445.955 192.627C447.36 194.363 448.127 196.529 448.126 198.762V233.585C448.126 236.42 448.684 239.227 449.769 241.846C450.854 244.465 452.445 246.845 454.449 248.849C456.454 250.854 458.834 252.444 461.453 253.528C464.072 254.613 466.879 255.171 469.714 255.171C472.657 254.936 475.525 254.125 478.155 252.782C480.784 251.439 483.123 249.591 485.039 247.344C486.954 245.097 488.408 242.495 489.318 239.686C490.227 236.877 490.575 233.916 490.34 230.973V149.297C490.34 146.925 490.807 144.576 491.715 142.384C492.622 140.192 493.953 138.201 495.63 136.523L498.923 133.231C500.486 131.668 501.698 129.789 502.477 127.72C503.256 125.651 503.585 123.439 503.442 121.233C503.298 119.027 502.686 116.876 501.645 114.926C500.604 112.975 499.16 111.269 497.407 109.921L453.416 76.088C448.269 72.1296 441.786 70.3249 435.334 71.0546C428.882 71.7842 422.965 74.9912 418.832 79.999Z" fill="white"/>
<path d="M501.755 115.133C501.018 116.566 500.063 117.876 498.923 119.016L495.63 122.309C492.243 125.696 490.341 130.289 490.34 135.079V149.297C490.34 144.507 492.243 139.913 495.63 136.526L498.923 133.233C501.251 130.905 502.78 127.898 503.289 124.645C503.798 121.392 503.261 118.061 501.755 115.133ZM396.683 165.98C394.802 165.98 392.942 166.387 391.233 167.173C389.523 167.958 388.003 169.103 386.777 170.53L337.397 228C330.694 237.836 317.037 239.89 307.736 232.462C305.253 229.979 303.385 226.951 302.279 223.618C300.96 227.59 300.772 231.85 301.735 235.922C302.699 239.995 304.777 243.719 307.736 246.678C317.038 254.108 330.694 252.053 337.398 242.216L386.778 184.746C388.307 182.967 390.287 181.633 392.509 180.883C394.732 180.133 397.116 179.995 399.41 180.484L440.41 189.226C442.57 189.687 444.51 190.867 445.912 192.574C447.314 194.281 448.095 196.413 448.127 198.622L453.583 184.546C453.583 182.313 452.817 180.148 451.413 178.412C450.008 176.676 448.051 175.475 445.867 175.009L399.41 166.267C398.514 166.076 397.599 165.98 396.683 165.98ZM448.127 198.622V233.582C448.127 245.506 457.792 255.172 469.714 255.171C482.092 254.185 491.327 243.351 490.341 230.971V220.311C489.471 231.326 480.727 240.076 469.714 240.954C462.197 240.954 452.938 234.122 453.074 223.644L453.543 187.699L448.127 198.622Z" fill="#EEECEA"/>
<path d="M288 60H258C246.402 60 237 69.402 237 81C237 92.598 246.402 102 258 102H288C299.598 102 309 92.598 309 81C309 69.402 299.598 60 288 60Z" fill="#3584E4"/>
<path fill-rule="evenodd" clip-rule="evenodd" d="M237.019 80.25C237.2 85.6894 239.492 90.8448 243.407 94.6244C247.323 98.4041 252.557 100.511 257.999 100.5H280.5V102H258C246.366 102 237 92.634 237 81C237 80.748 237.01 80.5 237.019 80.25ZM308.982 80.304C308.989 80.536 309 80.767 309 81C309.011 86.0529 307.196 90.9395 303.888 94.7592C300.58 98.5789 296.003 101.074 291 101.785V100.285C295.865 99.5932 300.332 97.2129 303.619 93.5604C306.906 89.9078 308.805 85.2148 308.982 80.304Z" fill="#1A5FB4"/>
<path d="M270 39H240C228.402 39 219 48.402 219 60C219 71.598 228.402 81 240 81H270C281.598 81 291 71.598 291 60C291 48.402 281.598 39 270 39Z" fill="#F6F5F4"/>
<path d="M237 60C237 57.5147 239.015 55.5 241.5 55.5C243.985 55.5 246 57.5147 246 60C246 62.4853 243.985 64.5 241.5 64.5C239.015 64.5 237 62.4853 237 60Z" fill="url(#paint9_linear_23_7723)"/>
<path d="M250.5 60C250.5 57.5147 252.515 55.5 255 55.5C257.485 55.5 259.5 57.5147 259.5 60C259.5 62.4853 257.485 64.5 255 64.5C252.515 64.5 250.5 62.4853 250.5 60Z" fill="url(#paint10_linear_23_7723)"/>
<path d="M264 60C264 57.5147 266.015 55.5 268.5 55.5C270.985 55.5 273 57.5147 273 60C273 62.4853 270.985 64.5 268.5 64.5C266.015 64.5 264 62.4853 264 60Z" fill="url(#paint11_linear_23_7723)"/>
<path fill-rule="evenodd" clip-rule="evenodd" d="M290.98 59.25C290.799 64.6894 288.508 69.8448 284.592 73.6244C280.676 77.4041 275.442 79.5113 270 79.5H247.5V81H270C281.634 81 291 71.634 291 60C291 59.748 290.989 59.5 290.98 59.25ZM219.018 59.304C219.011 59.536 219 59.767 219 60C218.989 65.0529 220.805 69.9395 224.112 73.7592C227.42 77.5789 231.997 80.0741 237 80.785V79.285C232.135 78.5932 227.668 76.2129 224.381 72.5604C221.094 68.9078 219.195 64.2148 219.018 59.304Z" fill="#C0BFBC"/>
<path fill-rule="evenodd" clip-rule="evenodd" d="M237 79.5V90L249.409 79.5H237Z" fill="#C0BFBC"/>
<path fill-rule="evenodd" clip-rule="evenodd" d="M237 78V88.5L249.409 78H237Z" fill="#F6F5F4"/>
<path fill-rule="evenodd" clip-rule="evenodd" d="M291 100.5V111L278.591 100.5H291Z" fill="#1A5FB4"/>
<path fill-rule="evenodd" clip-rule="evenodd" d="M291 99V109.5L278.591 99H291Z" fill="#3584E4"/>
<path d="M193.067 254.752C195.333 254.752 197.17 252.915 197.17 250.649C197.17 248.383 195.333 246.546 193.067 246.546C190.801 246.546 188.964 248.383 188.964 250.649C188.964 252.915 190.801 254.752 193.067 254.752Z" fill="white" fill-opacity="0.540577"/>
<path d="M296.968 126.209C301.762 126.209 305.649 122.322 305.649 117.528C305.649 112.734 301.762 108.847 296.968 108.847C292.174 108.847 288.287 112.734 288.287 117.528C288.287 122.322 292.174 126.209 296.968 126.209Z" fill="white" fill-opacity="0.477471"/>
<path d="M133.398 195.694C138.192 195.694 142.079 191.807 142.079 187.013C142.079 182.219 138.192 178.332 133.398 178.332C128.604 178.332 124.717 182.219 124.717 187.013C124.717 191.807 128.604 195.694 133.398 195.694Z" fill="white" fill-opacity="0.477471"/>
<path d="M168.582 198.485C170.848 198.485 172.685 196.648 172.685 194.382C172.685 192.116 170.848 190.279 168.582 190.279C166.316 190.279 164.479 192.116 164.479 194.382C164.479 196.648 166.316 198.485 168.582 198.485Z" fill="white" fill-opacity="0.657828"/>
<path d="M324.854 161.618C327.12 161.618 328.957 159.781 328.957 157.515C328.957 155.249 327.12 153.412 324.854 153.412C322.588 153.412 320.751 155.249 320.751 157.515C320.751 159.781 322.588 161.618 324.854 161.618Z" fill="white" fill-opacity="0.657828"/>
<path d="M512.308 242.794C520.97 242.794 527.992 235.772 527.992 227.11C527.992 218.448 520.97 211.426 512.308 211.426C503.646 211.426 496.624 218.448 496.624 227.11C496.624 235.772 503.646 242.794 512.308 242.794Z" fill="white" fill-opacity="0.367883"/>
<path d="M291.156 203.822C293.422 203.822 295.259 201.985 295.259 199.719C295.259 197.453 293.422 195.616 291.156 195.616C288.89 195.616 287.053 197.453 287.053 199.719C287.053 201.985 288.89 203.822 291.156 203.822Z" fill="white" fill-opacity="0.657828"/>
<path d="M103 197.804V208.196L94 213.392L85 208.196V197.803L94 192.607L103 197.804Z" fill="#3D3846"/>
<path d="M76 192.608V213.392" stroke="#33D17A" stroke-width="18"/>
<path d="M94 223.785L76 213.392" stroke="#3584E4" stroke-width="18"/>
<path d="M94 223.785L112 213.392" stroke="#A347BA" stroke-width="18"/>
<path d="M112 192.607V213.392" stroke="#E01B24" stroke-width="18"/>
<path d="M112 192.607L94 182.215" stroke="#FF7800" stroke-width="18"/>
<path d="M76 192.608L94 182.215" stroke="#F6D32D" stroke-width="18"/>
<path d="M94 232.785C96.3869 232.785 98.6761 231.837 100.364 230.149C102.052 228.461 103 226.172 103 223.785C102.998 222.333 102.644 220.904 101.97 219.618C101.295 218.333 100.32 217.229 99.127 216.402L94.499 213.681L94 213.393C92.568 212.583 91.1456 211.756 89.733 210.913C88.3038 210.143 87.1094 209.002 86.2762 207.609C85.443 206.216 85.002 204.623 85 203V223.784C85 226.171 85.9482 228.46 87.636 230.148C89.3239 231.836 91.6131 232.785 94 232.785ZM85.033 223.059C85.044 222.918 85.066 222.778 85.084 222.638C85.064 222.778 85.047 222.918 85.033 223.059ZM85.502 220.853C85.515 220.815 85.524 220.776 85.538 220.738H85.54L85.502 220.853Z" fill="url(#paint12_linear_23_7723)"/>
<path d="M94 173.215C91.6131 173.215 89.3239 174.163 87.636 175.851C85.9482 177.539 85 179.828 85 182.215C85.0021 183.667 85.3554 185.096 86.0296 186.382C86.7038 187.667 87.679 188.771 88.872 189.598L93.501 192.319L94 192.607C95.4317 193.417 96.8538 194.244 98.266 195.087C99.6954 195.856 100.89 196.998 101.723 198.391C102.557 199.784 102.998 201.377 103 203V182.215C103 179.828 102.052 177.539 100.364 175.851C98.6761 174.163 96.3869 173.215 94 173.215ZM102.966 182.941C102.954 183.083 102.934 183.222 102.916 183.362C102.936 183.222 102.953 183.082 102.966 182.941ZM102.498 185.148C102.484 185.185 102.475 185.224 102.461 185.262H102.459L102.498 185.148Z" fill="url(#paint13_linear_23_7723)"/>
<path d="M68.205 217.892C68.7959 218.916 69.5826 219.813 70.5203 220.533C71.458 221.252 72.5283 221.78 73.67 222.086C74.8117 222.392 76.0025 222.47 77.1744 222.316C78.3463 222.162 79.4764 221.778 80.5 221.187C81.7561 220.459 82.8175 219.438 83.5936 218.211C84.3697 216.984 84.8375 215.588 84.957 214.141L84.999 208.773V208.197C84.984 206.604 84.991 204.765 85.014 203.261C84.9658 201.639 85.3572 200.034 86.1468 198.616C86.9363 197.198 88.0946 196.02 89.499 195.206L84.999 197.804L75.999 203.001L73.965 204.175L71.5 205.598C69.4329 206.792 67.9246 208.757 67.3069 211.063C66.6892 213.368 67.0116 215.825 68.205 217.892ZM72.145 205.264C72.274 205.204 72.405 205.151 72.535 205.097C72.4037 205.15 72.2737 205.205 72.145 205.264ZM74.29 204.567C74.329 204.56 74.367 204.548 74.407 204.541L74.409 204.542L74.29 204.567Z" fill="url(#paint14_linear_23_7723)"/>
<path d="M119.794 188.108C118.601 186.041 116.635 184.532 114.329 183.914C112.024 183.296 109.567 183.62 107.5 184.813C106.244 185.541 105.182 186.561 104.406 187.788C103.63 189.015 103.162 190.411 103.042 191.858L103 197.228V197.803C103.014 199.448 103.009 201.094 102.985 202.739C103.033 204.361 102.642 205.966 101.852 207.384C101.063 208.802 99.9044 209.981 98.5 210.794L103 208.196L112 202.999L114.034 201.825L116.499 200.402C118.566 199.209 120.075 197.243 120.693 194.937C121.311 192.632 120.987 190.175 119.794 188.108ZM115.854 200.736C115.726 200.796 115.595 200.849 115.464 200.903C115.596 200.85 115.726 200.795 115.854 200.736ZM113.71 201.433C113.67 201.441 113.632 201.452 113.592 201.459L113.712 201.433H113.71Z" fill="url(#paint15_linear_23_7723)"/>
<path d="M68.205 188.108C67.0117 190.175 66.6884 192.632 67.3063 194.937C67.9243 197.243 69.4328 199.209 71.5 200.402C72.7583 201.126 74.173 201.535 75.6235 201.594C77.074 201.653 78.5172 201.36 79.83 200.74L84.5 198.092L85 197.804C86.4173 196.969 87.8444 196.15 89.281 195.349C90.6618 194.496 92.2474 194.032 93.8702 194.007C95.4929 193.982 97.0923 194.396 98.499 195.205L93.999 192.607L84.999 187.411L82.965 186.236L80.5 184.813C79.4764 184.222 78.3464 183.838 77.1745 183.684C76.0026 183.53 74.8117 183.608 73.67 183.914C72.5283 184.22 71.458 184.748 70.5203 185.467C69.5827 186.187 68.7959 187.084 68.205 188.108ZM81.112 185.205C81.228 185.286 81.339 185.374 81.451 185.46C81.3397 185.372 81.2273 185.287 81.112 185.205ZM82.788 186.714C82.814 186.744 82.843 186.772 82.868 186.802V186.805L82.788 186.714Z" fill="url(#paint16_linear_23_7723)"/>
<path d="M119.794 217.892C120.987 215.825 121.311 213.368 120.693 211.063C120.075 208.757 118.566 206.791 116.499 205.598C115.241 204.874 113.826 204.465 112.375 204.406C110.925 204.347 109.482 204.64 108.169 205.26L103.499 207.908L103 208.196C101.582 209.031 100.155 209.85 98.718 210.652C97.3372 211.505 95.7514 211.968 94.1287 211.993C92.506 212.019 90.9066 211.605 89.5 210.795L94 213.393L103 218.589L105.034 219.763L107.499 221.187C108.523 221.778 109.653 222.162 110.825 222.316C111.996 222.47 113.187 222.392 114.329 222.086C115.471 221.78 116.541 221.252 117.479 220.533C118.416 219.813 119.203 218.916 119.794 217.892ZM106.888 220.795C106.771 220.714 106.661 220.626 106.548 220.54C106.66 220.628 106.773 220.713 106.888 220.795ZM105.211 219.286C105.185 219.256 105.156 219.228 105.131 219.198V219.195L105.211 219.286Z" fill="url(#paint17_linear_23_7723)"/>
<path d="M85 197.804V208.196L94 213.392L103 208.196V197.803L94 192.607L85 197.804Z" fill="#241F31"/>
<mask id="mask1_23_7723" style="mask-type:luminance" maskUnits="userSpaceOnUse" x="505" y="134" width="56" height="52">
<path d="M509 142H517L525 134L533 142H557C559.216 142 561 143.784 561 146V182C561 184.216 559.216 186 557 186H533L525 178L517 186H509C506.784 186 505 184.216 505 182V146C505 143.784 506.801 141.725 509 142Z" fill="white"/>
</mask>
<g mask="url(#mask1_23_7723)">
<path d="M533 176H553V142H565V190H533L525 182L517 190H501V176H517L525 168L533 176Z" fill="#CDAB8F"/>
<path d="M501 175.997L517 176.003V142H501V175.997Z" fill="#55A7EB"/>
<path d="M519 140V174L525 168L533 176.007H551L553 174V142H533L525 134L519 140Z" fill="#2EC27E"/>
<path d="M550.987 142.014V171.764C550.987 173.017 549.816 174.007 548.869 174.007H533L525 166.074L520.078 171.016L520 134.007H517V174L501 174.007V178.02H516.875L525 170L533 178.02H548.869C552.172 178.02 554.864 175.264 555 171.764V142.014H550.987Z" fill="white"/>
<path opacity="0.3" d="M517 193.997L525 194.003V134H517V193.997Z" fill="white"/>
<path opacity="0.15" d="M525 193.997L533 194.003V134H525V193.997Z" fill="black"/>
</g>
<path d="M553 146C553 149.314 550.314 152 547 152C543.686 152 541 149.314 541 146C541 142.686 543.686 140 547 140C550.314 140 553 142.686 553 146Z" fill="url(#paint18_linear_23_7723)"/>
<path d="M547 133C545.161 132.998 543.34 133.359 541.641 134.062C539.942 134.766 538.399 135.799 537.1 137.101C531.633 142.568 531.633 151.432 537.1 156.9L547 166.8C547 166.8 553.91 159.888 556.899 156.9C562.367 151.432 562.367 142.568 556.899 137.101C555.601 135.799 554.058 134.766 552.359 134.062C550.66 133.359 548.839 132.998 547 133ZM547 142C548.326 142 549.598 142.527 550.536 143.464C551.473 144.402 552 145.674 552 147C552 148.326 551.473 149.598 550.536 150.536C549.598 151.473 548.326 152 547 152C545.674 152 544.402 151.473 543.464 150.536C542.527 149.598 542 148.326 542 147C542 145.674 542.527 144.402 543.464 143.464C544.402 142.527 545.674 142 547 142Z" fill="#A51D2D"/>
<path d="M547 132C545.161 131.998 543.34 132.359 541.641 133.062C539.942 133.766 538.399 134.799 537.1 136.101C531.633 141.568 531.633 150.432 537.1 155.9L547 165.8C547 165.8 553.91 158.888 556.899 155.9C562.367 150.432 562.367 141.568 556.899 136.101C555.601 134.799 554.058 133.766 552.359 133.062C550.66 132.359 548.839 131.998 547 132ZM547 141C548.326 141 549.598 141.527 550.536 142.464C551.473 143.402 552 144.674 552 146C552 147.326 551.473 148.598 550.536 149.536C549.598 150.473 548.326 151 547 151C545.674 151 544.402 150.473 543.464 149.536C542.527 148.598 542 147.326 542 146C542 144.674 542.527 143.402 543.464 142.464C544.402 141.527 545.674 141 547 141Z" fill="url(#paint19_linear_23_7723)"/>
<path d="M208.5 184H235.5C237.157 184 238.5 182.657 238.5 181V175.656C238.5 173.999 237.157 172.656 235.5 172.656H208.5C206.843 172.656 205.5 173.999 205.5 175.656V181C205.5 182.657 206.843 184 208.5 184Z" fill="#1A5FB4"/>
<path d="M208.5 183.25H235.5C237.157 183.25 238.5 181.907 238.5 180.25V171.25C238.5 169.593 237.157 168.25 235.5 168.25H208.5C206.843 168.25 205.5 169.593 205.5 171.25V180.25C205.5 181.907 206.843 183.25 208.5 183.25Z" fill="url(#paint20_linear_23_7723)"/>
<path d="M208.922 181.75H235.078C236.968 181.75 238.5 180.218 238.5 178.328V145.375C238.5 143.485 236.968 141.953 235.078 141.953H208.922C207.032 141.953 205.5 143.485 205.5 145.375V178.328C205.5 180.218 207.032 181.75 208.922 181.75Z" fill="#F6F5F4"/>
<mask id="mask2_23_7723" style="mask-type:luminance" maskUnits="userSpaceOnUse" x="228" y="172" width="11" height="10">
<path d="M238.501 174.251L231.001 181.751H228.858V172.108H238.501V174.251Z" fill="white"/>
</mask>
<g mask="url(#mask2_23_7723)">
<path d="M231.001 180.894V177.251C231.001 175.594 232.344 174.251 234.001 174.251H237.644C239.301 174.251 240.644 175.594 240.644 177.251V180.894C240.644 182.551 239.301 183.894 237.644 183.894H234.001C232.344 183.894 231.001 182.551 231.001 180.894Z" fill="url(#paint21_linear_23_7723)"/>
</g>
<path d="M208.922 142.703C208.472 142.702 208.027 142.79 207.611 142.961C207.196 143.133 206.818 143.385 206.5 143.703C206.182 144.021 205.93 144.399 205.758 144.814C205.587 145.23 205.499 145.675 205.5 146.125V148H237.496C237.846 148 238.182 147.947 238.5 147.85V146.125C238.501 145.675 238.413 145.23 238.242 144.814C238.07 144.399 237.818 144.021 237.5 143.703C237.182 143.385 236.804 143.133 236.389 142.961C235.973 142.79 235.528 142.702 235.078 142.703H208.922Z" fill="#1A5FB4"/>
<path d="M208.922 141.953C208.472 141.952 208.027 142.04 207.611 142.211C207.196 142.383 206.818 142.635 206.5 142.953C206.182 143.271 205.93 143.649 205.758 144.064C205.587 144.48 205.499 144.925 205.5 145.375V147.25H237.496C237.846 147.25 238.182 147.197 238.5 147.1V145.375C238.501 144.925 238.413 144.48 238.242 144.064C238.07 143.649 237.818 143.271 237.5 142.953C237.182 142.635 236.804 142.383 236.389 142.211C235.973 142.04 235.528 141.952 235.078 141.953H208.922Z" fill="#3584E4"/>
<path d="M216 158.5V160.75H208.5V151H235.5V158.5H216Z" fill="#DEDDDA"/>
<path d="M228 167.5V169.75H208.5V163H235.5V167.5H228Z" fill="#DEDDDA"/>
<path d="M213.878 169.128L218.121 173.371L240.47 151.022L236.227 146.779L213.878 169.128Z" fill="#FF881E"/>
<path d="M217.041 172.329L218.632 173.92L240.982 151.571L239.391 149.98L217.041 172.329Z" fill="#E66100"/>
<path d="M214.92 170.208L213.329 168.617L235.678 146.267L237.269 147.858L214.92 170.208Z" fill="#FFB367"/>
<path d="M234.197 147.749L239.5 153.052L241.622 150.931L236.318 145.628L234.197 147.749Z" fill="url(#paint22_linear_23_7723)"/>
<path d="M241.622 145.628C243.086 147.092 243.086 149.466 241.622 150.931C240.157 152.395 237.783 152.395 236.318 150.931C234.854 149.466 234.854 147.092 236.318 145.628C237.783 144.163 240.157 144.163 241.622 145.628Z" fill="url(#paint23_linear_23_7723)"/>
<path d="M212.249 174.999L218.651 173.901L213.348 168.598L212.249 174.999Z" fill="url(#paint24_linear_23_7723)"/>
<path d="M212.249 174.999L215.03 174.522L212.727 172.219L212.249 174.999Z" fill="#3D3846"/>
<path d="M233.139 148.808L238.443 154.111L240.564 151.99L235.261 146.686L233.139 148.808Z" fill="url(#paint25_linear_23_7723)"/>
<path d="M432.715 267.475C432.715 272.969 430.533 278.238 426.648 282.123C422.763 286.008 417.494 288.19 412 288.19C409.279 288.19 406.585 287.655 404.072 286.613C401.559 285.572 399.275 284.046 397.351 282.123C395.428 280.199 393.902 277.915 392.861 275.402C391.82 272.889 391.284 270.195 391.284 267.474C391.284 261.98 393.467 256.711 397.352 252.826C401.236 248.941 406.506 246.759 412 246.759C414.72 246.759 417.414 247.295 419.927 248.336C422.441 249.377 424.724 250.903 426.648 252.826C428.572 254.75 430.097 257.034 431.139 259.547C432.18 262.06 432.715 264.755 432.715 267.475Z" fill="black" fill-opacity="0.228048"/>
<path d="M429.72 264.722C429.72 254.935 421.787 247.001 412 247.001C402.213 247.001 394.279 254.935 394.279 264.722V265.355C394.279 275.142 402.213 283.075 412 283.075C421.787 283.075 429.72 275.142 429.72 265.355V264.722Z" fill="#D5D3CF"/>
<path d="M432.715 264.602C432.715 270.096 430.533 275.365 426.648 279.25C422.763 283.135 417.494 285.318 412 285.318C409.279 285.318 406.585 284.782 404.072 283.741C401.559 282.7 399.275 281.174 397.351 279.25C393.466 275.365 391.284 270.096 391.284 264.602C391.284 259.108 393.466 253.839 397.351 249.954C401.236 246.069 406.506 243.886 412 243.886C417.494 243.886 422.763 246.069 426.648 249.954C430.533 253.839 432.715 259.108 432.715 264.602Z" fill="#F6F5F4"/>
<path d="M412 281.81C421.437 281.81 429.087 274.159 429.087 264.722C429.087 255.285 421.437 247.634 412 247.634C402.562 247.634 394.912 255.285 394.912 264.722C394.912 274.159 402.562 281.81 412 281.81Z" fill="#3D3846"/>
<path opacity="0.2" fill-rule="evenodd" clip-rule="evenodd" d="M420.238 256.175C420.192 256.174 420.146 256.183 420.104 256.201C420.061 256.219 420.023 256.246 419.992 256.28L413.039 263.768C412.78 263.599 412.484 263.496 412.176 263.467C411.868 263.438 411.558 263.485 411.272 263.603L406.772 258.603C406.709 258.531 406.631 258.475 406.543 258.437C406.455 258.4 406.36 258.383 406.265 258.387C406.144 258.393 406.028 258.433 405.929 258.503C405.831 258.573 405.754 258.669 405.708 258.781C405.663 258.892 405.65 259.015 405.671 259.134C405.693 259.253 405.748 259.363 405.83 259.451L410.33 264.451C410.191 264.707 410.112 264.991 410.101 265.282C410.089 265.573 410.145 265.863 410.263 266.129C410.423 266.486 410.689 266.784 411.024 266.984L407.271 276.633C407.255 276.672 407.246 276.714 407.246 276.756C407.246 276.799 407.254 276.841 407.271 276.88C407.287 276.92 407.311 276.955 407.342 276.985C407.372 277.014 407.408 277.038 407.448 277.053C407.488 277.068 407.53 277.076 407.573 277.074C407.615 277.073 407.657 277.063 407.696 277.045C407.734 277.028 407.769 277.002 407.798 276.971C407.826 276.939 407.848 276.902 407.862 276.862L411.615 267.214C412.003 267.294 412.408 267.251 412.77 267.09C412.998 266.988 413.204 266.842 413.375 266.661C413.547 266.481 413.681 266.268 413.77 266.035C413.859 265.802 413.902 265.554 413.895 265.304C413.888 265.055 413.832 264.81 413.731 264.582C413.67 264.446 413.593 264.319 413.501 264.201L420.457 256.711C420.499 256.667 420.528 256.611 420.539 256.551C420.55 256.491 420.544 256.429 420.521 256.372C420.498 256.316 420.459 256.267 420.409 256.232C420.358 256.197 420.299 256.177 420.238 256.175V256.175Z" fill="black"/>
<path fill-rule="evenodd" clip-rule="evenodd" d="M412 264.722L406.304 258.393L412 264.722Z" fill="#C0BFBC"/>
<path d="M412 264.722L406.304 258.393" stroke="url(#paint26_linear_23_7723)" stroke-width="1.26774" stroke-linecap="round"/>
<path d="M412 264.722L420.227 255.862" stroke="white" stroke-width="0.63387" stroke-linecap="round"/>
<path d="M412 264.722L407.57 276.114" stroke="#ED333B" stroke-width="0.63387" stroke-linecap="round"/>
<path d="M412.775 266.456C413.732 266.028 414.162 264.906 413.735 263.948C413.308 262.991 412.185 262.56 411.228 262.988C410.27 263.415 409.84 264.537 410.267 265.495C410.694 266.453 411.817 266.883 412.775 266.456Z" fill="#D5D3CF"/>
<path d="M412.009 265.356C412.359 265.356 412.643 265.072 412.643 264.722C412.643 264.372 412.359 264.088 412.009 264.088C411.659 264.088 411.375 264.372 411.375 264.722C411.375 265.072 411.659 265.356 412.009 265.356Z" fill="#131C1A"/>
<path d="M412.009 265.355C412.358 265.355 412.642 265.071 412.642 264.722C412.642 264.372 412.358 264.089 412.009 264.089C411.659 264.089 411.376 264.372 411.376 264.722C411.376 265.071 411.659 265.355 412.009 265.355Z" fill="#131C1A"/>
<path opacity="0.1" d="M412 247.634C407.468 247.634 403.121 249.434 399.917 252.639C396.712 255.844 394.912 260.19 394.912 264.722C394.915 264.845 394.919 264.969 394.925 265.092C394.994 260.608 396.823 256.331 400.017 253.183C403.211 250.036 407.515 248.27 412 248.267C416.466 248.269 420.754 250.02 423.945 253.145C427.136 256.269 428.977 260.519 429.074 264.984C429.079 264.897 429.084 264.809 429.087 264.722C429.087 260.19 427.287 255.844 424.082 252.639C420.878 249.434 416.532 247.634 412 247.634Z" fill="black"/>
</g>
<defs>
<radialGradient id="paint0_radial_23_7723" cx="0" cy="0" r="1" gradientUnits="userSpaceOnUse" gradientTransform="translate(299.849 256.515) scale(326.968 196.876)">
<stop stop-color="#ED333B"/>
<stop offset="0.45" stop-color="#F6D32D" stop-opacity="0.871383"/>
<stop offset="0.78" stop-color="#8FF0A4" stop-opacity="0.411416"/>
<stop offset="1" stop-color="#8FF0A4" stop-opacity="0"/>
</radialGradient>
<radialGradient id="paint1_radial_23_7723" cx="0" cy="0" r="1" gradientUnits="userSpaceOnUse" gradientTransform="translate(349.608 279.31) rotate(-90) scale(263.905 251.204)">
<stop stop-color="#F9F06B"/>
<stop offset="0.459" stop-color="#33D17A" stop-opacity="0.867298"/>
<stop offset="0.675" stop-color="#4DC6E7" stop-opacity="0.705431"/>
<stop offset="1" stop-color="#65D6EA" stop-opacity="0.01"/>
</radialGradient>
<radialGradient id="paint2_radial_23_7723" cx="0" cy="0" r="1" gradientUnits="userSpaceOnUse" gradientTransform="translate(230.623 273.087) scale(225.421 299.561)">
<stop stop-color="#9141AC"/>
<stop offset="0.266" stop-color="#4E98E7" stop-opacity="0.846618"/>
<stop offset="0.486" stop-color="#67D5EA" stop-opacity="0.654148"/>
<stop offset="1" stop-color="#99D6F1" stop-opacity="0"/>
</radialGradient>
<radialGradient id="paint3_radial_23_7723" cx="0" cy="0" r="1" gradientUnits="userSpaceOnUse" gradientTransform="translate(239.641 221.162) scale(121.585 295.948)">
<stop stop-color="white"/>
<stop offset="1" stop-color="white" stop-opacity="0"/>
</radialGradient>
<radialGradient id="paint4_radial_23_7723" cx="0" cy="0" r="1" gradientUnits="userSpaceOnUse" gradientTransform="translate(288.654 200.748) rotate(162.829) scale(121.585 295.948)">
<stop stop-color="white"/>
<stop offset="1" stop-color="white" stop-opacity="0"/>
</radialGradient>
<radialGradient id="paint5_radial_23_7723" cx="0" cy="0" r="1" gradientUnits="userSpaceOnUse" gradientTransform="translate(219.327 224.092) rotate(132.829) scale(121.585 295.948)">
<stop stop-color="white"/>
<stop offset="1" stop-color="white" stop-opacity="0"/>
</radialGradient>
<radialGradient id="paint6_radial_23_7723" cx="0" cy="0" r="1" gradientUnits="userSpaceOnUse" gradientTransform="translate(279.071 164.983) rotate(-2.91772) scale(67.2301 123.061)">
<stop stop-color="#99C1F1"/>
<stop offset="1" stop-color="#1C71D8" stop-opacity="0.01"/>
</radialGradient>
<radialGradient id="paint7_radial_23_7723" cx="0" cy="0" r="1" gradientUnits="userSpaceOnUse" gradientTransform="translate(363.6 208.673) rotate(-156.34) scale(151.618 370.005)">
<stop stop-color="white"/>
<stop offset="1" stop-color="white" stop-opacity="0"/>
</radialGradient>
<linearGradient id="paint8_linear_23_7723" x1="236.286" y1="265.601" x2="362.84" y2="265.601" gradientUnits="userSpaceOnUse">
<stop stop-color="#3D3846"/>
<stop offset="0.029" stop-color="#5E556B"/>
<stop offset="0.055" stop-color="#3D3846"/>
<stop offset="0.954" stop-color="#2A2731"/>
<stop offset="0.976" stop-color="#575064"/>
<stop offset="1" stop-color="#3D3846"/>
</linearGradient>
<linearGradient id="paint9_linear_23_7723" x1="241.5" y1="64.5" x2="241.5" y2="55.5" gradientUnits="userSpaceOnUse">
<stop stop-color="#62A0EA"/>
<stop offset="1" stop-color="#3584E4"/>
</linearGradient>
<linearGradient id="paint10_linear_23_7723" x1="255" y1="64.5" x2="255" y2="55.5" gradientUnits="userSpaceOnUse">
<stop stop-color="#62A0EA"/>
<stop offset="1" stop-color="#3584E4"/>
</linearGradient>
<linearGradient id="paint11_linear_23_7723" x1="268.5" y1="64.5" x2="268.5" y2="55.5" gradientUnits="userSpaceOnUse">
<stop stop-color="#62A0EA"/>
<stop offset="1" stop-color="#3584E4"/>
</linearGradient>
<linearGradient id="paint12_linear_23_7723" x1="84.9995" y1="208.485" x2="94" y2="223" gradientUnits="userSpaceOnUse">
<stop stop-color="#613583"/>
<stop offset="1" stop-color="#A347BA"/>
</linearGradient>
<linearGradient id="paint13_linear_23_7723" x1="103" y1="197.804" x2="94" y2="183" gradientUnits="userSpaceOnUse">
<stop stop-color="#E5A50A"/>
<stop offset="1" stop-color="#F6D32D"/>
</linearGradient>
<linearGradient id="paint14_linear_23_7723" x1="84.9995" y1="197.804" x2="76" y2="213.393" gradientUnits="userSpaceOnUse">
<stop stop-color="#1A5FB4"/>
<stop offset="1" stop-color="#3584E4"/>
</linearGradient>
<linearGradient id="paint15_linear_23_7723" x1="103.001" y1="208.197" x2="112" y2="193" gradientUnits="userSpaceOnUse">
<stop stop-color="#C64600"/>
<stop offset="1" stop-color="#FF7800"/>
</linearGradient>
<linearGradient id="paint16_linear_23_7723" x1="93.9995" y1="192.607" x2="76" y2="192.608" gradientUnits="userSpaceOnUse">
<stop stop-color="#26A269"/>
<stop offset="1" stop-color="#33D17A"/>
</linearGradient>
<linearGradient id="paint17_linear_23_7723" x1="94.2495" y1="213.537" x2="112" y2="214" gradientUnits="userSpaceOnUse">
<stop stop-color="#A51D2D"/>
<stop offset="1" stop-color="#E01B24"/>
</linearGradient>
<linearGradient id="paint18_linear_23_7723" x1="547.001" y1="140" x2="547.001" y2="152" gradientUnits="userSpaceOnUse">
<stop stop-color="#A51D2D"/>
<stop offset="1" stop-color="#CE1921"/>
</linearGradient>
<linearGradient id="paint19_linear_23_7723" x1="547" y1="162.25" x2="547" y2="132" gradientUnits="userSpaceOnUse">
<stop stop-color="#D81D25"/>
<stop offset="1" stop-color="#F66151"/>
</linearGradient>
<linearGradient id="paint20_linear_23_7723" x1="238.5" y1="177.25" x2="205.5" y2="177.25" gradientUnits="userSpaceOnUse">
<stop stop-color="#C0BFBC"/>
<stop offset="0.045" stop-color="white"/>
<stop offset="0.091" stop-color="#DEDDDA"/>
<stop offset="0.909" stop-color="#DEDDDA"/>
<stop offset="0.955" stop-color="white"/>
<stop offset="1" stop-color="#C0BFBC"/>
</linearGradient>
<linearGradient id="paint21_linear_23_7723" x1="234.751" y1="178.001" x2="234.483" y2="177.733" gradientUnits="userSpaceOnUse">
<stop stop-color="#D5D3CF"/>
<stop offset="1" stop-color="white"/>
</linearGradient>
<linearGradient id="paint22_linear_23_7723" x1="236.849" y1="145.097" x2="242.152" y2="150.401" gradientUnits="userSpaceOnUse">
<stop stop-color="#FC9A91"/>
<stop offset="1" stop-color="#CB2B31"/>
</linearGradient>
<linearGradient id="paint23_linear_23_7723" x1="236.318" y1="145.628" x2="241.622" y2="150.931" gradientUnits="userSpaceOnUse">
<stop stop-color="#FC9A91"/>
<stop offset="1" stop-color="#CB2B31"/>
</linearGradient>
<linearGradient id="paint24_linear_23_7723" x1="216.674" y1="174.981" x2="212.924" y2="171.231" gradientUnits="userSpaceOnUse">
<stop stop-color="#D0BB8E"/>
<stop offset="1" stop-color="white"/>
</linearGradient>
<linearGradient id="paint25_linear_23_7723" x1="239.503" y1="153.051" x2="234.2" y2="147.747" gradientUnits="userSpaceOnUse">
<stop stop-color="#C0BFBC"/>
<stop offset="0.223" stop-color="#9A9996"/>
<stop offset="0.744" stop-color="#D6D5D2"/>
<stop offset="1" stop-color="#F6F5F4"/>
</linearGradient>
<linearGradient id="paint26_linear_23_7723" x1="407.68" y1="259.915" x2="410.615" y2="263.177" gradientUnits="userSpaceOnUse">
<stop stop-color="#9A9996"/>
<stop offset="1" stop-color="#77767B"/>
</linearGradient>
<clipPath id="clip0_23_7723">
<rect width="600" height="300" fill="white"/>
</clipPath>
</defs>
</svg>
