<svg width="500" height="300" viewBox="0 0 500 300" fill="none" xmlns="http://www.w3.org/2000/svg">
<path d="M363.191 237.167V254.754C363.191 264.9 355.403 273.121 345.793 273.121H154.398C144.791 273.121 137 264.9 137 254.754V237.167C137 246.883 144.791 254.754 154.398 254.754H345.793C355.403 254.754 363.191 246.883 363.191 237.167Z" fill="url(#paint0_linear_34_318)"/>
<path d="M154.398 27.5087H345.793C355.403 27.5087 363.191 35.3851 363.191 45.0979V238.676C363.191 248.389 355.403 256.263 345.793 256.263H154.398C144.791 256.263 137 248.389 137 238.676V45.0979C137 35.3851 144.791 27.5087 154.398 27.5087Z" fill="#DDDDDD"/>
<path d="M154.398 26H345.793C355.403 26 363.191 33.8763 363.191 43.5916V237.167C363.191 246.883 355.403 254.754 345.793 254.754H154.398C144.791 254.754 137 246.883 137 237.167V43.5916C137 33.8763 144.791 26 154.398 26Z" fill="url(#paint1_linear_34_318)"/>
<path d="M298.085 177.015V183.669C298.085 187.506 294.779 190.616 290.703 190.616H209.489C205.413 190.616 202.106 187.506 202.106 183.669V177.015C202.106 180.691 205.413 183.669 209.489 183.669H290.703C294.779 183.669 298.085 180.691 298.085 177.015Z" fill="url(#paint2_linear_34_318)"/>
<path d="M209.489 97.7015H290.703C294.779 97.7015 298.085 100.68 298.085 104.355V177.585C298.085 181.26 294.779 184.239 290.703 184.239H209.489C205.413 184.239 202.106 181.26 202.106 177.585V104.355C202.106 100.68 205.413 97.7015 209.489 97.7015Z" fill="#686868"/>
<path d="M209.489 97.1317H290.703C294.779 97.1317 298.085 100.11 298.085 103.785V177.015C298.085 180.69 294.779 183.669 290.703 183.669H209.489C205.413 183.669 202.106 180.69 202.106 177.015V103.785C202.106 100.11 205.413 97.1317 209.489 97.1317Z" fill="url(#paint3_linear_34_318)"/>
<path d="M262.596 135.187H260.596V131.187C260.596 125.667 256.116 121.187 250.596 121.187C245.076 121.187 240.596 125.667 240.596 131.187V135.187H238.596C236.396 135.187 234.596 136.987 234.596 139.187V159.187C234.596 161.387 236.396 163.187 238.596 163.187H262.596C264.796 163.187 266.596 161.387 266.596 159.187V139.187C266.596 136.987 264.796 135.187 262.596 135.187ZM250.596 153.187C248.396 153.187 246.596 151.387 246.596 149.187C246.596 146.987 248.396 145.187 250.596 145.187C252.796 145.187 254.596 146.987 254.596 149.187C254.596 151.387 252.796 153.187 250.596 153.187ZM256.796 135.187H244.396V131.187C244.396 127.767 247.176 124.987 250.596 124.987C254.016 124.987 256.796 127.767 256.796 131.187V135.187Z" fill="url(#paint4_linear_34_318)"/>
<path d="M221.192 92.0772V76.794L217.945 71.8643M221.192 194.895V210.178L217.945 215.106M197.771 112.982H182.488L177.558 109.735M303.726 112.982H319.01L323.939 109.735M278.999 92.0772V76.794L282.247 71.8643M278.999 194.895V210.178L282.247 215.106M197.771 170.789H182.488L177.558 174.037M303.726 170.789H319.01L323.939 174.037M249.695 92.0772V71.8643M249.695 194.895V215.106M197.771 141.485H177.558M303.726 141.485H323.939M235.854 92.0772V60.4031M235.854 194.895V226.569M197.771 127.644H166.094M303.726 127.644H335.4M264.357 92.0772V60.4031M264.357 194.895V226.569M197.771 156.147H166.094M303.726 156.147H335.4" stroke="url(#paint5_radial_34_318)" stroke-width="2.66667" stroke-miterlimit="3" stroke-linecap="square"/>
<defs>
<linearGradient id="paint0_linear_34_318" x1="138.596" y1="265.687" x2="363.596" y2="266.687" gradientUnits="userSpaceOnUse">
<stop stop-color="#B7B7B7"/>
<stop offset="0.03" stop-color="#DFDFDF"/>
<stop offset="0.08" stop-color="#B7B7B7"/>
<stop offset="0.915" stop-color="#B7B7B7"/>
<stop offset="0.96" stop-color="#DFDFDF"/>
<stop offset="1" stop-color="#B7B7B7"/>
</linearGradient>
<linearGradient id="paint1_linear_34_318" x1="250.096" y1="254.754" x2="250.096" y2="26" gradientUnits="userSpaceOnUse">
<stop stop-color="#D8D8D8"/>
<stop offset="1" stop-color="#B8B8B8"/>
</linearGradient>
<linearGradient id="paint2_linear_34_318" x1="202.106" y1="148.909" x2="298.085" y2="148.909" gradientUnits="userSpaceOnUse">
<stop offset="0.0125" stop-color="#333333"/>
<stop offset="0.0375" stop-color="#515151"/>
<stop offset="0.116667" stop-color="#333333"/>
<stop offset="0.879167" stop-color="#333333"/>
<stop offset="0.959909" stop-color="#515151"/>
<stop offset="0.9875" stop-color="#333333"/>
</linearGradient>
<linearGradient id="paint3_linear_34_318" x1="250.096" y1="183.669" x2="250.096" y2="97.1317" gradientUnits="userSpaceOnUse">
<stop offset="0.00833333" stop-color="#353936"/>
<stop offset="1" stop-color="#080808"/>
</linearGradient>
<linearGradient id="paint4_linear_34_318" x1="250.596" y1="163.187" x2="250.596" y2="121.187" gradientUnits="userSpaceOnUse">
<stop stop-color="#E4E4E4"/>
<stop offset="1" stop-color="#858585"/>
</linearGradient>
<radialGradient id="paint5_radial_34_318" cx="0" cy="0" r="1" gradientUnits="userSpaceOnUse" gradientTransform="translate(250.747 143.486) scale(84.653 83.0832)">
<stop stop-color="#B1B1B1"/>
<stop offset="0.0001" stop-color="#C0C0C0"/>
<stop offset="0.0002" stop-color="#FFE500"/>
<stop offset="0.68" stop-color="#FBD54E"/>
<stop offset="1" stop-color="#939393"/>
</radialGradient>
</defs>
</svg>
