<?xml version="1.0" encoding="UTF-8" standalone="no"?>
<svg
   width="500"
   height="300"
   viewBox="0 0 171 164"
   version="1.1"
   id="svg34"
   sodipodi:docname="welcome.svg"
   inkscape:export-filename="welcome.svg"
   inkscape:export-xdpi="96"
   inkscape:export-ydpi="96"
   inkscape:version="1.3.2 (091e20ef0f, 2023-11-25)"
   xmlns:inkscape="http://www.inkscape.org/namespaces/inkscape"
   xmlns:sodipodi="http://sodipodi.sourceforge.net/DTD/sodipodi-0.dtd"
   xmlns="http://www.w3.org/2000/svg"
   xmlns:svg="http://www.w3.org/2000/svg">
  <sodipodi:namedview
     id="namedview34"
     pagecolor="#ffffff"
     bordercolor="#000000"
     borderopacity="0.25"
     inkscape:showpageshadow="2"
     inkscape:pageopacity="0.0"
     inkscape:pagecheckerboard="0"
     inkscape:deskcolor="#d1d1d1"
     showgrid="false"
     inkscape:zoom="2.762"
     inkscape:cx="250"
     inkscape:cy="163.83056"
     inkscape:window-width="1920"
     inkscape:window-height="1131"
     inkscape:window-x="0"
     inkscape:window-y="0"
     inkscape:window-maximized="1"
     inkscape:current-layer="svg34" />
  <!-- Add the same paths and definitions you have -->
  <path
     d="M 85.753504,25.076338 C 70.460977,32.19261 48.955299,55.108061 85.273913,89.840595 86.191593,83.86365 87.640945,76.909441 89.237804,70.012718 93.243344,52.712901 98.176995,35.776489 97.977997,35.543406 94.939998,31.989588 90.923288,28.479394 85.753504,25.076338 Z"
     fill="url(#paint0_linear_84_113)"
     id="path1"
     style="fill:url(#paint0_linear_84_113);stroke-width:0.718398" />
  <path
     fill-rule="evenodd"
     clip-rule="evenodd"
     d="m 97.977997,35.543406 c 0.154612,0.1809 0.456436,0.542977 0.456436,0.542977 0,0 -8.485343,41.994825 -13.16052,53.754212 -1.197755,-1.38978 -2.967203,-3.298682 -4.7095,-6.503738 C 78.11475,78.830619 73.767585,66.750942 78.247759,54.139519 82.51895,42.11663 90.788429,37.388192 97.977997,35.543406 Z"
     fill="#fffb64"
     id="path2"
     style="stroke-width:0.718398" />
  <path
     fill-rule="evenodd"
     clip-rule="evenodd"
     d="M 98.434433,36.086383 C 115.60294,56.874222 99.656527,79.03489 85.273913,89.840595 79.034945,83.542941 73.524573,69.362582 78.931599,54.380067 83.26419,42.374828 91.311296,38.088559 98.434433,36.086383 Z"
     fill="url(#paint1_linear_84_113)"
     id="path3"
     style="fill:url(#paint1_linear_84_113);stroke-width:0.718398" />
  <path
     d="M 148.5366,64.639096 C 135.55739,54.208168 104.73354,44.645179 85.273248,89.840874 c 6.18393,-1.569286 13.529588,-3.064691 20.878422,-4.409474 18.43203,-3.373538 36.87811,-5.799115 37.02606,-6.064011 2.25999,-4.036931 4.08943,-8.90441 5.35887,-14.728293 z"
     fill="url(#paint2_linear_84_113)"
     id="path4"
     style="fill:url(#paint2_linear_84_113);stroke-width:0.718398" />
  <path
     fill-rule="evenodd"
     clip-rule="evenodd"
     d="m 143.17847,79.367319 c -0.1154,0.205526 -0.34843,0.609951 -0.34843,0.609951 0,0 -44.255048,9.261535 -57.556422,9.863534 0.879656,-1.587146 2.038797,-3.874797 4.471074,-6.651709 3.419719,-3.904169 13.464188,-12.447546 27.519018,-13.555408 13.39865,-1.056168 21.27421,4.236178 25.91476,9.733632 z"
     fill="#fffb64"
     id="path5"
     style="stroke-width:0.718398" />
  <path
     fill-rule="evenodd"
     clip-rule="evenodd"
     d="m 142.82929,79.977341 c -13.45412,23.093069 -41.34333,18.046994 -57.556042,9.863533 3.665395,-7.894915 15.296152,-18.27673 32.025962,-19.519726 13.40532,-0.995891 20.76304,4.278595 25.53008,9.656193 z"
     fill="url(#paint3_linear_84_113)"
     id="path6"
     style="fill:url(#paint3_linear_84_113);stroke-width:0.718398" />
  <path
     d="m 38.699029,137.43717 c 16.389379,4.44261 48.649115,1.14344 46.573405,-47.597133 -4.94423,3.838241 -10.979022,8.062211 -17.081874,12.149713 -15.30858,10.25262 -31.044375,19.64782 -31.063239,19.94712 -0.289323,4.55632 0.176583,9.70216 1.571708,15.5003 z"
     fill="url(#paint4_linear_84_113)"
     id="path7"
     style="fill:url(#paint4_linear_84_113);stroke-width:0.718398" />
  <path
     fill-rule="evenodd"
     clip-rule="evenodd"
     d="m 37.127321,121.93687 c 0.01472,-0.23232 0.05016,-0.69138 0.05016,-0.69138 0,0 36.245007,-25.675473 48.094956,-31.405453 -0.10586,1.788067 -0.159197,4.323036 -1.157808,7.799198 -1.404003,4.887715 -6.809328,16.581655 -19.123038,23.065585 -11.739206,6.18185 -21.230263,4.43075 -27.864266,1.23205 z"
     fill="#fffb64"
     id="path8"
     style="stroke-width:0.718398" />
  <path
     fill-rule="evenodd"
     clip-rule="evenodd"
     d="M 37.17807,121.24549 C 39.314589,94.973528 66.924006,88.703849 85.273174,89.840106 85.393387,98.45757 79.349419,112.44329 64.657953,120.09299 52.885975,126.2225 43.87525,124.28584 37.17807,121.24549 Z"
     fill="url(#paint5_linear_84_113)"
     id="path9"
     style="fill:url(#paint5_linear_84_113);stroke-width:0.718398" />
  <path
     d="m 130.68899,138.42225 c 6.37087,-14.91778 6.20664,-45.518569 -45.416038,-48.581585 3.540226,5.032403 7.374881,11.127745 11.058843,17.272605 9.241385,15.4145 17.533425,31.14154 17.846345,31.19037 4.77668,0.73952 10.25169,0.83161 16.51085,0.11861 z"
     fill="url(#paint6_linear_84_113)"
     id="path10"
     style="fill:url(#paint6_linear_84_113);stroke-width:0.718398" />
  <path
     fill-rule="evenodd"
     clip-rule="evenodd"
     d="m 114.17888,138.30364 c -0.24338,-0.0376 -0.72349,-0.11789 -0.72349,-0.11789 0,0 -23.355758,-36.6397 -28.181772,-48.344946 1.875159,0.283106 4.54335,0.593768 8.107545,1.887901 5.011101,1.819532 16.789667,8.092067 22.363067,20.309945 5.313,11.64721 2.49079,20.37059 -1.56535,26.26499 z"
     fill="#fffb64"
     id="path11"
     style="stroke-width:0.718398" />
  <path
     fill-rule="evenodd"
     clip-rule="evenodd"
     d="M 113.45466,138.18504 C 85.963301,133.48082 82.188348,106.93678 85.272952,89.840665 c 9.102013,0.773062 23.231928,7.880195 29.790688,22.448445 5.25531,11.67303 2.28588,19.92618 -1.60898,25.89593 z"
     fill="url(#paint7_linear_84_113)"
     id="path12"
     style="fill:url(#paint7_linear_84_113);stroke-width:0.718398" />
  <path
     d="M 22.406412,63.771224 C 23.27748,79.83223 37.070063,107.53186 85.273174,89.840595 79.817322,86.678373 73.620594,82.668721 67.538308,78.554072 52.281142,68.232882 37.745692,57.251789 37.439799,57.332088 32.776311,58.554923 27.767573,60.64256 22.406412,63.771224 Z"
     fill="url(#paint8_linear_84_113)"
     id="path13"
     style="fill:url(#paint8_linear_84_113);stroke-width:0.718398" />
  <path
     fill-rule="evenodd"
     clip-rule="evenodd"
     d="m 37.440686,57.332088 c 0.237391,-0.06229 0.709363,-0.180062 0.709363,-0.180062 0,0 37.52643,23.982152 47.123864,32.688569 -1.827519,0.486678 -4.386815,1.26274 -8.197574,1.501894 -5.357833,0.336195 -18.840964,-0.684531 -29.345204,-9.5595 C 37.717063,73.322074 36.38896,64.288251 37.440686,57.332088 Z"
     fill="#fffb64"
     id="path14"
     style="stroke-width:0.718398" />
  <path
     fill-rule="evenodd"
     clip-rule="evenodd"
     d="M 38.148865,57.152026 C 65.189549,50.519501 80.449304,73.106291 85.272952,89.840665 76.670059,92.748525 60.680894,91.902908 48.235137,81.286055 38.262641,72.778886 37.276828,64.112931 38.148865,57.152026 Z"
     fill="url(#paint9_linear_84_113)"
     id="path15"
     style="fill:url(#paint9_linear_84_113);stroke-width:0.718398" />
  <defs
     id="defs34">
    <linearGradient
       id="paint0_linear_84_113"
       x1="0.0819624"
       y1="29.4563"
       x2="185.435"
       y2="78.5034"
       gradientUnits="userSpaceOnUse"
       gradientTransform="matrix(0.73976651,0,0,0.69764638,22.406412,25.076338)">
      <stop
         stop-color="#FFFB64"
         id="stop15" />
      <stop
         offset="1"
         stop-color="#FFBF48"
         id="stop16" />
    </linearGradient>
    <linearGradient
       id="paint1_linear_84_113"
       x1="0.0440787"
       y1="55.3637"
       x2="85.0261"
       y2="92.7311"
       gradientUnits="userSpaceOnUse"
       gradientTransform="matrix(0.73976651,0,0,0.69764638,22.406412,25.076338)">
      <stop
         stop-color="#FDE14E"
         id="stop17" />
      <stop
         offset="1"
         stop-color="#F9A731"
         id="stop18" />
    </linearGradient>
    <linearGradient
       id="paint2_linear_84_113"
       x1="0.0819624"
       y1="29.4563"
       x2="185.435"
       y2="78.5034"
       gradientUnits="userSpaceOnUse"
       gradientTransform="matrix(0.73976651,0,0,0.69764638,22.406412,25.076338)">
      <stop
         stop-color="#FFFB64"
         id="stop19" />
      <stop
         offset="1"
         stop-color="#FFBF48"
         id="stop20" />
    </linearGradient>
    <linearGradient
       id="paint3_linear_84_113"
       x1="0.0440787"
       y1="55.3637"
       x2="85.0261"
       y2="92.7311"
       gradientUnits="userSpaceOnUse"
       gradientTransform="matrix(0.73976651,0,0,0.69764638,22.406412,25.076338)">
      <stop
         stop-color="#FDE14E"
         id="stop21" />
      <stop
         offset="1"
         stop-color="#F9A731"
         id="stop22" />
    </linearGradient>
    <linearGradient
       id="paint4_linear_84_113"
       x1="0.0819624"
       y1="29.4563"
       x2="185.435"
       y2="78.5034"
       gradientUnits="userSpaceOnUse"
       gradientTransform="matrix(0.73976651,0,0,0.69764638,22.406412,25.076338)">
      <stop
         stop-color="#FFFB64"
         id="stop23" />
      <stop
         offset="1"
         stop-color="#FFBF48"
         id="stop24" />
    </linearGradient>
    <linearGradient
       id="paint5_linear_84_113"
       x1="0.0440787"
       y1="55.3637"
       x2="85.0261"
       y2="92.7311"
       gradientUnits="userSpaceOnUse"
       gradientTransform="matrix(0.73976651,0,0,0.69764638,22.406412,25.076338)">
      <stop
         stop-color="#FDE14E"
         id="stop25" />
      <stop
         offset="1"
         stop-color="#F9A731"
         id="stop26" />
    </linearGradient>
    <linearGradient
       id="paint6_linear_84_113"
       x1="0.0819624"
       y1="29.4563"
       x2="185.435"
       y2="78.5034"
       gradientUnits="userSpaceOnUse"
       gradientTransform="matrix(0.73976651,0,0,0.69764638,22.406412,25.076338)">
      <stop
         stop-color="#FFFB64"
         id="stop27" />
      <stop
         offset="1"
         stop-color="#FFBF48"
         id="stop28" />
    </linearGradient>
    <linearGradient
       id="paint7_linear_84_113"
       x1="0.0440787"
       y1="55.3637"
       x2="85.0261"
       y2="92.7311"
       gradientUnits="userSpaceOnUse"
       gradientTransform="matrix(0.73976651,0,0,0.69764638,22.406412,25.076338)">
      <stop
         stop-color="#FDE14E"
         id="stop29" />
      <stop
         offset="1"
         stop-color="#F9A731"
         id="stop30" />
    </linearGradient>
    <linearGradient
       id="paint8_linear_84_113"
       x1="0.0819624"
       y1="29.4563"
       x2="185.435"
       y2="78.5034"
       gradientUnits="userSpaceOnUse"
       gradientTransform="matrix(0.73976651,0,0,0.69764638,22.406412,25.076338)">
      <stop
         stop-color="#FFFB64"
         id="stop31" />
      <stop
         offset="1"
         stop-color="#FFBF48"
         id="stop32" />
    </linearGradient>
    <linearGradient
       id="paint9_linear_84_113"
       x1="0.0440787"
       y1="55.3637"
       x2="85.0261"
       y2="92.7311"
       gradientUnits="userSpaceOnUse"
       gradientTransform="matrix(0.73976651,0,0,0.69764638,22.406412,25.076338)">
      <stop
         stop-color="#FDE14E"
         id="stop33" />
      <stop
         offset="1"
         stop-color="#F9A731"
         id="stop34" />
    </linearGradient>
  </defs>
</svg>
