<svg width="128" height="128" viewBox="0 0 128 128" fill="none" xmlns="http://www.w3.org/2000/svg">
<g clip-path="url(#clip0_52_304)">
<path d="M77 88L72 110" stroke="#77767B" stroke-width="2"/>
<path d="M64 4.00004C51.645 4.09004 39.121 8.07404 29.824 16.215C25.172 20.281 21.375 25.348 18.926 31.02C16.48 36.695 15.402 42.977 16 49.125C16.695 56.285 19.594 63.066 23.207 69.285C27.1714 76.1188 32.0117 82.4054 37.605 87.985L44.395 100H82.355L91 87C95.9327 81.5535 100.328 75.6434 104.125 69.352C107.891 63.109 111.102 56.359 112 49.125C112.766 42.957 111.793 36.605 109.387 30.871C106.984 25.137 103.168 20.023 98.48 15.941C89.105 7.77304 76.434 3.91104 64 4.00004Z" fill="url(#paint0_radial_52_304)"/>
<path d="M65.262 4.01611C48.043 6.61311 31.73 12.3161 24.414 32.2461C17.81 56.9501 28.074 68.8631 41.09 88.0001L46.941 100.008H54.863C49.938 85.4961 37.777 60.3401 37.777 47.7031C37.777 10.6451 65.059 4.14511 65.262 4.01611ZM65.266 4.01611C65.336 4.20311 73.777 21.2541 73.773 47.7031C73.773 61.6601 71.824 85.7501 69.926 100.008H80C104.254 56.4961 112.934 17.0201 65.266 4.01611Z" fill="url(#paint1_radial_52_304)"/>
<mask id="mask0_52_304" style="mask-type:luminance" maskUnits="userSpaceOnUse" x="0" y="0" width="128" height="128">
<path d="M0 0H128V128H0V0Z" fill="black" fill-opacity="0.1"/>
</mask>
<g mask="url(#mask0_52_304)">
<path fill-rule="evenodd" clip-rule="evenodd" d="M83 100L91 87H37L45.004 100H83Z" fill="black"/>
</g>
<path d="M52 86L57 109" stroke="#C0BFBC" stroke-width="2"/>
<path d="M80 110V121.316C80.0013 121.93 79.8813 122.539 79.6468 123.107C79.4122 123.675 79.0679 124.191 78.6334 124.625C78.1989 125.06 77.6829 125.404 77.115 125.639C76.5471 125.873 75.9384 125.993 75.324 125.992H52.676C52.0616 125.993 51.4529 125.873 50.885 125.639C50.3171 125.404 49.8011 125.06 49.3666 124.625C48.9322 124.191 48.5878 123.675 48.3533 123.107C48.1187 122.539 47.9987 121.93 48 121.316V110H80Z" fill="#C08800"/>
<path d="M37.457 86.395L49.562 109" stroke="#9A9996" stroke-width="2"/>
<path d="M36 84V86C36 86 36 88 37.871 88H90.13C92 88 92 86 92 86V84H36Z" fill="url(#paint2_linear_52_304)"/>
<path d="M90.5 87L78.437 109" stroke="#77767B" stroke-width="2"/>
<path d="M80 108V119.316C80.0013 119.93 79.8813 120.539 79.6468 121.107C79.4122 121.675 79.0679 122.191 78.6334 122.625C78.1989 123.06 77.6829 123.404 77.115 123.639C76.5471 123.873 75.9384 123.993 75.324 123.992H52.676C52.0616 123.993 51.4529 123.873 50.885 123.639C50.3171 123.404 49.8011 123.06 49.3666 122.625C48.9322 122.191 48.5878 121.675 48.3533 121.107C48.1187 120.539 47.9987 119.93 48 119.316V108H80Z" fill="url(#paint3_linear_52_304)"/>
<path fill-rule="evenodd" clip-rule="evenodd" d="M62.3898 113.582C62.3755 113.672 62.3857 113.879 62.4591 114.17C61.7626 113.619 60.8829 113.638 59.9134 113.813C59.6061 113.868 59.3016 113.887 59 113.868C59.1551 114.436 59.3202 114.9 59.4953 115.259C59.8218 115.929 60.3497 116.391 60.5043 116.511C60.6089 116.593 60.9558 116.753 61.5143 116.848C61.452 116.868 61.3934 116.889 61.3386 116.912C60.4813 117.269 60.1066 118.058 59.8436 119C59.7622 119.292 59.6474 119.565 59.4993 119.819C60.0962 119.931 60.6001 119.988 61.011 119.991C61.777 119.997 62.4362 119.737 62.6155 119.655C62.7948 119.572 63.3657 119.103 63.8468 118.129C63.9041 118.013 63.9566 117.89 64.0043 117.758C64.2401 118.407 64.4896 118.879 64.7528 119.175C65.3616 119.858 66.2527 119.968 67.2612 119.928C67.5735 119.916 67.8776 119.94 68.1734 120C68.1042 119.416 68.0097 118.934 67.8898 118.554C67.6661 117.846 67.2123 117.316 67.0771 117.175C66.9948 117.09 66.7274 116.913 66.2816 116.754C66.5404 116.728 66.7615 116.685 66.9445 116.624C67.8266 116.329 68.2603 115.569 68.5942 114.648C68.6977 114.363 68.8329 114.099 69 113.855C68.4131 113.702 67.9149 113.609 67.5054 113.577C66.7419 113.516 66.0648 113.728 65.8797 113.798C65.8017 113.827 65.649 113.92 65.457 114.088C65.6249 113.211 65.163 112.472 64.5103 111.737C64.3067 111.507 64.1378 111.262 64.0034 111C63.5723 111.414 63.2397 111.785 63.0056 112.111C62.5692 112.72 62.4202 113.393 62.3898 113.582ZM64.0145 116.895C64.608 116.895 65.0891 116.43 65.0891 115.856C65.0891 115.282 64.608 114.817 64.0145 114.817C63.421 114.817 62.9399 115.282 62.9399 115.856C62.9399 116.43 63.421 116.895 64.0145 116.895Z" fill="white"/>
</g>
<defs>
<radialGradient id="paint0_radial_52_304" cx="0" cy="0" r="1" gradientUnits="userSpaceOnUse" gradientTransform="translate(88.5521 30.4016) scale(230.029 71.3146)">
<stop stop-color="#FFFA77"/>
<stop offset="1" stop-color="#DB8300"/>
</radialGradient>
<radialGradient id="paint1_radial_52_304" cx="0" cy="0" r="1" gradientUnits="userSpaceOnUse" gradientTransform="translate(63.9995 32) scale(63.9994 53.9997)">
<stop stop-color="white"/>
<stop offset="0.519" stop-color="white"/>
<stop offset="0.734" stop-color="#CFCFCF"/>
<stop offset="1" stop-color="#CECECE"/>
</radialGradient>
<linearGradient id="paint2_linear_52_304" x1="38" y1="86" x2="88.377" y2="86" gradientUnits="userSpaceOnUse">
<stop stop-color="#9A9996"/>
<stop offset="0.278" stop-color="#C0BFBC"/>
<stop offset="0.774" stop-color="#9F9E9B"/>
<stop offset="1" stop-color="#77767B"/>
</linearGradient>
<linearGradient id="paint3_linear_52_304" x1="54" y1="112" x2="66" y2="112" gradientUnits="userSpaceOnUse">
<stop stop-color="#DD8805"/>
<stop offset="1" stop-color="#FFB400"/>
</linearGradient>
<clipPath id="clip0_52_304">
<rect width="128" height="128" fill="white"/>
</clipPath>
</defs>
</svg>
